M48
;DRILL file {KiCad 4.0.5+dfsg1-4} date Sat Sep 30 20:55:01 2017
;FORMAT={-:-/ absolute / inch / decimal}
FMAT,2
INCH,TZ
T1C0.016
T2C0.020
T3C0.039
%
G90
G05
M72
T1
X4.6697Y-2.9291
X4.6752Y-3.0807
X4.6752Y-3.2185
X4.6752Y-3.3661
X4.6752Y-3.6016
X4.6795Y-3.7071
X4.6795Y-3.8213
X4.6795Y-4.1118
X4.6815Y-3.9689
X4.6906Y-4.2154
X4.6969Y-4.3736
X4.7717Y-2.8402
X4.9069Y-4.6815
X4.9959Y-4.7835
X5.0805Y-2.6287
X5.1474Y-4.778
X5.2388Y-2.6224
X5.2852Y-4.778
X5.3423Y-2.6113
X5.4126Y-3.9299
X5.4138Y-3.5504
X5.4138Y-3.8768
X5.4146Y-3.4437
X5.4146Y-3.8276
X5.415Y-3.4961
X5.4161Y-3.6587
X5.4161Y-3.7677
X5.4165Y-3.5992
X5.4177Y-3.7138
X5.4329Y-4.778
X5.4852Y-2.6133
X5.5104Y-4.0386
X5.5242Y-3.3444
X5.5628Y-4.0382
X5.5774Y-3.3456
X5.6171Y-4.0394
X5.6266Y-3.3464
X5.6329Y-2.6113
X5.6659Y-4.0366
X5.6683Y-4.778
X5.6864Y-3.348
X5.7254Y-4.037
X5.7404Y-3.3495
X5.7471Y-2.6113
X5.7738Y-4.7737
X5.7805Y-4.0355
X5.7955Y-3.348
X5.8344Y-4.037
X5.8526Y-2.607
X5.8549Y-3.3484
X5.888Y-4.7737
X5.8943Y-4.0386
X5.9037Y-3.3456
X5.9435Y-4.0394
X5.9581Y-3.3468
X5.9966Y-4.0406
X6.0104Y-3.3464
X6.0356Y-4.7717
X6.088Y-2.607
X6.1006Y-3.6738
X6.1018Y-3.7884
X6.1022Y-3.6199
X6.1022Y-3.7289
X6.1033Y-3.8915
X6.1037Y-3.56
X6.1037Y-3.9439
X6.1045Y-3.5108
X6.1045Y-3.8372
X6.1057Y-3.4577
X6.1785Y-4.7737
X6.2356Y-2.607
X6.2821Y-4.7626
X6.3734Y-2.607
X6.4403Y-4.7563
X6.525Y-2.6015
X6.614Y-2.7035
X6.7467Y-4.5474
X6.8215Y-3.014
X6.8278Y-3.1722
X6.8368Y-3.4187
X6.8388Y-3.2758
X6.8388Y-3.5663
X6.8388Y-3.6805
X6.8431Y-3.786
X6.8431Y-4.0215
X6.8431Y-4.1691
X6.8431Y-4.3069
X6.8486Y-4.4585
T2
X5.1077Y-3.3765
X5.1077Y-3.4306
X5.1077Y-3.4847
X5.1077Y-3.5389
X5.1077Y-3.593
X5.1077Y-3.6471
X5.1077Y-3.7013
X5.1077Y-3.7554
X5.1077Y-3.8095
X5.1077Y-3.8637
X5.1077Y-3.9178
X5.1077Y-3.9719
X5.2077Y-3.3962
X5.2077Y-3.4503
X5.2077Y-3.5044
X5.2077Y-3.5586
X5.2077Y-3.6127
X5.2077Y-3.6668
X5.2077Y-3.721
X5.2077Y-3.7751
X5.2077Y-3.8292
X5.2077Y-3.8834
X5.2077Y-3.9375
X5.2077Y-3.9916
X5.3077Y-3.4158
X5.3077Y-3.47
X5.3077Y-3.5241
X5.3077Y-3.5782
X5.3077Y-3.6324
X5.3077Y-3.6865
X5.3077Y-3.7406
X5.3077Y-3.7948
X5.3077Y-3.8489
X5.3077Y-3.9031
X5.3077Y-3.9572
X5.3077Y-4.0113
X5.443Y-3.2411
X5.443Y-4.3467
X5.4627Y-3.1411
X5.4627Y-4.2467
X5.4824Y-3.0411
X5.4824Y-4.1467
X5.4971Y-3.2411
X5.4971Y-4.3467
X5.5168Y-3.1411
X5.5168Y-4.2467
X5.5365Y-3.0411
X5.5365Y-4.1467
X5.5513Y-3.2411
X5.5513Y-4.3467
X5.571Y-3.1411
X5.571Y-4.2467
X5.5906Y-3.0411
X5.5906Y-4.1467
X5.6054Y-3.2411
X5.6054Y-4.3467
X5.6251Y-3.1411
X5.6251Y-4.2467
X5.6448Y-3.0411
X5.6448Y-4.1467
X5.6595Y-3.2411
X5.6595Y-4.3467
X5.6792Y-3.1411
X5.6792Y-4.2467
X5.6989Y-3.0411
X5.6989Y-4.1467
X5.7137Y-3.2411
X5.7137Y-4.3467
X5.7334Y-3.1411
X5.7334Y-4.2467
X5.7531Y-3.0411
X5.7531Y-4.1467
X5.7678Y-3.2411
X5.7678Y-4.3467
X5.7875Y-3.1411
X5.7875Y-4.2467
X5.8072Y-3.0411
X5.8072Y-4.1467
X5.8219Y-3.2411
X5.8219Y-4.3467
X5.8416Y-3.1411
X5.8416Y-4.2467
X5.8613Y-3.0411
X5.8613Y-4.1467
X5.8761Y-3.2411
X5.8761Y-4.3467
X5.8958Y-3.1411
X5.8958Y-4.2467
X5.9155Y-3.0411
X5.9155Y-4.1467
X5.9302Y-3.2411
X5.9302Y-4.3467
X5.9499Y-3.1411
X5.9499Y-4.2467
X5.9696Y-3.0411
X5.9696Y-4.1467
X5.9844Y-3.2411
X5.9844Y-4.3467
X6.004Y-3.1411
X6.004Y-4.2467
X6.0237Y-3.0411
X6.0237Y-4.1467
X6.0385Y-3.2411
X6.0385Y-4.3467
X6.0582Y-3.1411
X6.0582Y-4.2467
X6.0779Y-3.0411
X6.0779Y-4.1467
X6.2132Y-3.3765
X6.2132Y-3.4306
X6.2132Y-3.4847
X6.2132Y-3.5389
X6.2132Y-3.593
X6.2132Y-3.6471
X6.2132Y-3.7013
X6.2132Y-3.7554
X6.2132Y-3.8095
X6.2132Y-3.8637
X6.2132Y-3.9178
X6.2132Y-3.9719
X6.3132Y-3.3962
X6.3132Y-3.4503
X6.3132Y-3.5044
X6.3132Y-3.5586
X6.3132Y-3.6127
X6.3132Y-3.6668
X6.3132Y-3.721
X6.3132Y-3.7751
X6.3132Y-3.8292
X6.3132Y-3.8834
X6.3132Y-3.9375
X6.3132Y-3.9916
X6.4132Y-3.4158
X6.4132Y-3.47
X6.4132Y-3.5241
X6.4132Y-3.5782
X6.4132Y-3.6324
X6.4132Y-3.6865
X6.4132Y-3.7406
X6.4132Y-3.7948
X6.4132Y-3.8489
X6.4132Y-3.9031
X6.4132Y-3.9572
X6.4132Y-4.0113
T3
X4.45Y-2.8213
X4.45Y-2.9213
X4.45Y-3.0213
X4.45Y-3.1213
X4.45Y-3.2213
X4.45Y-3.3213
X4.45Y-3.4213
X4.45Y-3.5213
X4.45Y-3.6213
X4.45Y-3.7213
X4.45Y-3.8213
X4.45Y-3.9213
X4.45Y-4.0213
X4.45Y-4.1213
X4.45Y-4.2213
X4.45Y-4.3213
X4.45Y-4.4213
X4.45Y-4.5213
X4.55Y-2.8213
X4.55Y-2.9213
X4.55Y-3.0213
X4.55Y-3.1213
X4.55Y-3.2213
X4.55Y-3.3213
X4.55Y-3.4213
X4.55Y-3.5213
X4.55Y-3.6213
X4.55Y-3.7213
X4.55Y-3.8213
X4.55Y-3.9213
X4.55Y-4.0213
X4.55Y-4.1213
X4.55Y-4.2213
X4.55Y-4.3213
X4.55Y-4.4213
X4.55Y-4.5213
X4.8886Y-4.9
X4.8886Y-5.
X4.9339Y-2.3807
X4.9339Y-2.4807
X4.9886Y-4.9
X4.9886Y-5.
X5.0339Y-2.3807
X5.0339Y-2.4807
X5.0886Y-4.9
X5.0886Y-5.
X5.1339Y-2.3807
X5.1339Y-2.4807
X5.1886Y-4.9
X5.1886Y-5.
X5.2339Y-2.3807
X5.2339Y-2.4807
X5.2886Y-4.9
X5.2886Y-5.
X5.3339Y-2.3807
X5.3339Y-2.4807
X5.3886Y-4.9
X5.3886Y-5.
X5.4339Y-2.3807
X5.4339Y-2.4807
X5.4886Y-4.9
X5.4886Y-5.
X5.5339Y-2.3807
X5.5339Y-2.4807
X5.5886Y-4.9
X5.5886Y-5.
X5.6339Y-2.3807
X5.6339Y-2.4807
X5.6886Y-4.9
X5.6886Y-5.
X5.7339Y-2.3807
X5.7339Y-2.4807
X5.7886Y-4.9
X5.7886Y-5.
X5.8339Y-2.3807
X5.8339Y-2.4807
X5.8886Y-4.9
X5.8886Y-5.
X5.9339Y-2.3807
X5.9339Y-2.4807
X5.9886Y-4.9
X5.9886Y-5.
X6.0339Y-2.3807
X6.0339Y-2.4807
X6.0886Y-4.9
X6.0886Y-5.
X6.1339Y-2.3807
X6.1339Y-2.4807
X6.1886Y-4.9
X6.1886Y-5.
X6.2339Y-2.3807
X6.2339Y-2.4807
X6.2886Y-4.9
X6.2886Y-5.
X6.3339Y-2.3807
X6.3339Y-2.4807
X6.3886Y-4.9
X6.3886Y-5.
X6.4339Y-2.3807
X6.4339Y-2.4807
X6.4886Y-4.9
X6.4886Y-5.
X6.5339Y-2.3807
X6.5339Y-2.4807
X6.5886Y-4.9
X6.5886Y-5.
X6.6339Y-2.3807
X6.6339Y-2.4807
X6.9681Y-2.8657
X6.9681Y-2.9657
X6.9681Y-3.0657
X6.9681Y-3.1657
X6.9681Y-3.2657
X6.9681Y-3.3657
X6.9681Y-3.4657
X6.9681Y-3.5657
X6.9681Y-3.6657
X6.9681Y-3.7657
X6.9681Y-3.8657
X6.9681Y-3.9657
X6.9681Y-4.0657
X6.9681Y-4.1657
X6.9681Y-4.2657
X6.9681Y-4.3657
X6.9681Y-4.4657
X6.9681Y-4.5657
X7.0681Y-2.8657
X7.0681Y-2.9657
X7.0681Y-3.0657
X7.0681Y-3.1657
X7.0681Y-3.2657
X7.0681Y-3.3657
X7.0681Y-3.4657
X7.0681Y-3.5657
X7.0681Y-3.6657
X7.0681Y-3.7657
X7.0681Y-3.8657
X7.0681Y-3.9657
X7.0681Y-4.0657
X7.0681Y-4.1657
X7.0681Y-4.2657
X7.0681Y-4.3657
X7.0681Y-4.4657
X7.0681Y-4.5657
T0
M30
