G04 #@! TF.FileFunction,Legend,Top*
%FSLAX46Y46*%
G04 Gerber Fmt 4.6, Leading zero omitted, Abs format (unit mm)*
G04 Created by KiCad (PCBNEW 4.0.5+dfsg1-4) date Sat Sep 30 20:54:29 2017*
%MOMM*%
%LPD*%
G01*
G04 APERTURE LIST*
%ADD10C,0.100000*%
%ADD11C,0.150000*%
%ADD12C,0.120000*%
G04 APERTURE END LIST*
D10*
D11*
X122815001Y-72325000D02*
X122815001Y-115325000D01*
X122815001Y-115325000D02*
X169815001Y-115325000D01*
X169815001Y-115325000D02*
X169815001Y-72325000D01*
X169815001Y-72325000D02*
X122815001Y-72325000D01*
D12*
X116900000Y-72930000D02*
X116900000Y-116170000D01*
X116900000Y-116170000D02*
X111700000Y-116170000D01*
X111700000Y-116170000D02*
X111700000Y-70330000D01*
X111700000Y-70330000D02*
X114300000Y-70330000D01*
X114300000Y-70330000D02*
X114300000Y-72930000D01*
X114300000Y-72930000D02*
X116900000Y-72930000D01*
X116900000Y-71660000D02*
X116900000Y-70330000D01*
X116900000Y-70330000D02*
X115630000Y-70330000D01*
X167230000Y-64340000D02*
X123990000Y-64340000D01*
X123990000Y-64340000D02*
X123990000Y-59140000D01*
X123990000Y-59140000D02*
X169830000Y-59140000D01*
X169830000Y-59140000D02*
X169830000Y-61740000D01*
X169830000Y-61740000D02*
X167230000Y-61740000D01*
X167230000Y-61740000D02*
X167230000Y-64340000D01*
X168500000Y-64340000D02*
X169830000Y-64340000D01*
X169830000Y-64340000D02*
X169830000Y-63070000D01*
X125440000Y-123130000D02*
X168680000Y-123130000D01*
X168680000Y-123130000D02*
X168680000Y-128330000D01*
X168680000Y-128330000D02*
X122840000Y-128330000D01*
X122840000Y-128330000D02*
X122840000Y-125730000D01*
X122840000Y-125730000D02*
X125440000Y-125730000D01*
X125440000Y-125730000D02*
X125440000Y-123130000D01*
X124170000Y-123130000D02*
X122840000Y-123130000D01*
X122840000Y-123130000D02*
X122840000Y-124400000D01*
X180860000Y-74060000D02*
X180860000Y-117300000D01*
X180860000Y-117300000D02*
X175660000Y-117300000D01*
X175660000Y-117300000D02*
X175660000Y-71460000D01*
X175660000Y-71460000D02*
X178260000Y-71460000D01*
X178260000Y-71460000D02*
X178260000Y-74060000D01*
X178260000Y-74060000D02*
X180860000Y-74060000D01*
X180860000Y-72790000D02*
X180860000Y-71460000D01*
X180860000Y-71460000D02*
X179590000Y-71460000D01*
D11*
X167553096Y-116277381D02*
X167553096Y-117086905D01*
X167600715Y-117182143D01*
X167648334Y-117229762D01*
X167743572Y-117277381D01*
X167934049Y-117277381D01*
X168029287Y-117229762D01*
X168076906Y-117182143D01*
X168124525Y-117086905D01*
X168124525Y-116277381D01*
X169124525Y-117277381D02*
X168553096Y-117277381D01*
X168838810Y-117277381D02*
X168838810Y-116277381D01*
X168743572Y-116420238D01*
X168648334Y-116515476D01*
X168553096Y-116563095D01*
X113966667Y-68782381D02*
X113966667Y-69496667D01*
X113919047Y-69639524D01*
X113823809Y-69734762D01*
X113680952Y-69782381D01*
X113585714Y-69782381D01*
X114966667Y-69782381D02*
X114395238Y-69782381D01*
X114680952Y-69782381D02*
X114680952Y-68782381D01*
X114585714Y-68925238D01*
X114490476Y-69020476D01*
X114395238Y-69068095D01*
X170282381Y-62073333D02*
X170996667Y-62073333D01*
X171139524Y-62120953D01*
X171234762Y-62216191D01*
X171282381Y-62359048D01*
X171282381Y-62454286D01*
X170377619Y-61644762D02*
X170330000Y-61597143D01*
X170282381Y-61501905D01*
X170282381Y-61263809D01*
X170330000Y-61168571D01*
X170377619Y-61120952D01*
X170472857Y-61073333D01*
X170568095Y-61073333D01*
X170710952Y-61120952D01*
X171282381Y-61692381D01*
X171282381Y-61073333D01*
X121292381Y-126063333D02*
X122006667Y-126063333D01*
X122149524Y-126110953D01*
X122244762Y-126206191D01*
X122292381Y-126349048D01*
X122292381Y-126444286D01*
X121292381Y-125682381D02*
X121292381Y-125063333D01*
X121673333Y-125396667D01*
X121673333Y-125253809D01*
X121720952Y-125158571D01*
X121768571Y-125110952D01*
X121863810Y-125063333D01*
X122101905Y-125063333D01*
X122197143Y-125110952D01*
X122244762Y-125158571D01*
X122292381Y-125253809D01*
X122292381Y-125539524D01*
X122244762Y-125634762D01*
X122197143Y-125682381D01*
X177926667Y-69912381D02*
X177926667Y-70626667D01*
X177879047Y-70769524D01*
X177783809Y-70864762D01*
X177640952Y-70912381D01*
X177545714Y-70912381D01*
X178831429Y-70245714D02*
X178831429Y-70912381D01*
X178593333Y-69864762D02*
X178355238Y-70579048D01*
X178974286Y-70579048D01*
M02*
