G04 #@! TF.FileFunction,Copper,L2,Bot,Signal*
%FSLAX46Y46*%
G04 Gerber Fmt 4.6, Leading zero omitted, Abs format (unit mm)*
G04 Created by KiCad (PCBNEW 4.0.5+dfsg1-4) date Sat Sep 30 20:54:29 2017*
%MOMM*%
%LPD*%
G01*
G04 APERTURE LIST*
%ADD10C,0.100000*%
%ADD11O,0.700000X1.740000*%
%ADD12O,1.740000X0.700000*%
%ADD13R,1.700000X1.700000*%
%ADD14O,1.700000X1.700000*%
%ADD15C,0.600000*%
%ADD16C,0.250000*%
G04 APERTURE END LIST*
D10*
D11*
X146127501Y-105325000D03*
X144752501Y-105325000D03*
D12*
X129735001Y-85762500D03*
X129735001Y-87137500D03*
X129735001Y-88512500D03*
X129735001Y-89887500D03*
X129735001Y-91262500D03*
X129735001Y-92637500D03*
X129735001Y-94012500D03*
X129735001Y-95387500D03*
X129735001Y-96762500D03*
X129735001Y-98137500D03*
X129735001Y-99512500D03*
X129735001Y-100887500D03*
X162895001Y-86762500D03*
X162895001Y-88137500D03*
X162895001Y-89512500D03*
X162895001Y-90887500D03*
X162895001Y-92262500D03*
X162895001Y-93637500D03*
X162895001Y-95012500D03*
X162895001Y-96387500D03*
X162895001Y-97762500D03*
X162895001Y-99137500D03*
X162895001Y-100512500D03*
X162895001Y-101887500D03*
X160355001Y-86262500D03*
X160355001Y-87637500D03*
X160355001Y-89012500D03*
X160355001Y-90387500D03*
X160355001Y-91762500D03*
X160355001Y-93137500D03*
X160355001Y-94512500D03*
X160355001Y-95887500D03*
X160355001Y-97262500D03*
X160355001Y-98637500D03*
X160355001Y-100012500D03*
X160355001Y-101387500D03*
X132275001Y-86262500D03*
X132275001Y-87637500D03*
X132275001Y-89012500D03*
X132275001Y-90387500D03*
X132275001Y-91762500D03*
X132275001Y-93137500D03*
X132275001Y-94512500D03*
X132275001Y-95887500D03*
X132275001Y-97262500D03*
X132275001Y-98637500D03*
X132275001Y-100012500D03*
X132275001Y-101387500D03*
X157815001Y-85762500D03*
X157815001Y-87137500D03*
X157815001Y-88512500D03*
X157815001Y-89887500D03*
X157815001Y-91262500D03*
X157815001Y-92637500D03*
X157815001Y-94012500D03*
X157815001Y-95387500D03*
X157815001Y-96762500D03*
X157815001Y-98137500D03*
X157815001Y-99512500D03*
X134815001Y-86762500D03*
X134815001Y-88137500D03*
X134815001Y-89512500D03*
X134815001Y-90887500D03*
X134815001Y-92262500D03*
X134815001Y-93637500D03*
X134815001Y-95012500D03*
X134815001Y-96387500D03*
X134815001Y-97762500D03*
X134815001Y-99137500D03*
X134815001Y-100512500D03*
X157815001Y-100887500D03*
X134815001Y-101887500D03*
D11*
X139252501Y-77245000D03*
X139252501Y-105325000D03*
X140627501Y-77245000D03*
X142002501Y-77245000D03*
X143377501Y-77245000D03*
X144752501Y-77245000D03*
X146127501Y-77245000D03*
X147502501Y-77245000D03*
X148877501Y-77245000D03*
X150252501Y-77245000D03*
X151627501Y-77245000D03*
X153002501Y-77245000D03*
X154377501Y-77245000D03*
X140627501Y-105325000D03*
X142002501Y-105325000D03*
X143377501Y-105325000D03*
X147502501Y-105325000D03*
X148877501Y-105325000D03*
X150252501Y-105325000D03*
X151627501Y-105325000D03*
X153002501Y-105325000D03*
X154377501Y-105325000D03*
X138752501Y-79785000D03*
X140127501Y-79785000D03*
X141502501Y-79785000D03*
X142877501Y-79785000D03*
X144252501Y-79785000D03*
X145627501Y-79785000D03*
X147002501Y-79785000D03*
X148377501Y-79785000D03*
X149752501Y-79785000D03*
X151127501Y-79785000D03*
X152502501Y-79785000D03*
X153877501Y-79785000D03*
X138752501Y-107865000D03*
X140127501Y-107865000D03*
X141502501Y-107865000D03*
X142877501Y-107865000D03*
X144252501Y-107865000D03*
X145627501Y-107865000D03*
X147002501Y-107865000D03*
X148377501Y-107865000D03*
X149752501Y-107865000D03*
X151127501Y-107865000D03*
X152502501Y-107865000D03*
X153877501Y-107865000D03*
X138252501Y-110405000D03*
X139627501Y-110405000D03*
X141002501Y-110405000D03*
X142377501Y-110405000D03*
X143752501Y-110405000D03*
X145127501Y-110405000D03*
X146502501Y-110405000D03*
X147877501Y-110405000D03*
X149252501Y-110405000D03*
X150627501Y-110405000D03*
X152002501Y-110405000D03*
X153377501Y-110405000D03*
X138252501Y-82325000D03*
X139627501Y-82325000D03*
X141002501Y-82325000D03*
X142377501Y-82325000D03*
X143752501Y-82325000D03*
X145127501Y-82325000D03*
X146502501Y-82325000D03*
X147877501Y-82325000D03*
X149252501Y-82325000D03*
X150627501Y-82325000D03*
X152002501Y-82325000D03*
X153377501Y-82325000D03*
D13*
X115570000Y-71660000D03*
D14*
X113030000Y-71660000D03*
X115570000Y-74200000D03*
X113030000Y-74200000D03*
X115570000Y-76740000D03*
X113030000Y-76740000D03*
X115570000Y-79280000D03*
X113030000Y-79280000D03*
X115570000Y-81820000D03*
X113030000Y-81820000D03*
X115570000Y-84360000D03*
X113030000Y-84360000D03*
X115570000Y-86900000D03*
X113030000Y-86900000D03*
X115570000Y-89440000D03*
X113030000Y-89440000D03*
X115570000Y-91980000D03*
X113030000Y-91980000D03*
X115570000Y-94520000D03*
X113030000Y-94520000D03*
X115570000Y-97060000D03*
X113030000Y-97060000D03*
X115570000Y-99600000D03*
X113030000Y-99600000D03*
X115570000Y-102140000D03*
X113030000Y-102140000D03*
X115570000Y-104680000D03*
X113030000Y-104680000D03*
X115570000Y-107220000D03*
X113030000Y-107220000D03*
X115570000Y-109760000D03*
X113030000Y-109760000D03*
X115570000Y-112300000D03*
X113030000Y-112300000D03*
X115570000Y-114840000D03*
X113030000Y-114840000D03*
D13*
X168500000Y-63010000D03*
D14*
X168500000Y-60470000D03*
X165960000Y-63010000D03*
X165960000Y-60470000D03*
X163420000Y-63010000D03*
X163420000Y-60470000D03*
X160880000Y-63010000D03*
X160880000Y-60470000D03*
X158340000Y-63010000D03*
X158340000Y-60470000D03*
X155800000Y-63010000D03*
X155800000Y-60470000D03*
X153260000Y-63010000D03*
X153260000Y-60470000D03*
X150720000Y-63010000D03*
X150720000Y-60470000D03*
X148180000Y-63010000D03*
X148180000Y-60470000D03*
X145640000Y-63010000D03*
X145640000Y-60470000D03*
X143100000Y-63010000D03*
X143100000Y-60470000D03*
X140560000Y-63010000D03*
X140560000Y-60470000D03*
X138020000Y-63010000D03*
X138020000Y-60470000D03*
X135480000Y-63010000D03*
X135480000Y-60470000D03*
X132940000Y-63010000D03*
X132940000Y-60470000D03*
X130400000Y-63010000D03*
X130400000Y-60470000D03*
X127860000Y-63010000D03*
X127860000Y-60470000D03*
X125320000Y-63010000D03*
X125320000Y-60470000D03*
D13*
X124170000Y-124460000D03*
D14*
X124170000Y-127000000D03*
X126710000Y-124460000D03*
X126710000Y-127000000D03*
X129250000Y-124460000D03*
X129250000Y-127000000D03*
X131790000Y-124460000D03*
X131790000Y-127000000D03*
X134330000Y-124460000D03*
X134330000Y-127000000D03*
X136870000Y-124460000D03*
X136870000Y-127000000D03*
X139410000Y-124460000D03*
X139410000Y-127000000D03*
X141950000Y-124460000D03*
X141950000Y-127000000D03*
X144490000Y-124460000D03*
X144490000Y-127000000D03*
X147030000Y-124460000D03*
X147030000Y-127000000D03*
X149570000Y-124460000D03*
X149570000Y-127000000D03*
X152110000Y-124460000D03*
X152110000Y-127000000D03*
X154650000Y-124460000D03*
X154650000Y-127000000D03*
X157190000Y-124460000D03*
X157190000Y-127000000D03*
X159730000Y-124460000D03*
X159730000Y-127000000D03*
X162270000Y-124460000D03*
X162270000Y-127000000D03*
X164810000Y-124460000D03*
X164810000Y-127000000D03*
X167350000Y-124460000D03*
X167350000Y-127000000D03*
D13*
X179530000Y-72790000D03*
D14*
X176990000Y-72790000D03*
X179530000Y-75330000D03*
X176990000Y-75330000D03*
X179530000Y-77870000D03*
X176990000Y-77870000D03*
X179530000Y-80410000D03*
X176990000Y-80410000D03*
X179530000Y-82950000D03*
X176990000Y-82950000D03*
X179530000Y-85490000D03*
X176990000Y-85490000D03*
X179530000Y-88030000D03*
X176990000Y-88030000D03*
X179530000Y-90570000D03*
X176990000Y-90570000D03*
X179530000Y-93110000D03*
X176990000Y-93110000D03*
X179530000Y-95650000D03*
X176990000Y-95650000D03*
X179530000Y-98190000D03*
X176990000Y-98190000D03*
X179530000Y-100730000D03*
X176990000Y-100730000D03*
X179530000Y-103270000D03*
X176990000Y-103270000D03*
X179530000Y-105810000D03*
X176990000Y-105810000D03*
X179530000Y-108350000D03*
X176990000Y-108350000D03*
X179530000Y-110890000D03*
X176990000Y-110890000D03*
X179530000Y-113430000D03*
X176990000Y-113430000D03*
X179530000Y-115970000D03*
X176990000Y-115970000D03*
D15*
X118610000Y-74400000D03*
X121200000Y-72140000D03*
X137530000Y-87470000D03*
X118750000Y-78250000D03*
X118750000Y-81750000D03*
X137540000Y-88800000D03*
X118750000Y-85500000D03*
X137510000Y-90180000D03*
X118750000Y-91480000D03*
X137580000Y-91420000D03*
X137570000Y-92930000D03*
X118860000Y-94160000D03*
X137610000Y-94330000D03*
X118860000Y-97060000D03*
X118910000Y-100810000D03*
X137570000Y-95700000D03*
X137530000Y-97220000D03*
X118860000Y-104440000D03*
X119140000Y-107070000D03*
X137510000Y-98470000D03*
X119300000Y-111090000D03*
X137480000Y-99820000D03*
X165735104Y-66078200D03*
X167995104Y-68668200D03*
X152665104Y-84998200D03*
X161885104Y-66218200D03*
X158385104Y-66218200D03*
X151335104Y-85008200D03*
X154635104Y-66218200D03*
X149955104Y-84978200D03*
X148655104Y-66218200D03*
X148715104Y-85048200D03*
X145975104Y-66328200D03*
X147205104Y-85038200D03*
X145805104Y-85078200D03*
X143075104Y-66328200D03*
X139325104Y-66378200D03*
X144435104Y-85038200D03*
X142915104Y-84998200D03*
X135695104Y-66328200D03*
X133065104Y-66608200D03*
X141665104Y-84978200D03*
X129045104Y-66768200D03*
X140315104Y-84948200D03*
X124634657Y-118910719D03*
X126894657Y-121500719D03*
X139964657Y-102580719D03*
X130744657Y-121360719D03*
X141294657Y-102570719D03*
X134244657Y-121360719D03*
X142674657Y-102600719D03*
X137994657Y-121360719D03*
X143914657Y-102530719D03*
X143974657Y-121360719D03*
X145424657Y-102540719D03*
X146654657Y-121250719D03*
X146824657Y-102500719D03*
X149554657Y-121250719D03*
X148194657Y-102540719D03*
X153304657Y-121200719D03*
X149714657Y-102580719D03*
X156934657Y-121250719D03*
X150964657Y-102600719D03*
X159564657Y-120970719D03*
X152314657Y-102630719D03*
X163584657Y-120810719D03*
X155085000Y-87825000D03*
X173265000Y-76555000D03*
X155055000Y-89175000D03*
X173425000Y-80575000D03*
X173705000Y-83205000D03*
X155035000Y-90425000D03*
X154995000Y-91945000D03*
X173655000Y-86835000D03*
X173705000Y-90585000D03*
X154955000Y-93315000D03*
X154995000Y-94715000D03*
X173705000Y-93485000D03*
X154985000Y-96225000D03*
X173815000Y-96165000D03*
X155055000Y-97465000D03*
X173815000Y-102145000D03*
X155025000Y-98845000D03*
X173815000Y-105895000D03*
X173815000Y-109395000D03*
X155035000Y-100175000D03*
X171365000Y-115505000D03*
X173955000Y-113245000D03*
D16*
X118940000Y-74400000D02*
X118610000Y-74400000D01*
X121200000Y-72140000D02*
X118940000Y-74400000D01*
X137510000Y-87450000D02*
X137530000Y-87470000D01*
X133670000Y-87450000D02*
X137510000Y-87450000D01*
X133160000Y-86940000D02*
X133670000Y-87450000D01*
X131050000Y-86940000D02*
X133160000Y-86940000D01*
X130560000Y-86450000D02*
X131050000Y-86940000D01*
X126990000Y-86450000D02*
X130560000Y-86450000D01*
X118750000Y-78250000D02*
X126990000Y-86450000D01*
X137540000Y-88800000D02*
X137510000Y-88830000D01*
X137510000Y-88830000D02*
X133920000Y-88830000D01*
X133920000Y-88830000D02*
X133410000Y-88320000D01*
X133410000Y-88320000D02*
X131360000Y-88320000D01*
X131360000Y-88320000D02*
X130870000Y-87830000D01*
X130870000Y-87830000D02*
X125050000Y-87830000D01*
X125050000Y-87830000D02*
X118750000Y-81750000D01*
X122030000Y-89190000D02*
X118750000Y-85500000D01*
X130820000Y-89190000D02*
X122030000Y-89190000D01*
X131330000Y-89700000D02*
X130820000Y-89190000D01*
X133390000Y-89700000D02*
X131330000Y-89700000D01*
X133890000Y-90200000D02*
X133390000Y-89700000D01*
X137460000Y-90230000D02*
X133890000Y-90200000D01*
X137510000Y-90180000D02*
X137460000Y-90230000D01*
X119660000Y-91530000D02*
X118750000Y-91480000D01*
X120620000Y-90570000D02*
X119660000Y-91530000D01*
X130840000Y-90570000D02*
X120620000Y-90570000D01*
X131340000Y-91070000D02*
X130840000Y-90570000D01*
X133420000Y-91070000D02*
X131340000Y-91070000D01*
X133920000Y-91570000D02*
X133420000Y-91070000D01*
X137430000Y-91570000D02*
X133920000Y-91570000D01*
X137580000Y-91420000D02*
X137430000Y-91570000D01*
X137550000Y-92950000D02*
X137570000Y-92930000D01*
X133700000Y-92950000D02*
X137550000Y-92950000D01*
X133200000Y-92450000D02*
X133700000Y-92950000D01*
X131130000Y-92450000D02*
X133200000Y-92450000D01*
X130630000Y-91950000D02*
X131130000Y-92450000D01*
X120850000Y-91950000D02*
X130630000Y-91950000D01*
X118860000Y-94160000D02*
X120850000Y-91950000D01*
X137590000Y-94310000D02*
X137610000Y-94330000D01*
X133630000Y-94320000D02*
X137590000Y-94310000D01*
X133140000Y-93830000D02*
X133630000Y-94320000D01*
X131120000Y-93830000D02*
X133140000Y-93830000D01*
X130620000Y-93330000D02*
X131120000Y-93830000D01*
X122370000Y-93330000D02*
X130620000Y-93330000D01*
X118860000Y-97060000D02*
X122370000Y-93330000D01*
X118910000Y-100810000D02*
X124800000Y-94700000D01*
X124800000Y-94700000D02*
X130620000Y-94700000D01*
X130620000Y-94700000D02*
X131110000Y-95190000D01*
X131110000Y-95190000D02*
X133140000Y-95190000D01*
X133140000Y-95190000D02*
X133650000Y-95700000D01*
X133650000Y-95700000D02*
X137570000Y-95700000D01*
X137380000Y-97070000D02*
X137530000Y-97220000D01*
X133700000Y-97070000D02*
X137380000Y-97070000D01*
X133200000Y-96570000D02*
X133700000Y-97070000D01*
X131140000Y-96570000D02*
X133200000Y-96570000D01*
X130640000Y-96070000D02*
X131140000Y-96570000D01*
X127140000Y-96070000D02*
X130640000Y-96070000D01*
X118860000Y-104440000D02*
X127140000Y-96070000D01*
X119140000Y-107070000D02*
X128930000Y-97440000D01*
X128930000Y-97440000D02*
X130610000Y-97440000D01*
X130610000Y-97440000D02*
X131110000Y-97940000D01*
X131110000Y-97940000D02*
X133200000Y-97940000D01*
X133200000Y-97940000D02*
X133700000Y-98440000D01*
X133700000Y-98440000D02*
X137480000Y-98440000D01*
X137480000Y-98440000D02*
X137510000Y-98470000D01*
X119300000Y-111090000D02*
X123990000Y-106350000D01*
X123990000Y-106350000D02*
X123990000Y-103360000D01*
X133660000Y-99820000D02*
X137480000Y-99820000D01*
X133160000Y-99320000D02*
X133660000Y-99820000D01*
X131130000Y-99320000D02*
X133160000Y-99320000D01*
X130630000Y-98820000D02*
X131130000Y-99320000D01*
X128530000Y-98820000D02*
X130630000Y-98820000D01*
X123990000Y-103360000D02*
X128530000Y-98820000D01*
X165735104Y-66408200D02*
X165735104Y-66078200D01*
X167995104Y-68668200D02*
X165735104Y-66408200D01*
X152685104Y-84978200D02*
X152665104Y-84998200D01*
X152685104Y-81138200D02*
X152685104Y-84978200D01*
X153195104Y-80628200D02*
X152685104Y-81138200D01*
X153195104Y-78538200D02*
X153195104Y-80628200D01*
X153685104Y-78048200D02*
X153195104Y-78538200D01*
X153685104Y-74458200D02*
X153685104Y-78048200D01*
X161885104Y-66218200D02*
X153685104Y-74458200D01*
X151335104Y-85008200D02*
X151305104Y-84978200D01*
X151305104Y-84978200D02*
X151305104Y-81388200D01*
X151305104Y-81388200D02*
X151815104Y-80878200D01*
X151815104Y-80878200D02*
X151815104Y-78828200D01*
X151815104Y-78828200D02*
X152305104Y-78338200D01*
X152305104Y-78338200D02*
X152305104Y-72518200D01*
X152305104Y-72518200D02*
X158385104Y-66218200D01*
X150945104Y-69498200D02*
X154635104Y-66218200D01*
X150945104Y-78288200D02*
X150945104Y-69498200D01*
X150435104Y-78798200D02*
X150945104Y-78288200D01*
X150435104Y-80858200D02*
X150435104Y-78798200D01*
X149935104Y-81358200D02*
X150435104Y-80858200D01*
X149905104Y-84928200D02*
X149935104Y-81358200D01*
X149955104Y-84978200D02*
X149905104Y-84928200D01*
X148605104Y-67128200D02*
X148655104Y-66218200D01*
X149565104Y-68088200D02*
X148605104Y-67128200D01*
X149565104Y-78308200D02*
X149565104Y-68088200D01*
X149065104Y-78808200D02*
X149565104Y-78308200D01*
X149065104Y-80888200D02*
X149065104Y-78808200D01*
X148565104Y-81388200D02*
X149065104Y-80888200D01*
X148565104Y-84898200D02*
X148565104Y-81388200D01*
X148715104Y-85048200D02*
X148565104Y-84898200D01*
X147185104Y-85018200D02*
X147205104Y-85038200D01*
X147185104Y-81168200D02*
X147185104Y-85018200D01*
X147685104Y-80668200D02*
X147185104Y-81168200D01*
X147685104Y-78598200D02*
X147685104Y-80668200D01*
X148185104Y-78098200D02*
X147685104Y-78598200D01*
X148185104Y-68318200D02*
X148185104Y-78098200D01*
X145975104Y-66328200D02*
X148185104Y-68318200D01*
X145825104Y-85058200D02*
X145805104Y-85078200D01*
X145815104Y-81098200D02*
X145825104Y-85058200D01*
X146305104Y-80608200D02*
X145815104Y-81098200D01*
X146305104Y-78588200D02*
X146305104Y-80608200D01*
X146805104Y-78088200D02*
X146305104Y-78588200D01*
X146805104Y-69838200D02*
X146805104Y-78088200D01*
X143075104Y-66328200D02*
X146805104Y-69838200D01*
X139325104Y-66378200D02*
X145435104Y-72268200D01*
X145435104Y-72268200D02*
X145435104Y-78088200D01*
X145435104Y-78088200D02*
X144945104Y-78578200D01*
X144945104Y-78578200D02*
X144945104Y-80608200D01*
X144945104Y-80608200D02*
X144435104Y-81118200D01*
X144435104Y-81118200D02*
X144435104Y-85038200D01*
X143065104Y-84848200D02*
X142915104Y-84998200D01*
X143065104Y-81168200D02*
X143065104Y-84848200D01*
X143565104Y-80668200D02*
X143065104Y-81168200D01*
X143565104Y-78608200D02*
X143565104Y-80668200D01*
X144065104Y-78108200D02*
X143565104Y-78608200D01*
X144065104Y-74608200D02*
X144065104Y-78108200D01*
X135695104Y-66328200D02*
X144065104Y-74608200D01*
X133065104Y-66608200D02*
X142690104Y-76343200D01*
X142690104Y-76343200D02*
X142695104Y-78078200D01*
X142695104Y-78078200D02*
X142195104Y-78578200D01*
X142195104Y-78578200D02*
X142195104Y-80668200D01*
X142195104Y-80668200D02*
X141695104Y-81168200D01*
X141695104Y-81168200D02*
X141695104Y-84948200D01*
X141695104Y-84948200D02*
X141665104Y-84978200D01*
X129045104Y-66768200D02*
X133785104Y-71458200D01*
X133785104Y-71458200D02*
X136775104Y-71458200D01*
X140315104Y-81128200D02*
X140315104Y-84948200D01*
X140815104Y-80628200D02*
X140315104Y-81128200D01*
X140815104Y-78598200D02*
X140815104Y-80628200D01*
X141315104Y-78098200D02*
X140815104Y-78598200D01*
X141315104Y-75998200D02*
X141315104Y-78098200D01*
X136775104Y-71458200D02*
X141315104Y-75998200D01*
X124634657Y-118910719D02*
X126894657Y-121170719D01*
X126894657Y-121170719D02*
X126894657Y-121500719D01*
X139434657Y-106950719D02*
X139944657Y-106440719D01*
X139944657Y-106440719D02*
X139944657Y-102600719D01*
X139944657Y-102600719D02*
X139964657Y-102580719D01*
X139434657Y-109060719D02*
X139434657Y-106950719D01*
X138944657Y-109550719D02*
X139434657Y-109060719D01*
X138944657Y-113120719D02*
X138944657Y-109550719D01*
X130744657Y-121360719D02*
X138944657Y-113120719D01*
X141324657Y-106190719D02*
X140814657Y-106700719D01*
X140324657Y-109240719D02*
X140324657Y-115060719D01*
X140814657Y-108750719D02*
X140324657Y-109240719D01*
X141294657Y-102570719D02*
X141324657Y-102600719D01*
X141324657Y-102600719D02*
X141324657Y-106190719D01*
X140814657Y-106700719D02*
X140814657Y-108750719D01*
X140324657Y-115060719D02*
X134244657Y-121360719D01*
X141684657Y-109290719D02*
X141684657Y-118080719D01*
X142194657Y-106720719D02*
X142194657Y-108780719D01*
X142724657Y-102650719D02*
X142694657Y-106220719D01*
X142194657Y-108780719D02*
X141684657Y-109290719D01*
X142694657Y-106220719D02*
X142194657Y-106720719D01*
X142674657Y-102600719D02*
X142724657Y-102650719D01*
X141684657Y-118080719D02*
X137994657Y-121360719D01*
X143914657Y-102530719D02*
X144064657Y-102680719D01*
X144024657Y-120450719D02*
X143974657Y-121360719D01*
X143564657Y-106690719D02*
X143564657Y-108770719D01*
X144064657Y-102680719D02*
X144064657Y-106190719D01*
X143064657Y-119490719D02*
X144024657Y-120450719D01*
X143064657Y-109270719D02*
X143064657Y-119490719D01*
X143564657Y-108770719D02*
X143064657Y-109270719D01*
X144064657Y-106190719D02*
X143564657Y-106690719D01*
X146654657Y-121250719D02*
X144444657Y-119260719D01*
X144944657Y-108980719D02*
X144944657Y-106910719D01*
X144944657Y-106910719D02*
X145444657Y-106410719D01*
X145444657Y-106410719D02*
X145444657Y-102560719D01*
X144444657Y-119260719D02*
X144444657Y-109480719D01*
X144444657Y-109480719D02*
X144944657Y-108980719D01*
X145444657Y-102560719D02*
X145424657Y-102540719D01*
X146324657Y-108990719D02*
X146324657Y-106970719D01*
X146814657Y-106480719D02*
X146804657Y-102520719D01*
X146804657Y-102520719D02*
X146824657Y-102500719D01*
X146324657Y-106970719D02*
X146814657Y-106480719D01*
X149554657Y-121250719D02*
X145824657Y-117740719D01*
X145824657Y-117740719D02*
X145824657Y-109490719D01*
X145824657Y-109490719D02*
X146324657Y-108990719D01*
X153304657Y-121200719D02*
X147194657Y-115310719D01*
X147684657Y-109000719D02*
X147684657Y-106970719D01*
X147194657Y-109490719D02*
X147684657Y-109000719D01*
X148194657Y-106460719D02*
X148194657Y-102540719D01*
X147684657Y-106970719D02*
X148194657Y-106460719D01*
X147194657Y-115310719D02*
X147194657Y-109490719D01*
X149564657Y-102730719D02*
X149714657Y-102580719D01*
X156934657Y-121250719D02*
X148564657Y-112970719D01*
X148564657Y-109470719D02*
X149064657Y-108970719D01*
X149064657Y-106910719D02*
X149564657Y-106410719D01*
X149564657Y-106410719D02*
X149564657Y-102730719D01*
X148564657Y-112970719D02*
X148564657Y-109470719D01*
X149064657Y-108970719D02*
X149064657Y-106910719D01*
X159564657Y-120970719D02*
X149940000Y-111260000D01*
X150434657Y-109000719D02*
X150434657Y-106910719D01*
X149934657Y-109500719D02*
X150434657Y-109000719D01*
X149940000Y-111260000D02*
X149934657Y-109500719D01*
X150934657Y-106410719D02*
X150934657Y-102630719D01*
X150934657Y-102630719D02*
X150964657Y-102600719D01*
X150434657Y-106910719D02*
X150934657Y-106410719D01*
X163584657Y-120810719D02*
X158844657Y-116120719D01*
X158844657Y-116120719D02*
X155854657Y-116120719D01*
X155854657Y-116120719D02*
X151314657Y-111580719D01*
X151314657Y-109480719D02*
X151814657Y-108980719D01*
X151814657Y-108980719D02*
X151814657Y-106950719D01*
X151314657Y-111580719D02*
X151314657Y-109480719D01*
X151814657Y-106950719D02*
X152314657Y-106450719D01*
X152314657Y-106450719D02*
X152314657Y-102630719D01*
X168575000Y-84285000D02*
X164035000Y-88825000D01*
X164035000Y-88825000D02*
X161935000Y-88825000D01*
X161935000Y-88825000D02*
X161435000Y-88325000D01*
X161435000Y-88325000D02*
X159405000Y-88325000D01*
X159405000Y-88325000D02*
X158905000Y-87825000D01*
X158905000Y-87825000D02*
X155085000Y-87825000D01*
X168575000Y-81295000D02*
X168575000Y-84285000D01*
X173265000Y-76555000D02*
X168575000Y-81295000D01*
X155085000Y-89205000D02*
X155055000Y-89175000D01*
X158865000Y-89205000D02*
X155085000Y-89205000D01*
X159365000Y-89705000D02*
X158865000Y-89205000D01*
X161455000Y-89705000D02*
X159365000Y-89705000D01*
X161955000Y-90205000D02*
X161455000Y-89705000D01*
X163690000Y-90200000D02*
X161955000Y-90205000D01*
X173425000Y-80575000D02*
X163690000Y-90200000D01*
X173705000Y-83205000D02*
X165425000Y-91575000D01*
X165425000Y-91575000D02*
X161925000Y-91575000D01*
X161925000Y-91575000D02*
X161425000Y-91075000D01*
X161425000Y-91075000D02*
X159365000Y-91075000D01*
X159365000Y-91075000D02*
X158865000Y-90575000D01*
X158865000Y-90575000D02*
X155185000Y-90575000D01*
X155185000Y-90575000D02*
X155035000Y-90425000D01*
X158915000Y-91945000D02*
X154995000Y-91945000D01*
X159425000Y-92455000D02*
X158915000Y-91945000D01*
X161455000Y-92455000D02*
X159425000Y-92455000D01*
X161945000Y-92945000D02*
X161455000Y-92455000D01*
X167765000Y-92945000D02*
X161945000Y-92945000D01*
X173655000Y-86835000D02*
X167765000Y-92945000D01*
X173705000Y-90585000D02*
X170195000Y-94315000D01*
X170195000Y-94315000D02*
X161945000Y-94315000D01*
X161945000Y-94315000D02*
X161445000Y-93815000D01*
X161445000Y-93815000D02*
X159425000Y-93815000D01*
X159425000Y-93815000D02*
X158935000Y-93325000D01*
X158935000Y-93325000D02*
X154975000Y-93335000D01*
X154975000Y-93335000D02*
X154955000Y-93315000D01*
X173705000Y-93485000D02*
X171715000Y-95695000D01*
X171715000Y-95695000D02*
X161935000Y-95695000D01*
X161935000Y-95695000D02*
X161435000Y-95195000D01*
X161435000Y-95195000D02*
X159365000Y-95195000D01*
X159365000Y-95195000D02*
X158865000Y-94695000D01*
X158865000Y-94695000D02*
X155015000Y-94695000D01*
X155015000Y-94695000D02*
X154995000Y-94715000D01*
X154985000Y-96225000D02*
X155135000Y-96075000D01*
X155135000Y-96075000D02*
X158645000Y-96075000D01*
X158645000Y-96075000D02*
X159145000Y-96575000D01*
X159145000Y-96575000D02*
X161225000Y-96575000D01*
X161225000Y-96575000D02*
X161725000Y-97075000D01*
X161725000Y-97075000D02*
X171945000Y-97075000D01*
X171945000Y-97075000D02*
X172905000Y-96115000D01*
X172905000Y-96115000D02*
X173815000Y-96165000D01*
X155055000Y-97465000D02*
X155105000Y-97415000D01*
X155105000Y-97415000D02*
X158675000Y-97445000D01*
X158675000Y-97445000D02*
X159175000Y-97945000D01*
X159175000Y-97945000D02*
X161235000Y-97945000D01*
X161235000Y-97945000D02*
X161745000Y-98455000D01*
X161745000Y-98455000D02*
X170535000Y-98455000D01*
X170535000Y-98455000D02*
X173815000Y-102145000D01*
X167515000Y-99815000D02*
X173815000Y-105895000D01*
X161695000Y-99815000D02*
X167515000Y-99815000D01*
X161205000Y-99325000D02*
X161695000Y-99815000D01*
X159155000Y-99325000D02*
X161205000Y-99325000D01*
X158645000Y-98815000D02*
X159155000Y-99325000D01*
X155055000Y-98815000D02*
X158645000Y-98815000D01*
X155025000Y-98845000D02*
X155055000Y-98815000D01*
X173815000Y-109395000D02*
X165575000Y-101195000D01*
X165575000Y-101195000D02*
X162005000Y-101195000D01*
X162005000Y-101195000D02*
X161515000Y-100705000D01*
X161515000Y-100705000D02*
X159405000Y-100705000D01*
X159405000Y-100705000D02*
X158895000Y-100195000D01*
X158895000Y-100195000D02*
X155055000Y-100195000D01*
X155055000Y-100195000D02*
X155035000Y-100175000D01*
X171365000Y-115505000D02*
X173625000Y-113245000D01*
X173625000Y-113245000D02*
X173955000Y-113245000D01*
M02*
