%TF.GenerationSoftware,KiCad,Pcbnew,4.0.7*%
%TF.CreationDate,2017-11-17T13:18:43+08:00*%
%TF.ProjectId,ic51,696335312E6B696361645F7063620000,rev?*%
%TF.FileFunction,Copper,L2,Bot,Signal*%
%FSLAX46Y46*%
G04 Gerber Fmt 4.6, Leading zero omitted, Abs format (unit mm)*
G04 Created by KiCad (PCBNEW 4.0.7) date 11/17/17 13:18:43*
%MOMM*%
%LPD*%
G01*
G04 APERTURE LIST*
%ADD10C,0.100000*%
%ADD11O,0.700000X1.740000*%
%ADD12O,1.740000X0.700000*%
%ADD13R,1.700000X1.700000*%
%ADD14O,1.700000X1.700000*%
%ADD15C,1.524000*%
%ADD16C,0.250000*%
%ADD17C,0.254000*%
G04 APERTURE END LIST*
D10*
D11*
X37127501Y-48825000D03*
X35752501Y-48825000D03*
D12*
X20735001Y-29262500D03*
X20735001Y-30637500D03*
X20735001Y-32012500D03*
X20735001Y-33387500D03*
X20735001Y-34762500D03*
X20735001Y-36137500D03*
X20735001Y-37512500D03*
X20735001Y-38887500D03*
X20735001Y-40262500D03*
X20735001Y-41637500D03*
X20735001Y-43012500D03*
X20735001Y-44387500D03*
X53895001Y-30262500D03*
X53895001Y-31637500D03*
X53895001Y-33012500D03*
X53895001Y-34387500D03*
X53895001Y-35762500D03*
X53895001Y-37137500D03*
X53895001Y-38512500D03*
X53895001Y-39887500D03*
X53895001Y-41262500D03*
X53895001Y-42637500D03*
X53895001Y-44012500D03*
X53895001Y-45387500D03*
X51355001Y-29762500D03*
X51355001Y-31137500D03*
X51355001Y-32512500D03*
X51355001Y-33887500D03*
X51355001Y-35262500D03*
X51355001Y-36637500D03*
X51355001Y-38012500D03*
X51355001Y-39387500D03*
X51355001Y-40762500D03*
X51355001Y-42137500D03*
X51355001Y-43512500D03*
X51355001Y-44887500D03*
X23275001Y-29762500D03*
X23275001Y-31137500D03*
X23275001Y-32512500D03*
X23275001Y-33887500D03*
X23275001Y-35262500D03*
X23275001Y-36637500D03*
X23275001Y-38012500D03*
X23275001Y-39387500D03*
X23275001Y-40762500D03*
X23275001Y-42137500D03*
X23275001Y-43512500D03*
X23275001Y-44887500D03*
X48815001Y-29262500D03*
X48815001Y-30637500D03*
X48815001Y-32012500D03*
X48815001Y-33387500D03*
X48815001Y-34762500D03*
X48815001Y-36137500D03*
X48815001Y-37512500D03*
X48815001Y-38887500D03*
X48815001Y-40262500D03*
X48815001Y-41637500D03*
X48815001Y-43012500D03*
X25815001Y-30262500D03*
X25815001Y-31637500D03*
X25815001Y-33012500D03*
X25815001Y-34387500D03*
X25815001Y-35762500D03*
X25815001Y-37137500D03*
X25815001Y-38512500D03*
X25815001Y-39887500D03*
X25815001Y-41262500D03*
X25815001Y-42637500D03*
X25815001Y-44012500D03*
X48815001Y-44387500D03*
X25815001Y-45387500D03*
D11*
X30252501Y-20745000D03*
X30252501Y-48825000D03*
X31627501Y-20745000D03*
X33002501Y-20745000D03*
X34377501Y-20745000D03*
X35752501Y-20745000D03*
X37127501Y-20745000D03*
X38502501Y-20745000D03*
X39877501Y-20745000D03*
X41252501Y-20745000D03*
X42627501Y-20745000D03*
X44002501Y-20745000D03*
X45377501Y-20745000D03*
X31627501Y-48825000D03*
X33002501Y-48825000D03*
X34377501Y-48825000D03*
X38502501Y-48825000D03*
X39877501Y-48825000D03*
X41252501Y-48825000D03*
X42627501Y-48825000D03*
X44002501Y-48825000D03*
X45377501Y-48825000D03*
X29752501Y-23285000D03*
X31127501Y-23285000D03*
X32502501Y-23285000D03*
X33877501Y-23285000D03*
X35252501Y-23285000D03*
X36627501Y-23285000D03*
X38002501Y-23285000D03*
X39377501Y-23285000D03*
X40752501Y-23285000D03*
X42127501Y-23285000D03*
X43502501Y-23285000D03*
X44877501Y-23285000D03*
X29752501Y-51365000D03*
X31127501Y-51365000D03*
X32502501Y-51365000D03*
X33877501Y-51365000D03*
X35252501Y-51365000D03*
X36627501Y-51365000D03*
X38002501Y-51365000D03*
X39377501Y-51365000D03*
X40752501Y-51365000D03*
X42127501Y-51365000D03*
X43502501Y-51365000D03*
X44877501Y-51365000D03*
X29252501Y-53905000D03*
X30627501Y-53905000D03*
X32002501Y-53905000D03*
X33377501Y-53905000D03*
X34752501Y-53905000D03*
X36127501Y-53905000D03*
X37502501Y-53905000D03*
X38877501Y-53905000D03*
X40252501Y-53905000D03*
X41627501Y-53905000D03*
X43002501Y-53905000D03*
X44377501Y-53905000D03*
X29252501Y-25825000D03*
X30627501Y-25825000D03*
X32002501Y-25825000D03*
X33377501Y-25825000D03*
X34752501Y-25825000D03*
X36127501Y-25825000D03*
X37502501Y-25825000D03*
X38877501Y-25825000D03*
X40252501Y-25825000D03*
X41627501Y-25825000D03*
X43002501Y-25825000D03*
X44377501Y-25825000D03*
D13*
X8070000Y-15660000D03*
D14*
X5530000Y-15660000D03*
X8070000Y-18200000D03*
X5530000Y-18200000D03*
X8070000Y-20740000D03*
X5530000Y-20740000D03*
X8070000Y-23280000D03*
X5530000Y-23280000D03*
X8070000Y-25820000D03*
X5530000Y-25820000D03*
X8070000Y-28360000D03*
X5530000Y-28360000D03*
X8070000Y-30900000D03*
X5530000Y-30900000D03*
X8070000Y-33440000D03*
X5530000Y-33440000D03*
X8070000Y-35980000D03*
X5530000Y-35980000D03*
X8070000Y-38520000D03*
X5530000Y-38520000D03*
X8070000Y-41060000D03*
X5530000Y-41060000D03*
X8070000Y-43600000D03*
X5530000Y-43600000D03*
X8070000Y-46140000D03*
X5530000Y-46140000D03*
X8070000Y-48680000D03*
X5530000Y-48680000D03*
X8070000Y-51220000D03*
X5530000Y-51220000D03*
X8070000Y-53760000D03*
X5530000Y-53760000D03*
X8070000Y-56300000D03*
X5530000Y-56300000D03*
X8070000Y-58840000D03*
X5530000Y-58840000D03*
D15*
X15670000Y-66620000D03*
X15670000Y-69160000D03*
D14*
X18210000Y-66620000D03*
X18210000Y-69160000D03*
X20750000Y-66620000D03*
X20750000Y-69160000D03*
X23290000Y-66620000D03*
X23290000Y-69160000D03*
X25830000Y-66620000D03*
X25830000Y-69160000D03*
X28370000Y-66620000D03*
X28370000Y-69160000D03*
X30910000Y-66620000D03*
X30910000Y-69160000D03*
X33450000Y-66620000D03*
X33450000Y-69160000D03*
X35990000Y-66620000D03*
X35990000Y-69160000D03*
X38530000Y-66620000D03*
X38530000Y-69160000D03*
X41070000Y-66620000D03*
X41070000Y-69160000D03*
X43610000Y-66620000D03*
X43610000Y-69160000D03*
X46150000Y-66620000D03*
X46150000Y-69160000D03*
X48690000Y-66620000D03*
X48690000Y-69160000D03*
X51230000Y-66620000D03*
X51230000Y-69160000D03*
X53770000Y-66620000D03*
X53770000Y-69160000D03*
X56310000Y-66620000D03*
X56310000Y-69160000D03*
X58850000Y-66620000D03*
X58850000Y-69160000D03*
D15*
X69100000Y-15790000D03*
X66560000Y-15790000D03*
D14*
X69100000Y-18330000D03*
X66560000Y-18330000D03*
X69100000Y-20870000D03*
X66560000Y-20870000D03*
X69100000Y-23410000D03*
X66560000Y-23410000D03*
X69100000Y-25950000D03*
X66560000Y-25950000D03*
X69100000Y-28490000D03*
X66560000Y-28490000D03*
X69100000Y-31030000D03*
X66560000Y-31030000D03*
X69100000Y-33570000D03*
X66560000Y-33570000D03*
X69100000Y-36110000D03*
X66560000Y-36110000D03*
X69100000Y-38650000D03*
X66560000Y-38650000D03*
X69100000Y-41190000D03*
X66560000Y-41190000D03*
X69100000Y-43730000D03*
X66560000Y-43730000D03*
X69100000Y-46270000D03*
X66560000Y-46270000D03*
X69100000Y-48810000D03*
X66560000Y-48810000D03*
X69100000Y-51350000D03*
X66560000Y-51350000D03*
X69100000Y-53890000D03*
X66560000Y-53890000D03*
X69100000Y-56430000D03*
X66560000Y-56430000D03*
X69100000Y-58970000D03*
X66560000Y-58970000D03*
D15*
X58850000Y-8080000D03*
X58850000Y-5540000D03*
D14*
X56310000Y-8080000D03*
X56310000Y-5540000D03*
X53770000Y-8080000D03*
X53770000Y-5540000D03*
X51230000Y-8080000D03*
X51230000Y-5540000D03*
X48690000Y-8080000D03*
X48690000Y-5540000D03*
X46150000Y-8080000D03*
X46150000Y-5540000D03*
X43610000Y-8080000D03*
X43610000Y-5540000D03*
X41070000Y-8080000D03*
X41070000Y-5540000D03*
X38530000Y-8080000D03*
X38530000Y-5540000D03*
X35990000Y-8080000D03*
X35990000Y-5540000D03*
X33450000Y-8080000D03*
X33450000Y-5540000D03*
X30910000Y-8080000D03*
X30910000Y-5540000D03*
X28370000Y-8080000D03*
X28370000Y-5540000D03*
X25830000Y-8080000D03*
X25830000Y-5540000D03*
X23290000Y-8080000D03*
X23290000Y-5540000D03*
X20750000Y-8080000D03*
X20750000Y-5540000D03*
X18210000Y-8080000D03*
X18210000Y-5540000D03*
X15670000Y-8080000D03*
X15670000Y-5540000D03*
D16*
X20735001Y-29262500D02*
X20735001Y-28485001D01*
X20735001Y-28485001D02*
X8150000Y-15900000D01*
X8150000Y-15900000D02*
X8150000Y-15740000D01*
X8150000Y-15740000D02*
X8070000Y-15660000D01*
X9075000Y-14175000D02*
X7015000Y-14175000D01*
X7015000Y-14175000D02*
X5530000Y-15660000D01*
X9725000Y-14825000D02*
X9075000Y-14175000D01*
X23275001Y-29175001D02*
X9725000Y-15625000D01*
X9725000Y-15625000D02*
X9725000Y-14825000D01*
X23275001Y-29762500D02*
X23275001Y-29175001D01*
X9358200Y-19450000D02*
X20545700Y-30637500D01*
X9358200Y-19450000D02*
X6780000Y-19450000D01*
X6780000Y-19450000D02*
X5510000Y-18180000D01*
X20545700Y-30637500D02*
X20735001Y-30637500D01*
X8050000Y-20740000D02*
X9781723Y-20740000D01*
X9781723Y-20740000D02*
X9801723Y-20720000D01*
X9801723Y-20720000D02*
X19859700Y-31323100D01*
X19859700Y-31323100D02*
X21840900Y-31323100D01*
X21840900Y-31323100D02*
X22026500Y-31137500D01*
X22026500Y-31137500D02*
X23275001Y-31137500D01*
X22747500Y-31137500D02*
X23275001Y-31137500D01*
X20735001Y-32012500D02*
X19355300Y-32012500D01*
X10622800Y-23280000D02*
X7870000Y-23280000D01*
X19355300Y-32012500D02*
X10622800Y-23280000D01*
X10970000Y-24560000D02*
X6810000Y-24560000D01*
X6810000Y-24560000D02*
X5530000Y-23280000D01*
X10970000Y-24560000D02*
X10970000Y-24579700D01*
X22061200Y-32512500D02*
X21879000Y-32694700D01*
X21879000Y-32694700D02*
X19085000Y-32694700D01*
X22061200Y-32512500D02*
X23275001Y-32512500D01*
X10970000Y-24579700D02*
X19085000Y-32694700D01*
X23275001Y-32512500D02*
X23826500Y-32512500D01*
X12330000Y-27030000D02*
X6740000Y-27030000D01*
X6740000Y-27030000D02*
X5530000Y-25820000D01*
X20735001Y-33387500D02*
X18687500Y-33387500D01*
X18687500Y-33387500D02*
X12330000Y-27030000D01*
X22957500Y-33887500D02*
X23147000Y-33698000D01*
X7910000Y-28360000D02*
X12527800Y-28360000D01*
X22019700Y-33887500D02*
X21840900Y-34066300D01*
X21840900Y-34066300D02*
X18234100Y-34066300D01*
X22019700Y-33887500D02*
X23275001Y-33887500D01*
X18234100Y-34066300D02*
X12527800Y-28360000D01*
X20735001Y-34762500D02*
X17757600Y-34762500D01*
X13895100Y-30900000D02*
X7890000Y-30900000D01*
X17757600Y-34762500D02*
X13895100Y-30900000D01*
X8550000Y-32200000D02*
X6830000Y-32200000D01*
X21853600Y-35450600D02*
X11800600Y-35450600D01*
X11800600Y-35450600D02*
X8550000Y-32200000D01*
X23275001Y-35262500D02*
X22041700Y-35262500D01*
X22041700Y-35262500D02*
X21853600Y-35450600D01*
X6830000Y-32200000D02*
X5530000Y-30900000D01*
X20735001Y-36137500D02*
X9937500Y-36137500D01*
X9937500Y-36137500D02*
X8500000Y-34700000D01*
X6740000Y-34700000D02*
X5500000Y-33460000D01*
X8500000Y-34700000D02*
X6740000Y-34700000D01*
X22032500Y-36637500D02*
X21850000Y-36820000D01*
X21850000Y-36820000D02*
X11650000Y-36820000D01*
X23275001Y-36637500D02*
X22032500Y-36637500D01*
X9720000Y-36830000D02*
X8870000Y-35980000D01*
X11650000Y-36820000D02*
X9720000Y-36830000D01*
X8870000Y-35980000D02*
X7770000Y-35980000D01*
X9860000Y-39330000D02*
X8880000Y-39330000D01*
X8880000Y-39330000D02*
X8070000Y-38520000D01*
X20735001Y-37512500D02*
X11677500Y-37512500D01*
X11677500Y-37512500D02*
X9860000Y-39330000D01*
X5530000Y-38520000D02*
X5530000Y-38630000D01*
X5530000Y-38630000D02*
X6740000Y-39840000D01*
X6740000Y-39840000D02*
X10680000Y-39840000D01*
X21910000Y-38200000D02*
X12320000Y-38200000D01*
X23275001Y-38012500D02*
X22097500Y-38012500D01*
X22097500Y-38012500D02*
X21910000Y-38200000D01*
X12320000Y-38200000D02*
X10680000Y-39840000D01*
X9610000Y-42320000D02*
X6790000Y-42320000D01*
X13042500Y-38887500D02*
X9610000Y-42320000D01*
X20735001Y-38887500D02*
X13042500Y-38887500D01*
X6790000Y-42320000D02*
X5530000Y-41060000D01*
X13228700Y-39565400D02*
X9194100Y-43600000D01*
X9194100Y-43600000D02*
X7962050Y-43600000D01*
X21828200Y-39565400D02*
X13228700Y-39565400D01*
X23275001Y-39387500D02*
X22006100Y-39387500D01*
X22006100Y-39387500D02*
X21828200Y-39565400D01*
X9360000Y-46140000D02*
X7720000Y-46140000D01*
X15237500Y-40262500D02*
X9360000Y-46140000D01*
X20735001Y-40262500D02*
X15237500Y-40262500D01*
X6810000Y-47420000D02*
X5530000Y-46140000D01*
X9200000Y-47420000D02*
X6810000Y-47420000D01*
X9200000Y-47420000D02*
X6810000Y-47420000D01*
X15670000Y-40950000D02*
X9200000Y-47420000D01*
X22017500Y-40762500D02*
X21830000Y-40950000D01*
X21830000Y-40950000D02*
X15670000Y-40950000D01*
X23275001Y-40762500D02*
X22017500Y-40762500D01*
X6810000Y-49960000D02*
X5530000Y-48680000D01*
X8990000Y-49960000D02*
X6810000Y-49960000D01*
X8990000Y-49960000D02*
X6810000Y-49960000D01*
X17312500Y-41637500D02*
X8990000Y-49960000D01*
X20735001Y-41637500D02*
X17312500Y-41637500D01*
X8548000Y-51220000D02*
X7800000Y-51220000D01*
X17446700Y-42321300D02*
X8548000Y-51220000D01*
X23275001Y-42137500D02*
X22050100Y-42137500D01*
X22050100Y-42137500D02*
X21866300Y-42321300D01*
X21866300Y-42321300D02*
X17446700Y-42321300D01*
X8460400Y-53760000D02*
X7870000Y-53760000D01*
X9020400Y-53200000D02*
X8460400Y-53760000D01*
X20735001Y-43012500D02*
X19207900Y-43012500D01*
X9020400Y-53200000D02*
X8460400Y-53760000D01*
X19207900Y-43012500D02*
X9020400Y-53200000D01*
X8480000Y-55060000D02*
X6830000Y-55060000D01*
X6830000Y-55060000D02*
X5530000Y-53760000D01*
X8480000Y-55060000D02*
X6830000Y-55060000D01*
X22067500Y-43512500D02*
X21870000Y-43710000D01*
X21870000Y-43710000D02*
X19830000Y-43710000D01*
X19830000Y-43710000D02*
X8480000Y-55060000D01*
X23275001Y-43512500D02*
X22067500Y-43512500D01*
X20735001Y-44387500D02*
X20735001Y-46139999D01*
X20735001Y-46139999D02*
X9285000Y-57590000D01*
X6820000Y-57590000D02*
X5530000Y-56300000D01*
X9285000Y-57590000D02*
X6820000Y-57590000D01*
X8802501Y-58840000D02*
X7910000Y-58840000D01*
X22755001Y-44887500D02*
X8802501Y-58840000D01*
X23275001Y-44887500D02*
X22755001Y-44887500D01*
X5530000Y-58840000D02*
X6915000Y-60225000D01*
X24275000Y-45900000D02*
X24787500Y-45387500D01*
X6915000Y-60225000D02*
X8450000Y-60225000D01*
X8450000Y-60225000D02*
X22775000Y-45900000D01*
X22775000Y-45900000D02*
X24275000Y-45900000D01*
X24787500Y-45387500D02*
X25815001Y-45387500D01*
X25815001Y-45387500D02*
X25302500Y-45387500D01*
X58895000Y-8145000D02*
X58975000Y-8065000D01*
X47499999Y-20730001D02*
X45372500Y-20730001D01*
X47499999Y-20730001D02*
X58895000Y-9335000D01*
X58895000Y-8145000D02*
X58895000Y-9335000D01*
X46779999Y-23270001D02*
X61185000Y-8865000D01*
X61185000Y-8865000D02*
X61185000Y-7885000D01*
X61185000Y-7885000D02*
X58925000Y-5625000D01*
X44872500Y-23270001D02*
X46779999Y-23270001D01*
X43997500Y-20540700D02*
X43997500Y-20730001D01*
X55060000Y-6900000D02*
X56455000Y-5505000D01*
X55060000Y-9478200D02*
X55060000Y-6900000D01*
X55060000Y-9478200D02*
X43997500Y-20540700D01*
X53283300Y-9883300D02*
X53286701Y-9883300D01*
X53286701Y-9883300D02*
X53644139Y-9525862D01*
X53644139Y-8040862D02*
X53644139Y-9525862D01*
X43497500Y-22021500D02*
X43497500Y-23270001D01*
X43311900Y-21835900D02*
X43497500Y-22021500D01*
X43311900Y-19854700D02*
X43311900Y-21835900D01*
X53283300Y-9883300D02*
X43311900Y-19854700D01*
X43497500Y-22742500D02*
X43497500Y-23270001D01*
X42622500Y-19350300D02*
X51230000Y-10742800D01*
X51230000Y-10742800D02*
X51230000Y-7875000D01*
X42622500Y-20730001D02*
X42622500Y-19350300D01*
X50020000Y-11000300D02*
X50020000Y-6860000D01*
X50020000Y-6860000D02*
X51355000Y-5525000D01*
X42122500Y-23270001D02*
X42122500Y-23821500D01*
X50020000Y-11000300D02*
X41940300Y-19080000D01*
X42122500Y-22056200D02*
X42122500Y-23270001D01*
X41940300Y-21874000D02*
X41940300Y-19080000D01*
X42122500Y-22056200D02*
X41940300Y-21874000D01*
X47440000Y-12490000D02*
X47440000Y-6900000D01*
X41247500Y-20730001D02*
X41247500Y-18682500D01*
X41247500Y-18682500D02*
X47440000Y-12490000D01*
X47440000Y-6900000D02*
X48815000Y-5525000D01*
X40568700Y-18229100D02*
X46275000Y-12522800D01*
X40747500Y-22014700D02*
X40747500Y-23270001D01*
X40568700Y-21835900D02*
X40568700Y-18229100D01*
X40747500Y-22014700D02*
X40568700Y-21835900D01*
X46275000Y-7905000D02*
X46275000Y-12522800D01*
X40747500Y-22952500D02*
X40937000Y-23142000D01*
X39872500Y-17752600D02*
X43605000Y-14020100D01*
X43605000Y-14020100D02*
X43605000Y-7885000D01*
X39872500Y-20730001D02*
X39872500Y-17752600D01*
X42375000Y-6885000D02*
X43735000Y-5525000D01*
X39372500Y-22036700D02*
X39184400Y-21848600D01*
X39184400Y-21848600D02*
X39184400Y-11795600D01*
X39372500Y-23270001D02*
X39372500Y-22036700D01*
X39184400Y-11795600D02*
X42375000Y-8605000D01*
X42375000Y-8605000D02*
X42375000Y-6885000D01*
X39790000Y-8640000D02*
X39790000Y-6880000D01*
X39790000Y-6880000D02*
X41175000Y-5495000D01*
X38497500Y-9932500D02*
X39790000Y-8640000D01*
X38497500Y-20730001D02*
X38497500Y-9932500D01*
X38655000Y-8865000D02*
X38655000Y-7765000D01*
X37815000Y-11645000D02*
X37805000Y-9715000D01*
X37805000Y-9715000D02*
X38655000Y-8865000D01*
X37997500Y-23270001D02*
X37997500Y-22027500D01*
X37815000Y-21845000D02*
X37815000Y-11645000D01*
X37997500Y-22027500D02*
X37815000Y-21845000D01*
X37122500Y-11672500D02*
X35990000Y-10540000D01*
X37122500Y-20730001D02*
X37122500Y-11672500D01*
X35990000Y-10540000D02*
X35990000Y-8080000D01*
X36435000Y-12315000D02*
X34670000Y-10550000D01*
X36622500Y-22092500D02*
X36435000Y-21905000D01*
X36435000Y-21905000D02*
X36435000Y-12315000D01*
X36622500Y-23270001D02*
X36622500Y-22092500D01*
X34670000Y-6860000D02*
X34670000Y-10550000D01*
X36005000Y-5525000D02*
X34670000Y-6860000D01*
X36115000Y-5525000D02*
X36005000Y-5525000D01*
X32180000Y-6920000D02*
X33575000Y-5525000D01*
X35747500Y-20730001D02*
X35747500Y-13037500D01*
X35747500Y-13037500D02*
X32180000Y-9470000D01*
X32180000Y-9470000D02*
X32180000Y-6920000D01*
X35247500Y-22001100D02*
X35069600Y-21823200D01*
X35247500Y-23270001D02*
X35247500Y-22001100D01*
X35069600Y-21823200D02*
X35069600Y-13223700D01*
X30880000Y-9034100D02*
X30880000Y-7907050D01*
X35069600Y-13223700D02*
X30880000Y-9034100D01*
X34372500Y-20730001D02*
X34372500Y-15232500D01*
X34372500Y-15232500D02*
X28495000Y-9355000D01*
X28495000Y-9355000D02*
X28495000Y-7715000D01*
X27205000Y-9185000D02*
X27120000Y-9100000D01*
X27120000Y-6900000D02*
X28495000Y-5525000D01*
X27120000Y-9100000D02*
X27120000Y-6900000D01*
X33872500Y-23270001D02*
X33872500Y-22012500D01*
X33685000Y-21825000D02*
X33685000Y-15665000D01*
X33872500Y-22012500D02*
X33685000Y-21825000D01*
X27215000Y-9195000D02*
X27205000Y-9185000D01*
X33685000Y-15665000D02*
X27215000Y-9195000D01*
X27215000Y-9195000D02*
X27205000Y-9185000D01*
X32997500Y-17307500D02*
X24500000Y-8810000D01*
X32997500Y-20730001D02*
X32997500Y-17307500D01*
X24500000Y-6980000D02*
X25955000Y-5525000D01*
X24500000Y-8810000D02*
X24500000Y-6980000D01*
X32313700Y-21861300D02*
X32313700Y-17441700D01*
X32497500Y-22045100D02*
X32313700Y-21861300D01*
X32497500Y-23270001D02*
X32497500Y-22045100D01*
X32313700Y-17441700D02*
X23415000Y-8543000D01*
X23415000Y-8543000D02*
X23415000Y-7795000D01*
X20875000Y-8455400D02*
X20875000Y-7865000D01*
X31622500Y-19202900D02*
X21435000Y-9015400D01*
X21435000Y-9015400D02*
X20875000Y-8455400D01*
X31622500Y-20730001D02*
X31622500Y-19202900D01*
X21435000Y-9015400D02*
X20875000Y-8455400D01*
X30940000Y-19845000D02*
X30940000Y-21850000D01*
X31122500Y-22062500D02*
X30925000Y-21865000D01*
X31122500Y-22062500D02*
X31122500Y-23270001D01*
X30940000Y-21850000D02*
X30925000Y-21865000D01*
X30940000Y-19845000D02*
X21655000Y-10560000D01*
X19440000Y-6850000D02*
X20750000Y-5540000D01*
X19440000Y-9280000D02*
X19440000Y-6850000D01*
X20720000Y-10560000D02*
X19440000Y-9280000D01*
X21655000Y-10560000D02*
X20720000Y-10560000D01*
X30247500Y-20730001D02*
X27705001Y-20730001D01*
X27705001Y-20730001D02*
X16960000Y-9985000D01*
X16960000Y-9985000D02*
X16960000Y-6770000D01*
X16960000Y-6770000D02*
X18335000Y-5525000D01*
X29747500Y-23270001D02*
X29682499Y-23205000D01*
X29682499Y-23205000D02*
X28705000Y-23205000D01*
X28705000Y-23205000D02*
X15795000Y-10295000D01*
X15795000Y-10295000D02*
X15795000Y-7905000D01*
X15795000Y-5525000D02*
X14045000Y-7275000D01*
X14045000Y-7275000D02*
X14045000Y-9320000D01*
X14045000Y-9320000D02*
X29247500Y-24522500D01*
X29247500Y-25810001D02*
X29247500Y-25297500D01*
X29247500Y-24522500D02*
X29247500Y-25810001D01*
X15731869Y-66464435D02*
X15731869Y-65274435D01*
X27126870Y-53879434D02*
X15731869Y-65274435D01*
X27126870Y-53879434D02*
X29254369Y-53879434D01*
X15731869Y-66464435D02*
X15651869Y-66544435D01*
X29754369Y-51339434D02*
X28435566Y-51339434D01*
X28435566Y-51339434D02*
X14175000Y-65600000D01*
X14175000Y-65600000D02*
X14175000Y-67457566D01*
X14175000Y-67457566D02*
X15701869Y-68984435D01*
X19441869Y-65256235D02*
X30629369Y-54068735D01*
X19441869Y-65256235D02*
X19441869Y-67834435D01*
X19441869Y-67834435D02*
X18171869Y-69104435D01*
X30629369Y-54068735D02*
X30629369Y-53879434D01*
X20731869Y-66564435D02*
X20731869Y-64832712D01*
X20731869Y-64832712D02*
X20711869Y-64812712D01*
X20711869Y-64812712D02*
X31314969Y-54754735D01*
X31314969Y-54754735D02*
X31314969Y-52773535D01*
X31314969Y-52773535D02*
X31129369Y-52587935D01*
X31129369Y-52587935D02*
X31129369Y-51339434D01*
X31129369Y-51866935D02*
X31129369Y-51339434D01*
X32004369Y-53879434D02*
X32004369Y-55259135D01*
X23271869Y-63991635D02*
X23271869Y-66744435D01*
X32004369Y-55259135D02*
X23271869Y-63991635D01*
X24551869Y-63644435D02*
X24551869Y-67804435D01*
X24551869Y-67804435D02*
X23271869Y-69084435D01*
X24551869Y-63644435D02*
X24571569Y-63644435D01*
X32504369Y-52553235D02*
X32686569Y-52735435D01*
X32686569Y-52735435D02*
X32686569Y-55529435D01*
X32504369Y-52553235D02*
X32504369Y-51339434D01*
X24571569Y-63644435D02*
X32686569Y-55529435D01*
X32504369Y-51339434D02*
X32504369Y-50787935D01*
X27021869Y-62284435D02*
X27021869Y-67874435D01*
X27021869Y-67874435D02*
X25811869Y-69084435D01*
X33379369Y-53879434D02*
X33379369Y-55926935D01*
X33379369Y-55926935D02*
X27021869Y-62284435D01*
X33879369Y-51656935D02*
X33689869Y-51467435D01*
X28351869Y-66704435D02*
X28351869Y-62086635D01*
X33879369Y-52594735D02*
X34058169Y-52773535D01*
X34058169Y-52773535D02*
X34058169Y-56380335D01*
X33879369Y-52594735D02*
X33879369Y-51339434D01*
X34058169Y-56380335D02*
X28351869Y-62086635D01*
X34754369Y-53879434D02*
X34754369Y-56856835D01*
X30891869Y-60719335D02*
X30891869Y-66724435D01*
X34754369Y-56856835D02*
X30891869Y-60719335D01*
X32191869Y-66064435D02*
X32191869Y-67784435D01*
X35442469Y-52760835D02*
X35442469Y-62813835D01*
X35442469Y-62813835D02*
X32191869Y-66064435D01*
X35254369Y-51339434D02*
X35254369Y-52572735D01*
X35254369Y-52572735D02*
X35442469Y-52760835D01*
X32191869Y-67784435D02*
X30891869Y-69084435D01*
X36129369Y-53879434D02*
X36129369Y-64676935D01*
X36129369Y-64676935D02*
X34691869Y-66114435D01*
X34691869Y-67874435D02*
X33451869Y-69114435D01*
X34691869Y-66114435D02*
X34691869Y-67874435D01*
X36629369Y-52581935D02*
X36811869Y-52764435D01*
X36811869Y-52764435D02*
X36811869Y-62964435D01*
X36629369Y-51339434D02*
X36629369Y-52581935D01*
X36821869Y-64894435D02*
X35971869Y-65744435D01*
X36811869Y-62964435D02*
X36821869Y-64894435D01*
X35971869Y-65744435D02*
X35971869Y-66844435D01*
X39321869Y-64754435D02*
X39321869Y-65734435D01*
X39321869Y-65734435D02*
X38511869Y-66544435D01*
X37504369Y-53879434D02*
X37504369Y-62936935D01*
X37504369Y-62936935D02*
X39321869Y-64754435D01*
X38511869Y-69084435D02*
X38621869Y-69084435D01*
X38621869Y-69084435D02*
X39831869Y-67874435D01*
X39831869Y-67874435D02*
X39831869Y-63934435D01*
X38191869Y-52704435D02*
X38191869Y-62294435D01*
X38004369Y-51339434D02*
X38004369Y-52516935D01*
X38004369Y-52516935D02*
X38191869Y-52704435D01*
X38191869Y-62294435D02*
X39831869Y-63934435D01*
X42311869Y-65004435D02*
X42311869Y-67824435D01*
X38879369Y-61571935D02*
X42311869Y-65004435D01*
X38879369Y-53879434D02*
X38879369Y-61571935D01*
X42311869Y-67824435D02*
X41051869Y-69084435D01*
X39557269Y-61385735D02*
X43591869Y-65420335D01*
X43591869Y-65420335D02*
X43591869Y-66652385D01*
X39557269Y-52786235D02*
X39557269Y-61385735D01*
X39379369Y-51339434D02*
X39379369Y-52608335D01*
X39379369Y-52608335D02*
X39557269Y-52786235D01*
X46131869Y-65254435D02*
X46131869Y-66894435D01*
X40254369Y-59376935D02*
X46131869Y-65254435D01*
X40254369Y-53879434D02*
X40254369Y-59376935D01*
X47411869Y-67804435D02*
X46131869Y-69084435D01*
X47411869Y-65414435D02*
X47411869Y-67804435D01*
X47411869Y-65414435D02*
X47411869Y-67804435D01*
X40941869Y-58944435D02*
X47411869Y-65414435D01*
X40754369Y-52596935D02*
X40941869Y-52784435D01*
X40941869Y-52784435D02*
X40941869Y-58944435D01*
X40754369Y-51339434D02*
X40754369Y-52596935D01*
X49951869Y-67804435D02*
X48671869Y-69084435D01*
X49951869Y-65624435D02*
X49951869Y-67804435D01*
X49951869Y-65624435D02*
X49951869Y-67804435D01*
X41629369Y-57301935D02*
X49951869Y-65624435D01*
X41629369Y-53879434D02*
X41629369Y-57301935D01*
X51211869Y-66066435D02*
X51211869Y-66814435D01*
X42313169Y-57167735D02*
X51211869Y-66066435D01*
X42129369Y-51339434D02*
X42129369Y-52564335D01*
X42129369Y-52564335D02*
X42313169Y-52748135D01*
X42313169Y-52748135D02*
X42313169Y-57167735D01*
X53751869Y-66154035D02*
X53751869Y-66744435D01*
X53191869Y-65594035D02*
X53751869Y-66154035D01*
X43004369Y-53879434D02*
X43004369Y-55406535D01*
X53191869Y-65594035D02*
X53751869Y-66154035D01*
X43004369Y-55406535D02*
X53191869Y-65594035D01*
X55051869Y-66134435D02*
X55051869Y-67784435D01*
X55051869Y-67784435D02*
X53751869Y-69084435D01*
X55051869Y-66134435D02*
X55051869Y-67784435D01*
X43504369Y-52546935D02*
X43701869Y-52744435D01*
X43701869Y-52744435D02*
X43701869Y-54784435D01*
X43701869Y-54784435D02*
X55051869Y-66134435D01*
X43504369Y-51339434D02*
X43504369Y-52546935D01*
X44379369Y-53879434D02*
X46454434Y-53879434D01*
X46454434Y-53879434D02*
X57581869Y-65006869D01*
X57581869Y-67794435D02*
X56291869Y-69084435D01*
X57581869Y-65006869D02*
X57581869Y-67794435D01*
X44879369Y-51339434D02*
X45264434Y-51339434D01*
X45264434Y-51339434D02*
X58831869Y-64906869D01*
X58831869Y-64906869D02*
X58831869Y-66704435D01*
X58831869Y-69084435D02*
X60581869Y-67334435D01*
X60581869Y-65481869D02*
X45379369Y-50279369D01*
X60581869Y-67334435D02*
X60581869Y-65481869D01*
X45379369Y-50279369D02*
X45379369Y-48799434D01*
X45379369Y-48799434D02*
X45379369Y-49311935D01*
X69140000Y-15810000D02*
X67390000Y-14060000D01*
X67390000Y-14060000D02*
X65490000Y-14060000D01*
X65490000Y-14060000D02*
X50287500Y-29262500D01*
X50287500Y-29262500D02*
X48854999Y-29262500D01*
X48854999Y-29262500D02*
X49367500Y-29262500D01*
X51394999Y-29762500D02*
X51394999Y-29355001D01*
X51394999Y-29355001D02*
X64940000Y-15810000D01*
X64940000Y-15810000D02*
X66760000Y-15810000D01*
X53934999Y-30262500D02*
X53934999Y-27815001D01*
X64690000Y-17060000D02*
X67850000Y-17060000D01*
X67850000Y-17060000D02*
X69140000Y-18350000D01*
X53934999Y-27815001D02*
X64690000Y-17060000D01*
X67840000Y-19590000D02*
X69140000Y-20890000D01*
X51394999Y-31137500D02*
X52602500Y-31137500D01*
X54840000Y-30940000D02*
X66170000Y-19570000D01*
X52800000Y-30940000D02*
X54840000Y-30940000D01*
X52602500Y-31137500D02*
X52800000Y-30940000D01*
X66170000Y-19570000D02*
X67840000Y-19590000D01*
X66170000Y-19570000D02*
X67840000Y-19590000D01*
X66209600Y-20890000D02*
X66800000Y-20890000D01*
X55462100Y-31637500D02*
X65649600Y-21450000D01*
X65649600Y-21450000D02*
X66209600Y-20890000D01*
X53934999Y-31637500D02*
X55462100Y-31637500D01*
X65649600Y-21450000D02*
X66209600Y-20890000D01*
X52803700Y-32328700D02*
X57223300Y-32328700D01*
X52619900Y-32512500D02*
X52803700Y-32328700D01*
X51394999Y-32512500D02*
X52619900Y-32512500D01*
X57223300Y-32328700D02*
X66122000Y-23430000D01*
X66122000Y-23430000D02*
X66870000Y-23430000D01*
X53934999Y-33012500D02*
X57357500Y-33012500D01*
X67860000Y-24690000D02*
X69140000Y-25970000D01*
X57357500Y-33012500D02*
X65680000Y-24690000D01*
X65680000Y-24690000D02*
X67860000Y-24690000D01*
X65680000Y-24690000D02*
X67860000Y-24690000D01*
X51394999Y-33887500D02*
X52652500Y-33887500D01*
X52840000Y-33700000D02*
X59000000Y-33700000D01*
X52652500Y-33887500D02*
X52840000Y-33700000D01*
X59000000Y-33700000D02*
X65470000Y-27230000D01*
X67860000Y-27230000D02*
X69140000Y-28510000D01*
X65470000Y-27230000D02*
X67860000Y-27230000D01*
X65470000Y-27230000D02*
X67860000Y-27230000D01*
X53934999Y-34387500D02*
X59432500Y-34387500D01*
X59432500Y-34387500D02*
X65310000Y-28510000D01*
X65310000Y-28510000D02*
X66950000Y-28510000D01*
X52663900Y-35262500D02*
X52841800Y-35084600D01*
X51394999Y-35262500D02*
X52663900Y-35262500D01*
X52841800Y-35084600D02*
X61441300Y-35084600D01*
X65475900Y-31050000D02*
X66707950Y-31050000D01*
X61441300Y-35084600D02*
X65475900Y-31050000D01*
X67880000Y-32330000D02*
X69140000Y-33590000D01*
X53934999Y-35762500D02*
X61627500Y-35762500D01*
X61627500Y-35762500D02*
X65060000Y-32330000D01*
X65060000Y-32330000D02*
X67880000Y-32330000D01*
X62350000Y-36450000D02*
X63990000Y-34810000D01*
X52572500Y-36637500D02*
X52760000Y-36450000D01*
X52760000Y-36450000D02*
X62350000Y-36450000D01*
X51394999Y-36637500D02*
X52572500Y-36637500D01*
X67930000Y-34810000D02*
X63990000Y-34810000D01*
X69140000Y-36020000D02*
X67930000Y-34810000D01*
X69140000Y-36130000D02*
X69140000Y-36020000D01*
X62992500Y-37137500D02*
X64810000Y-35320000D01*
X53934999Y-37137500D02*
X62992500Y-37137500D01*
X65790000Y-35320000D02*
X66600000Y-36130000D01*
X64810000Y-35320000D02*
X65790000Y-35320000D01*
X65800000Y-38670000D02*
X66900000Y-38670000D01*
X63020000Y-37830000D02*
X64950000Y-37820000D01*
X64950000Y-37820000D02*
X65800000Y-38670000D01*
X51394999Y-38012500D02*
X52637500Y-38012500D01*
X52820000Y-37830000D02*
X63020000Y-37830000D01*
X52637500Y-38012500D02*
X52820000Y-37830000D01*
X66170000Y-39950000D02*
X67930000Y-39950000D01*
X67930000Y-39950000D02*
X69170000Y-41190000D01*
X64732500Y-38512500D02*
X66170000Y-39950000D01*
X53934999Y-38512500D02*
X64732500Y-38512500D01*
X67840000Y-42450000D02*
X69140000Y-43750000D01*
X52628300Y-39387500D02*
X52816400Y-39199400D01*
X52816400Y-39199400D02*
X62869400Y-39199400D01*
X51394999Y-39387500D02*
X52628300Y-39387500D01*
X62869400Y-39199400D02*
X66120000Y-42450000D01*
X66120000Y-42450000D02*
X67840000Y-42450000D01*
X56912400Y-39887500D02*
X60774900Y-43750000D01*
X60774900Y-43750000D02*
X66780000Y-43750000D01*
X53934999Y-39887500D02*
X56912400Y-39887500D01*
X56435900Y-40583700D02*
X62142200Y-46290000D01*
X52650300Y-40762500D02*
X51394999Y-40762500D01*
X52829100Y-40583700D02*
X56435900Y-40583700D01*
X52650300Y-40762500D02*
X52829100Y-40583700D01*
X66760000Y-46290000D02*
X62142200Y-46290000D01*
X51712500Y-40762500D02*
X51523000Y-40952000D01*
X62340000Y-47620000D02*
X67930000Y-47620000D01*
X55982500Y-41262500D02*
X62340000Y-47620000D01*
X53934999Y-41262500D02*
X55982500Y-41262500D01*
X67930000Y-47620000D02*
X69140000Y-48830000D01*
X51394999Y-42137500D02*
X50843500Y-42137500D01*
X63700000Y-50070300D02*
X55585000Y-41955300D01*
X52608800Y-42137500D02*
X51394999Y-42137500D01*
X52791000Y-41955300D02*
X55585000Y-41955300D01*
X52608800Y-42137500D02*
X52791000Y-41955300D01*
X63700000Y-50090000D02*
X63700000Y-50070300D01*
X67860000Y-50090000D02*
X69140000Y-51370000D01*
X63700000Y-50090000D02*
X67860000Y-50090000D01*
X55314700Y-42637500D02*
X64047200Y-51370000D01*
X64047200Y-51370000D02*
X66800000Y-51370000D01*
X53934999Y-42637500D02*
X55314700Y-42637500D01*
X51922500Y-43512500D02*
X51394999Y-43512500D01*
X52643500Y-43512500D02*
X51394999Y-43512500D01*
X52829100Y-43326900D02*
X52643500Y-43512500D01*
X54810300Y-43326900D02*
X52829100Y-43326900D01*
X64868277Y-53930000D02*
X54810300Y-43326900D01*
X64888277Y-53910000D02*
X64868277Y-53930000D01*
X66620000Y-53910000D02*
X64888277Y-53910000D01*
X54124300Y-44012500D02*
X53934999Y-44012500D01*
X67890000Y-55200000D02*
X69160000Y-56470000D01*
X65311800Y-55200000D02*
X67890000Y-55200000D01*
X65311800Y-55200000D02*
X54124300Y-44012500D01*
X51394999Y-44887500D02*
X51394999Y-45594999D01*
X51394999Y-45594999D02*
X66275000Y-60475000D01*
X66275000Y-60475000D02*
X67595000Y-60475000D01*
X67595000Y-60475000D02*
X69100000Y-58970000D01*
X53934999Y-45387500D02*
X53934999Y-46324999D01*
X53934999Y-46324999D02*
X66520000Y-58910000D01*
X66520000Y-58910000D02*
X66600000Y-58990000D01*
D17*
G36*
X74873000Y-3552606D02*
X74873000Y-73421510D01*
X72970020Y-74373000D01*
X3052606Y-74373000D01*
X1127000Y-72447394D01*
X1127000Y-65600000D01*
X13415000Y-65600000D01*
X13415000Y-67457566D01*
X13472852Y-67748405D01*
X13637599Y-67994967D01*
X14346679Y-68704047D01*
X14273243Y-68880900D01*
X14272758Y-69436661D01*
X14484990Y-69950303D01*
X14877630Y-70343629D01*
X15390900Y-70556757D01*
X15946661Y-70557242D01*
X16460303Y-70345010D01*
X16853629Y-69952370D01*
X16897589Y-69846502D01*
X17159946Y-70239147D01*
X17641715Y-70561054D01*
X18210000Y-70674093D01*
X18778285Y-70561054D01*
X19260054Y-70239147D01*
X19480000Y-69909974D01*
X19699946Y-70239147D01*
X20181715Y-70561054D01*
X20750000Y-70674093D01*
X21318285Y-70561054D01*
X21800054Y-70239147D01*
X22020000Y-69909974D01*
X22239946Y-70239147D01*
X22721715Y-70561054D01*
X23290000Y-70674093D01*
X23858285Y-70561054D01*
X24340054Y-70239147D01*
X24560000Y-69909974D01*
X24779946Y-70239147D01*
X25261715Y-70561054D01*
X25830000Y-70674093D01*
X26398285Y-70561054D01*
X26880054Y-70239147D01*
X27100000Y-69909974D01*
X27319946Y-70239147D01*
X27801715Y-70561054D01*
X28370000Y-70674093D01*
X28938285Y-70561054D01*
X29420054Y-70239147D01*
X29640000Y-69909974D01*
X29859946Y-70239147D01*
X30341715Y-70561054D01*
X30910000Y-70674093D01*
X31478285Y-70561054D01*
X31960054Y-70239147D01*
X32180000Y-69909974D01*
X32399946Y-70239147D01*
X32881715Y-70561054D01*
X33450000Y-70674093D01*
X34018285Y-70561054D01*
X34500054Y-70239147D01*
X34720000Y-69909974D01*
X34939946Y-70239147D01*
X35421715Y-70561054D01*
X35990000Y-70674093D01*
X36558285Y-70561054D01*
X37040054Y-70239147D01*
X37260000Y-69909974D01*
X37479946Y-70239147D01*
X37961715Y-70561054D01*
X38530000Y-70674093D01*
X39098285Y-70561054D01*
X39580054Y-70239147D01*
X39800000Y-69909974D01*
X40019946Y-70239147D01*
X40501715Y-70561054D01*
X41070000Y-70674093D01*
X41638285Y-70561054D01*
X42120054Y-70239147D01*
X42340000Y-69909974D01*
X42559946Y-70239147D01*
X43041715Y-70561054D01*
X43610000Y-70674093D01*
X44178285Y-70561054D01*
X44660054Y-70239147D01*
X44880000Y-69909974D01*
X45099946Y-70239147D01*
X45581715Y-70561054D01*
X46150000Y-70674093D01*
X46718285Y-70561054D01*
X47200054Y-70239147D01*
X47420000Y-69909974D01*
X47639946Y-70239147D01*
X48121715Y-70561054D01*
X48690000Y-70674093D01*
X49258285Y-70561054D01*
X49740054Y-70239147D01*
X49960000Y-69909974D01*
X50179946Y-70239147D01*
X50661715Y-70561054D01*
X51230000Y-70674093D01*
X51798285Y-70561054D01*
X52280054Y-70239147D01*
X52500000Y-69909974D01*
X52719946Y-70239147D01*
X53201715Y-70561054D01*
X53770000Y-70674093D01*
X54338285Y-70561054D01*
X54820054Y-70239147D01*
X55040000Y-69909974D01*
X55259946Y-70239147D01*
X55741715Y-70561054D01*
X56310000Y-70674093D01*
X56878285Y-70561054D01*
X57360054Y-70239147D01*
X57580000Y-69909974D01*
X57799946Y-70239147D01*
X58281715Y-70561054D01*
X58850000Y-70674093D01*
X59418285Y-70561054D01*
X59900054Y-70239147D01*
X60221961Y-69757378D01*
X60335000Y-69189093D01*
X60335000Y-69130907D01*
X60256225Y-68734881D01*
X61119270Y-67871836D01*
X61284017Y-67625274D01*
X61341869Y-67334435D01*
X61341869Y-65481869D01*
X61284017Y-65191030D01*
X61119270Y-64944468D01*
X49092148Y-52917346D01*
X51072975Y-52917346D01*
X51079985Y-53342425D01*
X51079614Y-53767619D01*
X51087304Y-53786230D01*
X51087636Y-53806363D01*
X51399641Y-54559610D01*
X51408846Y-54564420D01*
X51419156Y-54589372D01*
X52047322Y-55218636D01*
X52075058Y-55230153D01*
X52080391Y-55240360D01*
X52475798Y-55396554D01*
X52868482Y-55559611D01*
X52888620Y-55559629D01*
X52907347Y-55567026D01*
X53332426Y-55560016D01*
X53757620Y-55560387D01*
X53776231Y-55552697D01*
X53796364Y-55552365D01*
X54549611Y-55240360D01*
X54554421Y-55231155D01*
X54579373Y-55220845D01*
X55208637Y-54592679D01*
X55220154Y-54564943D01*
X55230361Y-54559610D01*
X55386555Y-54164203D01*
X55549612Y-53771519D01*
X55549630Y-53751381D01*
X55557027Y-53732654D01*
X55550017Y-53307575D01*
X55550388Y-52882381D01*
X55542698Y-52863770D01*
X55542366Y-52843637D01*
X55230361Y-52090390D01*
X55221156Y-52085580D01*
X55210846Y-52060628D01*
X54582680Y-51431364D01*
X54554944Y-51419847D01*
X54549611Y-51409640D01*
X54154204Y-51253446D01*
X53761520Y-51090389D01*
X53741382Y-51090371D01*
X53722655Y-51082974D01*
X53297576Y-51089984D01*
X52872382Y-51089613D01*
X52853771Y-51097303D01*
X52833638Y-51097635D01*
X52080391Y-51409640D01*
X52075581Y-51418845D01*
X52050629Y-51429155D01*
X51421365Y-52057321D01*
X51409848Y-52085057D01*
X51399641Y-52090390D01*
X51243447Y-52485797D01*
X51080390Y-52878481D01*
X51080372Y-52898619D01*
X51072975Y-52917346D01*
X49092148Y-52917346D01*
X46142809Y-49968007D01*
X46287522Y-49751428D01*
X46362501Y-49374485D01*
X46362501Y-48275515D01*
X46287522Y-47898572D01*
X46074001Y-47579015D01*
X45754444Y-47365494D01*
X45377501Y-47290515D01*
X45000558Y-47365494D01*
X44690001Y-47573001D01*
X44379444Y-47365494D01*
X44002501Y-47290515D01*
X43625558Y-47365494D01*
X43315001Y-47573001D01*
X43004444Y-47365494D01*
X42627501Y-47290515D01*
X42250558Y-47365494D01*
X41940001Y-47573001D01*
X41629444Y-47365494D01*
X41252501Y-47290515D01*
X40875558Y-47365494D01*
X40565001Y-47573001D01*
X40254444Y-47365494D01*
X39877501Y-47290515D01*
X39500558Y-47365494D01*
X39190001Y-47573001D01*
X38879444Y-47365494D01*
X38502501Y-47290515D01*
X38125558Y-47365494D01*
X37815001Y-47573001D01*
X37504444Y-47365494D01*
X37127501Y-47290515D01*
X36750558Y-47365494D01*
X36440001Y-47573001D01*
X36129444Y-47365494D01*
X35752501Y-47290515D01*
X35375558Y-47365494D01*
X35065001Y-47573001D01*
X34754444Y-47365494D01*
X34377501Y-47290515D01*
X34000558Y-47365494D01*
X33690001Y-47573001D01*
X33379444Y-47365494D01*
X33002501Y-47290515D01*
X32625558Y-47365494D01*
X32315001Y-47573001D01*
X32004444Y-47365494D01*
X31627501Y-47290515D01*
X31250558Y-47365494D01*
X30940001Y-47573001D01*
X30629444Y-47365494D01*
X30252501Y-47290515D01*
X29875558Y-47365494D01*
X29556001Y-47579015D01*
X29342480Y-47898572D01*
X29267501Y-48275515D01*
X29267501Y-49374485D01*
X29342480Y-49751428D01*
X29437227Y-49893227D01*
X29375558Y-49905494D01*
X29056001Y-50119015D01*
X28842480Y-50438572D01*
X28814461Y-50579434D01*
X28435566Y-50579434D01*
X28144727Y-50637286D01*
X27898165Y-50802033D01*
X13637599Y-65062599D01*
X13472852Y-65309161D01*
X13415000Y-65600000D01*
X1127000Y-65600000D01*
X1127000Y-15660000D01*
X4015907Y-15660000D01*
X4128946Y-16228285D01*
X4450853Y-16710054D01*
X4780026Y-16930000D01*
X4450853Y-17149946D01*
X4128946Y-17631715D01*
X4015907Y-18200000D01*
X4128946Y-18768285D01*
X4450853Y-19250054D01*
X4780026Y-19470000D01*
X4450853Y-19689946D01*
X4128946Y-20171715D01*
X4015907Y-20740000D01*
X4128946Y-21308285D01*
X4450853Y-21790054D01*
X4780026Y-22010000D01*
X4450853Y-22229946D01*
X4128946Y-22711715D01*
X4015907Y-23280000D01*
X4128946Y-23848285D01*
X4450853Y-24330054D01*
X4780026Y-24550000D01*
X4450853Y-24769946D01*
X4128946Y-25251715D01*
X4015907Y-25820000D01*
X4128946Y-26388285D01*
X4450853Y-26870054D01*
X4780026Y-27090000D01*
X4450853Y-27309946D01*
X4128946Y-27791715D01*
X4015907Y-28360000D01*
X4128946Y-28928285D01*
X4450853Y-29410054D01*
X4780026Y-29630000D01*
X4450853Y-29849946D01*
X4128946Y-30331715D01*
X4015907Y-30900000D01*
X4128946Y-31468285D01*
X4450853Y-31950054D01*
X4780026Y-32170000D01*
X4450853Y-32389946D01*
X4128946Y-32871715D01*
X4015907Y-33440000D01*
X4128946Y-34008285D01*
X4450853Y-34490054D01*
X4780026Y-34710000D01*
X4450853Y-34929946D01*
X4128946Y-35411715D01*
X4015907Y-35980000D01*
X4128946Y-36548285D01*
X4450853Y-37030054D01*
X4780026Y-37250000D01*
X4450853Y-37469946D01*
X4128946Y-37951715D01*
X4015907Y-38520000D01*
X4128946Y-39088285D01*
X4450853Y-39570054D01*
X4780026Y-39790000D01*
X4450853Y-40009946D01*
X4128946Y-40491715D01*
X4015907Y-41060000D01*
X4128946Y-41628285D01*
X4450853Y-42110054D01*
X4780026Y-42330000D01*
X4450853Y-42549946D01*
X4128946Y-43031715D01*
X4015907Y-43600000D01*
X4128946Y-44168285D01*
X4450853Y-44650054D01*
X4780026Y-44870000D01*
X4450853Y-45089946D01*
X4128946Y-45571715D01*
X4015907Y-46140000D01*
X4128946Y-46708285D01*
X4450853Y-47190054D01*
X4780026Y-47410000D01*
X4450853Y-47629946D01*
X4128946Y-48111715D01*
X4015907Y-48680000D01*
X4128946Y-49248285D01*
X4450853Y-49730054D01*
X4780026Y-49950000D01*
X4450853Y-50169946D01*
X4128946Y-50651715D01*
X4015907Y-51220000D01*
X4128946Y-51788285D01*
X4450853Y-52270054D01*
X4780026Y-52490000D01*
X4450853Y-52709946D01*
X4128946Y-53191715D01*
X4015907Y-53760000D01*
X4128946Y-54328285D01*
X4450853Y-54810054D01*
X4780026Y-55030000D01*
X4450853Y-55249946D01*
X4128946Y-55731715D01*
X4015907Y-56300000D01*
X4128946Y-56868285D01*
X4450853Y-57350054D01*
X4780026Y-57570000D01*
X4450853Y-57789946D01*
X4128946Y-58271715D01*
X4015907Y-58840000D01*
X4128946Y-59408285D01*
X4450853Y-59890054D01*
X4932622Y-60211961D01*
X5500907Y-60325000D01*
X5559093Y-60325000D01*
X5876969Y-60261771D01*
X6377599Y-60762401D01*
X6624161Y-60927148D01*
X6915000Y-60985000D01*
X8450000Y-60985000D01*
X8740839Y-60927148D01*
X8987401Y-60762401D01*
X16832456Y-52917346D01*
X19072975Y-52917346D01*
X19079985Y-53342425D01*
X19079614Y-53767619D01*
X19087304Y-53786230D01*
X19087636Y-53806363D01*
X19399641Y-54559610D01*
X19408846Y-54564420D01*
X19419156Y-54589372D01*
X20047322Y-55218636D01*
X20075058Y-55230153D01*
X20080391Y-55240360D01*
X20475798Y-55396554D01*
X20868482Y-55559611D01*
X20888620Y-55559629D01*
X20907347Y-55567026D01*
X21332426Y-55560016D01*
X21757620Y-55560387D01*
X21776231Y-55552697D01*
X21796364Y-55552365D01*
X22549611Y-55240360D01*
X22554421Y-55231155D01*
X22579373Y-55220845D01*
X23208637Y-54592679D01*
X23220154Y-54564943D01*
X23230361Y-54559610D01*
X23386555Y-54164203D01*
X23549612Y-53771519D01*
X23549630Y-53751381D01*
X23557027Y-53732654D01*
X23550017Y-53307575D01*
X23550388Y-52882381D01*
X23542698Y-52863770D01*
X23542366Y-52843637D01*
X23230361Y-52090390D01*
X23221156Y-52085580D01*
X23210846Y-52060628D01*
X22582680Y-51431364D01*
X22554944Y-51419847D01*
X22549611Y-51409640D01*
X22154204Y-51253446D01*
X21761520Y-51090389D01*
X21741382Y-51090371D01*
X21722655Y-51082974D01*
X21297576Y-51089984D01*
X20872382Y-51089613D01*
X20853771Y-51097303D01*
X20833638Y-51097635D01*
X20080391Y-51409640D01*
X20075581Y-51418845D01*
X20050629Y-51429155D01*
X19421365Y-52057321D01*
X19409848Y-52085057D01*
X19399641Y-52090390D01*
X19243447Y-52485797D01*
X19080390Y-52878481D01*
X19080372Y-52898619D01*
X19072975Y-52917346D01*
X16832456Y-52917346D01*
X23089802Y-46660000D01*
X24275000Y-46660000D01*
X24565839Y-46602148D01*
X24812401Y-46437401D01*
X24941711Y-46308091D01*
X25265516Y-46372500D01*
X26364486Y-46372500D01*
X26741429Y-46297521D01*
X27060986Y-46084000D01*
X27274507Y-45764443D01*
X27349486Y-45387500D01*
X27274507Y-45010557D01*
X27067000Y-44700000D01*
X27274507Y-44389443D01*
X27349486Y-44012500D01*
X27274507Y-43635557D01*
X27067000Y-43325000D01*
X27274507Y-43014443D01*
X27349486Y-42637500D01*
X27274507Y-42260557D01*
X27067000Y-41950000D01*
X27274507Y-41639443D01*
X27349486Y-41262500D01*
X27274507Y-40885557D01*
X27067000Y-40575000D01*
X27274507Y-40264443D01*
X27349486Y-39887500D01*
X27274507Y-39510557D01*
X27067000Y-39200000D01*
X27274507Y-38889443D01*
X27349486Y-38512500D01*
X27274507Y-38135557D01*
X27067000Y-37825000D01*
X27274507Y-37514443D01*
X27349486Y-37137500D01*
X27274507Y-36760557D01*
X27067000Y-36450000D01*
X27274507Y-36139443D01*
X27349486Y-35762500D01*
X27274507Y-35385557D01*
X27067000Y-35075000D01*
X27274507Y-34764443D01*
X27349486Y-34387500D01*
X27274507Y-34010557D01*
X27067000Y-33700000D01*
X27274507Y-33389443D01*
X27349486Y-33012500D01*
X27274507Y-32635557D01*
X27067000Y-32325000D01*
X27274507Y-32014443D01*
X27349486Y-31637500D01*
X27274507Y-31260557D01*
X27067000Y-30950000D01*
X27274507Y-30639443D01*
X27349486Y-30262500D01*
X27274507Y-29885557D01*
X27060986Y-29566000D01*
X26741429Y-29352479D01*
X26364486Y-29277500D01*
X25265516Y-29277500D01*
X24888573Y-29352479D01*
X24746774Y-29447226D01*
X24734507Y-29385557D01*
X24652284Y-29262500D01*
X47280516Y-29262500D01*
X47355495Y-29639443D01*
X47563002Y-29950000D01*
X47355495Y-30260557D01*
X47280516Y-30637500D01*
X47355495Y-31014443D01*
X47563002Y-31325000D01*
X47355495Y-31635557D01*
X47280516Y-32012500D01*
X47355495Y-32389443D01*
X47563002Y-32700000D01*
X47355495Y-33010557D01*
X47280516Y-33387500D01*
X47355495Y-33764443D01*
X47563002Y-34075000D01*
X47355495Y-34385557D01*
X47280516Y-34762500D01*
X47355495Y-35139443D01*
X47563002Y-35450000D01*
X47355495Y-35760557D01*
X47280516Y-36137500D01*
X47355495Y-36514443D01*
X47563002Y-36825000D01*
X47355495Y-37135557D01*
X47280516Y-37512500D01*
X47355495Y-37889443D01*
X47563002Y-38200000D01*
X47355495Y-38510557D01*
X47280516Y-38887500D01*
X47355495Y-39264443D01*
X47563002Y-39575000D01*
X47355495Y-39885557D01*
X47280516Y-40262500D01*
X47355495Y-40639443D01*
X47563002Y-40950000D01*
X47355495Y-41260557D01*
X47280516Y-41637500D01*
X47355495Y-42014443D01*
X47563002Y-42325000D01*
X47355495Y-42635557D01*
X47280516Y-43012500D01*
X47355495Y-43389443D01*
X47563002Y-43700000D01*
X47355495Y-44010557D01*
X47280516Y-44387500D01*
X47355495Y-44764443D01*
X47569016Y-45084000D01*
X47888573Y-45297521D01*
X48265516Y-45372500D01*
X49364486Y-45372500D01*
X49741429Y-45297521D01*
X49883228Y-45202774D01*
X49895495Y-45264443D01*
X50109016Y-45584000D01*
X50428573Y-45797521D01*
X50685447Y-45848617D01*
X50692851Y-45885838D01*
X50857598Y-46132400D01*
X65737599Y-61012401D01*
X65984160Y-61177148D01*
X66275000Y-61235000D01*
X67595000Y-61235000D01*
X67885839Y-61177148D01*
X68132401Y-61012401D01*
X68753031Y-60391771D01*
X69070907Y-60455000D01*
X69129093Y-60455000D01*
X69697378Y-60341961D01*
X70179147Y-60020054D01*
X70501054Y-59538285D01*
X70614093Y-58970000D01*
X70501054Y-58401715D01*
X70179147Y-57919946D01*
X69849974Y-57700000D01*
X70179147Y-57480054D01*
X70501054Y-56998285D01*
X70614093Y-56430000D01*
X70501054Y-55861715D01*
X70179147Y-55379946D01*
X69849974Y-55160000D01*
X70179147Y-54940054D01*
X70501054Y-54458285D01*
X70614093Y-53890000D01*
X70501054Y-53321715D01*
X70179147Y-52839946D01*
X69849974Y-52620000D01*
X70179147Y-52400054D01*
X70501054Y-51918285D01*
X70614093Y-51350000D01*
X70501054Y-50781715D01*
X70179147Y-50299946D01*
X69849974Y-50080000D01*
X70179147Y-49860054D01*
X70501054Y-49378285D01*
X70614093Y-48810000D01*
X70501054Y-48241715D01*
X70179147Y-47759946D01*
X69849974Y-47540000D01*
X70179147Y-47320054D01*
X70501054Y-46838285D01*
X70614093Y-46270000D01*
X70501054Y-45701715D01*
X70179147Y-45219946D01*
X69849974Y-45000000D01*
X70179147Y-44780054D01*
X70501054Y-44298285D01*
X70614093Y-43730000D01*
X70501054Y-43161715D01*
X70179147Y-42679946D01*
X69849974Y-42460000D01*
X70179147Y-42240054D01*
X70501054Y-41758285D01*
X70614093Y-41190000D01*
X70501054Y-40621715D01*
X70179147Y-40139946D01*
X69849974Y-39920000D01*
X70179147Y-39700054D01*
X70501054Y-39218285D01*
X70614093Y-38650000D01*
X70501054Y-38081715D01*
X70179147Y-37599946D01*
X69849974Y-37380000D01*
X70179147Y-37160054D01*
X70501054Y-36678285D01*
X70614093Y-36110000D01*
X70501054Y-35541715D01*
X70179147Y-35059946D01*
X69849974Y-34840000D01*
X70179147Y-34620054D01*
X70501054Y-34138285D01*
X70614093Y-33570000D01*
X70501054Y-33001715D01*
X70179147Y-32519946D01*
X69849974Y-32300000D01*
X70179147Y-32080054D01*
X70501054Y-31598285D01*
X70614093Y-31030000D01*
X70501054Y-30461715D01*
X70179147Y-29979946D01*
X69849974Y-29760000D01*
X70179147Y-29540054D01*
X70501054Y-29058285D01*
X70614093Y-28490000D01*
X70501054Y-27921715D01*
X70179147Y-27439946D01*
X69849974Y-27220000D01*
X70179147Y-27000054D01*
X70501054Y-26518285D01*
X70614093Y-25950000D01*
X70501054Y-25381715D01*
X70179147Y-24899946D01*
X69849974Y-24680000D01*
X70179147Y-24460054D01*
X70501054Y-23978285D01*
X70614093Y-23410000D01*
X70501054Y-22841715D01*
X70179147Y-22359946D01*
X69849974Y-22140000D01*
X70179147Y-21920054D01*
X70501054Y-21438285D01*
X70614093Y-20870000D01*
X70501054Y-20301715D01*
X70179147Y-19819946D01*
X69849974Y-19600000D01*
X70179147Y-19380054D01*
X70501054Y-18898285D01*
X70614093Y-18330000D01*
X70501054Y-17761715D01*
X70179147Y-17279946D01*
X69786789Y-17017781D01*
X69890303Y-16975010D01*
X70283629Y-16582370D01*
X70496757Y-16069100D01*
X70497242Y-15513339D01*
X70285010Y-14999697D01*
X69892370Y-14606371D01*
X69379100Y-14393243D01*
X68823339Y-14392758D01*
X68805097Y-14400295D01*
X67927401Y-13522599D01*
X67680839Y-13357852D01*
X67390000Y-13300000D01*
X65490000Y-13300000D01*
X65199161Y-13357852D01*
X64952599Y-13522599D01*
X49972698Y-28502500D01*
X49965951Y-28502500D01*
X49741429Y-28352479D01*
X49364486Y-28277500D01*
X48265516Y-28277500D01*
X47888573Y-28352479D01*
X47569016Y-28566000D01*
X47355495Y-28885557D01*
X47280516Y-29262500D01*
X24652284Y-29262500D01*
X24520986Y-29066000D01*
X24201429Y-28852479D01*
X23918357Y-28796172D01*
X23812402Y-28637600D01*
X16092148Y-20917346D01*
X19072975Y-20917346D01*
X19079985Y-21342425D01*
X19079614Y-21767619D01*
X19087304Y-21786230D01*
X19087636Y-21806363D01*
X19399641Y-22559610D01*
X19408846Y-22564420D01*
X19419156Y-22589372D01*
X20047322Y-23218636D01*
X20075058Y-23230153D01*
X20080391Y-23240360D01*
X20475798Y-23396554D01*
X20868482Y-23559611D01*
X20888620Y-23559629D01*
X20907347Y-23567026D01*
X21332426Y-23560016D01*
X21757620Y-23560387D01*
X21776231Y-23552697D01*
X21796364Y-23552365D01*
X22549611Y-23240360D01*
X22554421Y-23231155D01*
X22579373Y-23220845D01*
X23208637Y-22592679D01*
X23220154Y-22564943D01*
X23230361Y-22559610D01*
X23386555Y-22164203D01*
X23549612Y-21771519D01*
X23549630Y-21751381D01*
X23557027Y-21732654D01*
X23550017Y-21307575D01*
X23550388Y-20882381D01*
X23542698Y-20863770D01*
X23542366Y-20843637D01*
X23230361Y-20090390D01*
X23221156Y-20085580D01*
X23210846Y-20060628D01*
X22582680Y-19431364D01*
X22554944Y-19419847D01*
X22549611Y-19409640D01*
X22154204Y-19253446D01*
X21761520Y-19090389D01*
X21741382Y-19090371D01*
X21722655Y-19082974D01*
X21297576Y-19089984D01*
X20872382Y-19089613D01*
X20853771Y-19097303D01*
X20833638Y-19097635D01*
X20080391Y-19409640D01*
X20075581Y-19418845D01*
X20050629Y-19429155D01*
X19421365Y-20057321D01*
X19409848Y-20085057D01*
X19399641Y-20090390D01*
X19243447Y-20485797D01*
X19080390Y-20878481D01*
X19080372Y-20898619D01*
X19072975Y-20917346D01*
X16092148Y-20917346D01*
X10485000Y-15310198D01*
X10485000Y-14825000D01*
X10427148Y-14534161D01*
X10262401Y-14287599D01*
X9612401Y-13637599D01*
X9365839Y-13472852D01*
X9075000Y-13415000D01*
X7015000Y-13415000D01*
X6724161Y-13472852D01*
X6477599Y-13637599D01*
X5876969Y-14238229D01*
X5559093Y-14175000D01*
X5500907Y-14175000D01*
X4932622Y-14288039D01*
X4450853Y-14609946D01*
X4128946Y-15091715D01*
X4015907Y-15660000D01*
X1127000Y-15660000D01*
X1127000Y-7275000D01*
X13285000Y-7275000D01*
X13285000Y-9320000D01*
X13342852Y-9610839D01*
X13507599Y-9857401D01*
X28425108Y-24774910D01*
X28342480Y-24898572D01*
X28267501Y-25275515D01*
X28267501Y-26374485D01*
X28342480Y-26751428D01*
X28556001Y-27070985D01*
X28875558Y-27284506D01*
X29252501Y-27359485D01*
X29629444Y-27284506D01*
X29940001Y-27076999D01*
X30250558Y-27284506D01*
X30627501Y-27359485D01*
X31004444Y-27284506D01*
X31315001Y-27076999D01*
X31625558Y-27284506D01*
X32002501Y-27359485D01*
X32379444Y-27284506D01*
X32690001Y-27076999D01*
X33000558Y-27284506D01*
X33377501Y-27359485D01*
X33754444Y-27284506D01*
X34065001Y-27076999D01*
X34375558Y-27284506D01*
X34752501Y-27359485D01*
X35129444Y-27284506D01*
X35440001Y-27076999D01*
X35750558Y-27284506D01*
X36127501Y-27359485D01*
X36504444Y-27284506D01*
X36815001Y-27076999D01*
X37125558Y-27284506D01*
X37502501Y-27359485D01*
X37879444Y-27284506D01*
X38190001Y-27076999D01*
X38500558Y-27284506D01*
X38877501Y-27359485D01*
X39254444Y-27284506D01*
X39565001Y-27076999D01*
X39875558Y-27284506D01*
X40252501Y-27359485D01*
X40629444Y-27284506D01*
X40940001Y-27076999D01*
X41250558Y-27284506D01*
X41627501Y-27359485D01*
X42004444Y-27284506D01*
X42315001Y-27076999D01*
X42625558Y-27284506D01*
X43002501Y-27359485D01*
X43379444Y-27284506D01*
X43690001Y-27076999D01*
X44000558Y-27284506D01*
X44377501Y-27359485D01*
X44754444Y-27284506D01*
X45074001Y-27070985D01*
X45287522Y-26751428D01*
X45362501Y-26374485D01*
X45362501Y-25275515D01*
X45287522Y-24898572D01*
X45192775Y-24756773D01*
X45254444Y-24744506D01*
X45574001Y-24530985D01*
X45787522Y-24211428D01*
X45823610Y-24030001D01*
X46779999Y-24030001D01*
X47070838Y-23972149D01*
X47317400Y-23807402D01*
X50207456Y-20917346D01*
X51072975Y-20917346D01*
X51079985Y-21342425D01*
X51079614Y-21767619D01*
X51087304Y-21786230D01*
X51087636Y-21806363D01*
X51399641Y-22559610D01*
X51408846Y-22564420D01*
X51419156Y-22589372D01*
X52047322Y-23218636D01*
X52075058Y-23230153D01*
X52080391Y-23240360D01*
X52475798Y-23396554D01*
X52868482Y-23559611D01*
X52888620Y-23559629D01*
X52907347Y-23567026D01*
X53332426Y-23560016D01*
X53757620Y-23560387D01*
X53776231Y-23552697D01*
X53796364Y-23552365D01*
X54549611Y-23240360D01*
X54554421Y-23231155D01*
X54579373Y-23220845D01*
X55208637Y-22592679D01*
X55220154Y-22564943D01*
X55230361Y-22559610D01*
X55386555Y-22164203D01*
X55549612Y-21771519D01*
X55549630Y-21751381D01*
X55557027Y-21732654D01*
X55550017Y-21307575D01*
X55550388Y-20882381D01*
X55542698Y-20863770D01*
X55542366Y-20843637D01*
X55230361Y-20090390D01*
X55221156Y-20085580D01*
X55210846Y-20060628D01*
X54582680Y-19431364D01*
X54554944Y-19419847D01*
X54549611Y-19409640D01*
X54154204Y-19253446D01*
X53761520Y-19090389D01*
X53741382Y-19090371D01*
X53722655Y-19082974D01*
X53297576Y-19089984D01*
X52872382Y-19089613D01*
X52853771Y-19097303D01*
X52833638Y-19097635D01*
X52080391Y-19409640D01*
X52075581Y-19418845D01*
X52050629Y-19429155D01*
X51421365Y-20057321D01*
X51409848Y-20085057D01*
X51399641Y-20090390D01*
X51243447Y-20485797D01*
X51080390Y-20878481D01*
X51080372Y-20898619D01*
X51072975Y-20917346D01*
X50207456Y-20917346D01*
X61722401Y-9402401D01*
X61887148Y-9155839D01*
X61945000Y-8865000D01*
X61945000Y-7885000D01*
X61887148Y-7594161D01*
X61722401Y-7347599D01*
X60231249Y-5856447D01*
X60246757Y-5819100D01*
X60247242Y-5263339D01*
X60035010Y-4749697D01*
X59642370Y-4356371D01*
X59129100Y-4143243D01*
X58573339Y-4142758D01*
X58059697Y-4354990D01*
X57666371Y-4747630D01*
X57622411Y-4853498D01*
X57360054Y-4460853D01*
X56878285Y-4138946D01*
X56310000Y-4025907D01*
X55741715Y-4138946D01*
X55259946Y-4460853D01*
X55040000Y-4790026D01*
X54820054Y-4460853D01*
X54338285Y-4138946D01*
X53770000Y-4025907D01*
X53201715Y-4138946D01*
X52719946Y-4460853D01*
X52500000Y-4790026D01*
X52280054Y-4460853D01*
X51798285Y-4138946D01*
X51230000Y-4025907D01*
X50661715Y-4138946D01*
X50179946Y-4460853D01*
X49960000Y-4790026D01*
X49740054Y-4460853D01*
X49258285Y-4138946D01*
X48690000Y-4025907D01*
X48121715Y-4138946D01*
X47639946Y-4460853D01*
X47420000Y-4790026D01*
X47200054Y-4460853D01*
X46718285Y-4138946D01*
X46150000Y-4025907D01*
X45581715Y-4138946D01*
X45099946Y-4460853D01*
X44880000Y-4790026D01*
X44660054Y-4460853D01*
X44178285Y-4138946D01*
X43610000Y-4025907D01*
X43041715Y-4138946D01*
X42559946Y-4460853D01*
X42340000Y-4790026D01*
X42120054Y-4460853D01*
X41638285Y-4138946D01*
X41070000Y-4025907D01*
X40501715Y-4138946D01*
X40019946Y-4460853D01*
X39800000Y-4790026D01*
X39580054Y-4460853D01*
X39098285Y-4138946D01*
X38530000Y-4025907D01*
X37961715Y-4138946D01*
X37479946Y-4460853D01*
X37260000Y-4790026D01*
X37040054Y-4460853D01*
X36558285Y-4138946D01*
X35990000Y-4025907D01*
X35421715Y-4138946D01*
X34939946Y-4460853D01*
X34720000Y-4790026D01*
X34500054Y-4460853D01*
X34018285Y-4138946D01*
X33450000Y-4025907D01*
X32881715Y-4138946D01*
X32399946Y-4460853D01*
X32180000Y-4790026D01*
X31960054Y-4460853D01*
X31478285Y-4138946D01*
X30910000Y-4025907D01*
X30341715Y-4138946D01*
X29859946Y-4460853D01*
X29640000Y-4790026D01*
X29420054Y-4460853D01*
X28938285Y-4138946D01*
X28370000Y-4025907D01*
X27801715Y-4138946D01*
X27319946Y-4460853D01*
X27100000Y-4790026D01*
X26880054Y-4460853D01*
X26398285Y-4138946D01*
X25830000Y-4025907D01*
X25261715Y-4138946D01*
X24779946Y-4460853D01*
X24560000Y-4790026D01*
X24340054Y-4460853D01*
X23858285Y-4138946D01*
X23290000Y-4025907D01*
X22721715Y-4138946D01*
X22239946Y-4460853D01*
X22020000Y-4790026D01*
X21800054Y-4460853D01*
X21318285Y-4138946D01*
X20750000Y-4025907D01*
X20181715Y-4138946D01*
X19699946Y-4460853D01*
X19480000Y-4790026D01*
X19260054Y-4460853D01*
X18778285Y-4138946D01*
X18210000Y-4025907D01*
X17641715Y-4138946D01*
X17159946Y-4460853D01*
X16940000Y-4790026D01*
X16720054Y-4460853D01*
X16238285Y-4138946D01*
X15670000Y-4025907D01*
X15101715Y-4138946D01*
X14619946Y-4460853D01*
X14298039Y-4942622D01*
X14185000Y-5510907D01*
X14185000Y-5569093D01*
X14266480Y-5978718D01*
X13507599Y-6737599D01*
X13342852Y-6984161D01*
X13285000Y-7275000D01*
X1127000Y-7275000D01*
X1127000Y-3552606D01*
X3969606Y-710000D01*
X72030394Y-710000D01*
X74873000Y-3552606D01*
X74873000Y-3552606D01*
G37*
X74873000Y-3552606D02*
X74873000Y-73421510D01*
X72970020Y-74373000D01*
X3052606Y-74373000D01*
X1127000Y-72447394D01*
X1127000Y-65600000D01*
X13415000Y-65600000D01*
X13415000Y-67457566D01*
X13472852Y-67748405D01*
X13637599Y-67994967D01*
X14346679Y-68704047D01*
X14273243Y-68880900D01*
X14272758Y-69436661D01*
X14484990Y-69950303D01*
X14877630Y-70343629D01*
X15390900Y-70556757D01*
X15946661Y-70557242D01*
X16460303Y-70345010D01*
X16853629Y-69952370D01*
X16897589Y-69846502D01*
X17159946Y-70239147D01*
X17641715Y-70561054D01*
X18210000Y-70674093D01*
X18778285Y-70561054D01*
X19260054Y-70239147D01*
X19480000Y-69909974D01*
X19699946Y-70239147D01*
X20181715Y-70561054D01*
X20750000Y-70674093D01*
X21318285Y-70561054D01*
X21800054Y-70239147D01*
X22020000Y-69909974D01*
X22239946Y-70239147D01*
X22721715Y-70561054D01*
X23290000Y-70674093D01*
X23858285Y-70561054D01*
X24340054Y-70239147D01*
X24560000Y-69909974D01*
X24779946Y-70239147D01*
X25261715Y-70561054D01*
X25830000Y-70674093D01*
X26398285Y-70561054D01*
X26880054Y-70239147D01*
X27100000Y-69909974D01*
X27319946Y-70239147D01*
X27801715Y-70561054D01*
X28370000Y-70674093D01*
X28938285Y-70561054D01*
X29420054Y-70239147D01*
X29640000Y-69909974D01*
X29859946Y-70239147D01*
X30341715Y-70561054D01*
X30910000Y-70674093D01*
X31478285Y-70561054D01*
X31960054Y-70239147D01*
X32180000Y-69909974D01*
X32399946Y-70239147D01*
X32881715Y-70561054D01*
X33450000Y-70674093D01*
X34018285Y-70561054D01*
X34500054Y-70239147D01*
X34720000Y-69909974D01*
X34939946Y-70239147D01*
X35421715Y-70561054D01*
X35990000Y-70674093D01*
X36558285Y-70561054D01*
X37040054Y-70239147D01*
X37260000Y-69909974D01*
X37479946Y-70239147D01*
X37961715Y-70561054D01*
X38530000Y-70674093D01*
X39098285Y-70561054D01*
X39580054Y-70239147D01*
X39800000Y-69909974D01*
X40019946Y-70239147D01*
X40501715Y-70561054D01*
X41070000Y-70674093D01*
X41638285Y-70561054D01*
X42120054Y-70239147D01*
X42340000Y-69909974D01*
X42559946Y-70239147D01*
X43041715Y-70561054D01*
X43610000Y-70674093D01*
X44178285Y-70561054D01*
X44660054Y-70239147D01*
X44880000Y-69909974D01*
X45099946Y-70239147D01*
X45581715Y-70561054D01*
X46150000Y-70674093D01*
X46718285Y-70561054D01*
X47200054Y-70239147D01*
X47420000Y-69909974D01*
X47639946Y-70239147D01*
X48121715Y-70561054D01*
X48690000Y-70674093D01*
X49258285Y-70561054D01*
X49740054Y-70239147D01*
X49960000Y-69909974D01*
X50179946Y-70239147D01*
X50661715Y-70561054D01*
X51230000Y-70674093D01*
X51798285Y-70561054D01*
X52280054Y-70239147D01*
X52500000Y-69909974D01*
X52719946Y-70239147D01*
X53201715Y-70561054D01*
X53770000Y-70674093D01*
X54338285Y-70561054D01*
X54820054Y-70239147D01*
X55040000Y-69909974D01*
X55259946Y-70239147D01*
X55741715Y-70561054D01*
X56310000Y-70674093D01*
X56878285Y-70561054D01*
X57360054Y-70239147D01*
X57580000Y-69909974D01*
X57799946Y-70239147D01*
X58281715Y-70561054D01*
X58850000Y-70674093D01*
X59418285Y-70561054D01*
X59900054Y-70239147D01*
X60221961Y-69757378D01*
X60335000Y-69189093D01*
X60335000Y-69130907D01*
X60256225Y-68734881D01*
X61119270Y-67871836D01*
X61284017Y-67625274D01*
X61341869Y-67334435D01*
X61341869Y-65481869D01*
X61284017Y-65191030D01*
X61119270Y-64944468D01*
X49092148Y-52917346D01*
X51072975Y-52917346D01*
X51079985Y-53342425D01*
X51079614Y-53767619D01*
X51087304Y-53786230D01*
X51087636Y-53806363D01*
X51399641Y-54559610D01*
X51408846Y-54564420D01*
X51419156Y-54589372D01*
X52047322Y-55218636D01*
X52075058Y-55230153D01*
X52080391Y-55240360D01*
X52475798Y-55396554D01*
X52868482Y-55559611D01*
X52888620Y-55559629D01*
X52907347Y-55567026D01*
X53332426Y-55560016D01*
X53757620Y-55560387D01*
X53776231Y-55552697D01*
X53796364Y-55552365D01*
X54549611Y-55240360D01*
X54554421Y-55231155D01*
X54579373Y-55220845D01*
X55208637Y-54592679D01*
X55220154Y-54564943D01*
X55230361Y-54559610D01*
X55386555Y-54164203D01*
X55549612Y-53771519D01*
X55549630Y-53751381D01*
X55557027Y-53732654D01*
X55550017Y-53307575D01*
X55550388Y-52882381D01*
X55542698Y-52863770D01*
X55542366Y-52843637D01*
X55230361Y-52090390D01*
X55221156Y-52085580D01*
X55210846Y-52060628D01*
X54582680Y-51431364D01*
X54554944Y-51419847D01*
X54549611Y-51409640D01*
X54154204Y-51253446D01*
X53761520Y-51090389D01*
X53741382Y-51090371D01*
X53722655Y-51082974D01*
X53297576Y-51089984D01*
X52872382Y-51089613D01*
X52853771Y-51097303D01*
X52833638Y-51097635D01*
X52080391Y-51409640D01*
X52075581Y-51418845D01*
X52050629Y-51429155D01*
X51421365Y-52057321D01*
X51409848Y-52085057D01*
X51399641Y-52090390D01*
X51243447Y-52485797D01*
X51080390Y-52878481D01*
X51080372Y-52898619D01*
X51072975Y-52917346D01*
X49092148Y-52917346D01*
X46142809Y-49968007D01*
X46287522Y-49751428D01*
X46362501Y-49374485D01*
X46362501Y-48275515D01*
X46287522Y-47898572D01*
X46074001Y-47579015D01*
X45754444Y-47365494D01*
X45377501Y-47290515D01*
X45000558Y-47365494D01*
X44690001Y-47573001D01*
X44379444Y-47365494D01*
X44002501Y-47290515D01*
X43625558Y-47365494D01*
X43315001Y-47573001D01*
X43004444Y-47365494D01*
X42627501Y-47290515D01*
X42250558Y-47365494D01*
X41940001Y-47573001D01*
X41629444Y-47365494D01*
X41252501Y-47290515D01*
X40875558Y-47365494D01*
X40565001Y-47573001D01*
X40254444Y-47365494D01*
X39877501Y-47290515D01*
X39500558Y-47365494D01*
X39190001Y-47573001D01*
X38879444Y-47365494D01*
X38502501Y-47290515D01*
X38125558Y-47365494D01*
X37815001Y-47573001D01*
X37504444Y-47365494D01*
X37127501Y-47290515D01*
X36750558Y-47365494D01*
X36440001Y-47573001D01*
X36129444Y-47365494D01*
X35752501Y-47290515D01*
X35375558Y-47365494D01*
X35065001Y-47573001D01*
X34754444Y-47365494D01*
X34377501Y-47290515D01*
X34000558Y-47365494D01*
X33690001Y-47573001D01*
X33379444Y-47365494D01*
X33002501Y-47290515D01*
X32625558Y-47365494D01*
X32315001Y-47573001D01*
X32004444Y-47365494D01*
X31627501Y-47290515D01*
X31250558Y-47365494D01*
X30940001Y-47573001D01*
X30629444Y-47365494D01*
X30252501Y-47290515D01*
X29875558Y-47365494D01*
X29556001Y-47579015D01*
X29342480Y-47898572D01*
X29267501Y-48275515D01*
X29267501Y-49374485D01*
X29342480Y-49751428D01*
X29437227Y-49893227D01*
X29375558Y-49905494D01*
X29056001Y-50119015D01*
X28842480Y-50438572D01*
X28814461Y-50579434D01*
X28435566Y-50579434D01*
X28144727Y-50637286D01*
X27898165Y-50802033D01*
X13637599Y-65062599D01*
X13472852Y-65309161D01*
X13415000Y-65600000D01*
X1127000Y-65600000D01*
X1127000Y-15660000D01*
X4015907Y-15660000D01*
X4128946Y-16228285D01*
X4450853Y-16710054D01*
X4780026Y-16930000D01*
X4450853Y-17149946D01*
X4128946Y-17631715D01*
X4015907Y-18200000D01*
X4128946Y-18768285D01*
X4450853Y-19250054D01*
X4780026Y-19470000D01*
X4450853Y-19689946D01*
X4128946Y-20171715D01*
X4015907Y-20740000D01*
X4128946Y-21308285D01*
X4450853Y-21790054D01*
X4780026Y-22010000D01*
X4450853Y-22229946D01*
X4128946Y-22711715D01*
X4015907Y-23280000D01*
X4128946Y-23848285D01*
X4450853Y-24330054D01*
X4780026Y-24550000D01*
X4450853Y-24769946D01*
X4128946Y-25251715D01*
X4015907Y-25820000D01*
X4128946Y-26388285D01*
X4450853Y-26870054D01*
X4780026Y-27090000D01*
X4450853Y-27309946D01*
X4128946Y-27791715D01*
X4015907Y-28360000D01*
X4128946Y-28928285D01*
X4450853Y-29410054D01*
X4780026Y-29630000D01*
X4450853Y-29849946D01*
X4128946Y-30331715D01*
X4015907Y-30900000D01*
X4128946Y-31468285D01*
X4450853Y-31950054D01*
X4780026Y-32170000D01*
X4450853Y-32389946D01*
X4128946Y-32871715D01*
X4015907Y-33440000D01*
X4128946Y-34008285D01*
X4450853Y-34490054D01*
X4780026Y-34710000D01*
X4450853Y-34929946D01*
X4128946Y-35411715D01*
X4015907Y-35980000D01*
X4128946Y-36548285D01*
X4450853Y-37030054D01*
X4780026Y-37250000D01*
X4450853Y-37469946D01*
X4128946Y-37951715D01*
X4015907Y-38520000D01*
X4128946Y-39088285D01*
X4450853Y-39570054D01*
X4780026Y-39790000D01*
X4450853Y-40009946D01*
X4128946Y-40491715D01*
X4015907Y-41060000D01*
X4128946Y-41628285D01*
X4450853Y-42110054D01*
X4780026Y-42330000D01*
X4450853Y-42549946D01*
X4128946Y-43031715D01*
X4015907Y-43600000D01*
X4128946Y-44168285D01*
X4450853Y-44650054D01*
X4780026Y-44870000D01*
X4450853Y-45089946D01*
X4128946Y-45571715D01*
X4015907Y-46140000D01*
X4128946Y-46708285D01*
X4450853Y-47190054D01*
X4780026Y-47410000D01*
X4450853Y-47629946D01*
X4128946Y-48111715D01*
X4015907Y-48680000D01*
X4128946Y-49248285D01*
X4450853Y-49730054D01*
X4780026Y-49950000D01*
X4450853Y-50169946D01*
X4128946Y-50651715D01*
X4015907Y-51220000D01*
X4128946Y-51788285D01*
X4450853Y-52270054D01*
X4780026Y-52490000D01*
X4450853Y-52709946D01*
X4128946Y-53191715D01*
X4015907Y-53760000D01*
X4128946Y-54328285D01*
X4450853Y-54810054D01*
X4780026Y-55030000D01*
X4450853Y-55249946D01*
X4128946Y-55731715D01*
X4015907Y-56300000D01*
X4128946Y-56868285D01*
X4450853Y-57350054D01*
X4780026Y-57570000D01*
X4450853Y-57789946D01*
X4128946Y-58271715D01*
X4015907Y-58840000D01*
X4128946Y-59408285D01*
X4450853Y-59890054D01*
X4932622Y-60211961D01*
X5500907Y-60325000D01*
X5559093Y-60325000D01*
X5876969Y-60261771D01*
X6377599Y-60762401D01*
X6624161Y-60927148D01*
X6915000Y-60985000D01*
X8450000Y-60985000D01*
X8740839Y-60927148D01*
X8987401Y-60762401D01*
X16832456Y-52917346D01*
X19072975Y-52917346D01*
X19079985Y-53342425D01*
X19079614Y-53767619D01*
X19087304Y-53786230D01*
X19087636Y-53806363D01*
X19399641Y-54559610D01*
X19408846Y-54564420D01*
X19419156Y-54589372D01*
X20047322Y-55218636D01*
X20075058Y-55230153D01*
X20080391Y-55240360D01*
X20475798Y-55396554D01*
X20868482Y-55559611D01*
X20888620Y-55559629D01*
X20907347Y-55567026D01*
X21332426Y-55560016D01*
X21757620Y-55560387D01*
X21776231Y-55552697D01*
X21796364Y-55552365D01*
X22549611Y-55240360D01*
X22554421Y-55231155D01*
X22579373Y-55220845D01*
X23208637Y-54592679D01*
X23220154Y-54564943D01*
X23230361Y-54559610D01*
X23386555Y-54164203D01*
X23549612Y-53771519D01*
X23549630Y-53751381D01*
X23557027Y-53732654D01*
X23550017Y-53307575D01*
X23550388Y-52882381D01*
X23542698Y-52863770D01*
X23542366Y-52843637D01*
X23230361Y-52090390D01*
X23221156Y-52085580D01*
X23210846Y-52060628D01*
X22582680Y-51431364D01*
X22554944Y-51419847D01*
X22549611Y-51409640D01*
X22154204Y-51253446D01*
X21761520Y-51090389D01*
X21741382Y-51090371D01*
X21722655Y-51082974D01*
X21297576Y-51089984D01*
X20872382Y-51089613D01*
X20853771Y-51097303D01*
X20833638Y-51097635D01*
X20080391Y-51409640D01*
X20075581Y-51418845D01*
X20050629Y-51429155D01*
X19421365Y-52057321D01*
X19409848Y-52085057D01*
X19399641Y-52090390D01*
X19243447Y-52485797D01*
X19080390Y-52878481D01*
X19080372Y-52898619D01*
X19072975Y-52917346D01*
X16832456Y-52917346D01*
X23089802Y-46660000D01*
X24275000Y-46660000D01*
X24565839Y-46602148D01*
X24812401Y-46437401D01*
X24941711Y-46308091D01*
X25265516Y-46372500D01*
X26364486Y-46372500D01*
X26741429Y-46297521D01*
X27060986Y-46084000D01*
X27274507Y-45764443D01*
X27349486Y-45387500D01*
X27274507Y-45010557D01*
X27067000Y-44700000D01*
X27274507Y-44389443D01*
X27349486Y-44012500D01*
X27274507Y-43635557D01*
X27067000Y-43325000D01*
X27274507Y-43014443D01*
X27349486Y-42637500D01*
X27274507Y-42260557D01*
X27067000Y-41950000D01*
X27274507Y-41639443D01*
X27349486Y-41262500D01*
X27274507Y-40885557D01*
X27067000Y-40575000D01*
X27274507Y-40264443D01*
X27349486Y-39887500D01*
X27274507Y-39510557D01*
X27067000Y-39200000D01*
X27274507Y-38889443D01*
X27349486Y-38512500D01*
X27274507Y-38135557D01*
X27067000Y-37825000D01*
X27274507Y-37514443D01*
X27349486Y-37137500D01*
X27274507Y-36760557D01*
X27067000Y-36450000D01*
X27274507Y-36139443D01*
X27349486Y-35762500D01*
X27274507Y-35385557D01*
X27067000Y-35075000D01*
X27274507Y-34764443D01*
X27349486Y-34387500D01*
X27274507Y-34010557D01*
X27067000Y-33700000D01*
X27274507Y-33389443D01*
X27349486Y-33012500D01*
X27274507Y-32635557D01*
X27067000Y-32325000D01*
X27274507Y-32014443D01*
X27349486Y-31637500D01*
X27274507Y-31260557D01*
X27067000Y-30950000D01*
X27274507Y-30639443D01*
X27349486Y-30262500D01*
X27274507Y-29885557D01*
X27060986Y-29566000D01*
X26741429Y-29352479D01*
X26364486Y-29277500D01*
X25265516Y-29277500D01*
X24888573Y-29352479D01*
X24746774Y-29447226D01*
X24734507Y-29385557D01*
X24652284Y-29262500D01*
X47280516Y-29262500D01*
X47355495Y-29639443D01*
X47563002Y-29950000D01*
X47355495Y-30260557D01*
X47280516Y-30637500D01*
X47355495Y-31014443D01*
X47563002Y-31325000D01*
X47355495Y-31635557D01*
X47280516Y-32012500D01*
X47355495Y-32389443D01*
X47563002Y-32700000D01*
X47355495Y-33010557D01*
X47280516Y-33387500D01*
X47355495Y-33764443D01*
X47563002Y-34075000D01*
X47355495Y-34385557D01*
X47280516Y-34762500D01*
X47355495Y-35139443D01*
X47563002Y-35450000D01*
X47355495Y-35760557D01*
X47280516Y-36137500D01*
X47355495Y-36514443D01*
X47563002Y-36825000D01*
X47355495Y-37135557D01*
X47280516Y-37512500D01*
X47355495Y-37889443D01*
X47563002Y-38200000D01*
X47355495Y-38510557D01*
X47280516Y-38887500D01*
X47355495Y-39264443D01*
X47563002Y-39575000D01*
X47355495Y-39885557D01*
X47280516Y-40262500D01*
X47355495Y-40639443D01*
X47563002Y-40950000D01*
X47355495Y-41260557D01*
X47280516Y-41637500D01*
X47355495Y-42014443D01*
X47563002Y-42325000D01*
X47355495Y-42635557D01*
X47280516Y-43012500D01*
X47355495Y-43389443D01*
X47563002Y-43700000D01*
X47355495Y-44010557D01*
X47280516Y-44387500D01*
X47355495Y-44764443D01*
X47569016Y-45084000D01*
X47888573Y-45297521D01*
X48265516Y-45372500D01*
X49364486Y-45372500D01*
X49741429Y-45297521D01*
X49883228Y-45202774D01*
X49895495Y-45264443D01*
X50109016Y-45584000D01*
X50428573Y-45797521D01*
X50685447Y-45848617D01*
X50692851Y-45885838D01*
X50857598Y-46132400D01*
X65737599Y-61012401D01*
X65984160Y-61177148D01*
X66275000Y-61235000D01*
X67595000Y-61235000D01*
X67885839Y-61177148D01*
X68132401Y-61012401D01*
X68753031Y-60391771D01*
X69070907Y-60455000D01*
X69129093Y-60455000D01*
X69697378Y-60341961D01*
X70179147Y-60020054D01*
X70501054Y-59538285D01*
X70614093Y-58970000D01*
X70501054Y-58401715D01*
X70179147Y-57919946D01*
X69849974Y-57700000D01*
X70179147Y-57480054D01*
X70501054Y-56998285D01*
X70614093Y-56430000D01*
X70501054Y-55861715D01*
X70179147Y-55379946D01*
X69849974Y-55160000D01*
X70179147Y-54940054D01*
X70501054Y-54458285D01*
X70614093Y-53890000D01*
X70501054Y-53321715D01*
X70179147Y-52839946D01*
X69849974Y-52620000D01*
X70179147Y-52400054D01*
X70501054Y-51918285D01*
X70614093Y-51350000D01*
X70501054Y-50781715D01*
X70179147Y-50299946D01*
X69849974Y-50080000D01*
X70179147Y-49860054D01*
X70501054Y-49378285D01*
X70614093Y-48810000D01*
X70501054Y-48241715D01*
X70179147Y-47759946D01*
X69849974Y-47540000D01*
X70179147Y-47320054D01*
X70501054Y-46838285D01*
X70614093Y-46270000D01*
X70501054Y-45701715D01*
X70179147Y-45219946D01*
X69849974Y-45000000D01*
X70179147Y-44780054D01*
X70501054Y-44298285D01*
X70614093Y-43730000D01*
X70501054Y-43161715D01*
X70179147Y-42679946D01*
X69849974Y-42460000D01*
X70179147Y-42240054D01*
X70501054Y-41758285D01*
X70614093Y-41190000D01*
X70501054Y-40621715D01*
X70179147Y-40139946D01*
X69849974Y-39920000D01*
X70179147Y-39700054D01*
X70501054Y-39218285D01*
X70614093Y-38650000D01*
X70501054Y-38081715D01*
X70179147Y-37599946D01*
X69849974Y-37380000D01*
X70179147Y-37160054D01*
X70501054Y-36678285D01*
X70614093Y-36110000D01*
X70501054Y-35541715D01*
X70179147Y-35059946D01*
X69849974Y-34840000D01*
X70179147Y-34620054D01*
X70501054Y-34138285D01*
X70614093Y-33570000D01*
X70501054Y-33001715D01*
X70179147Y-32519946D01*
X69849974Y-32300000D01*
X70179147Y-32080054D01*
X70501054Y-31598285D01*
X70614093Y-31030000D01*
X70501054Y-30461715D01*
X70179147Y-29979946D01*
X69849974Y-29760000D01*
X70179147Y-29540054D01*
X70501054Y-29058285D01*
X70614093Y-28490000D01*
X70501054Y-27921715D01*
X70179147Y-27439946D01*
X69849974Y-27220000D01*
X70179147Y-27000054D01*
X70501054Y-26518285D01*
X70614093Y-25950000D01*
X70501054Y-25381715D01*
X70179147Y-24899946D01*
X69849974Y-24680000D01*
X70179147Y-24460054D01*
X70501054Y-23978285D01*
X70614093Y-23410000D01*
X70501054Y-22841715D01*
X70179147Y-22359946D01*
X69849974Y-22140000D01*
X70179147Y-21920054D01*
X70501054Y-21438285D01*
X70614093Y-20870000D01*
X70501054Y-20301715D01*
X70179147Y-19819946D01*
X69849974Y-19600000D01*
X70179147Y-19380054D01*
X70501054Y-18898285D01*
X70614093Y-18330000D01*
X70501054Y-17761715D01*
X70179147Y-17279946D01*
X69786789Y-17017781D01*
X69890303Y-16975010D01*
X70283629Y-16582370D01*
X70496757Y-16069100D01*
X70497242Y-15513339D01*
X70285010Y-14999697D01*
X69892370Y-14606371D01*
X69379100Y-14393243D01*
X68823339Y-14392758D01*
X68805097Y-14400295D01*
X67927401Y-13522599D01*
X67680839Y-13357852D01*
X67390000Y-13300000D01*
X65490000Y-13300000D01*
X65199161Y-13357852D01*
X64952599Y-13522599D01*
X49972698Y-28502500D01*
X49965951Y-28502500D01*
X49741429Y-28352479D01*
X49364486Y-28277500D01*
X48265516Y-28277500D01*
X47888573Y-28352479D01*
X47569016Y-28566000D01*
X47355495Y-28885557D01*
X47280516Y-29262500D01*
X24652284Y-29262500D01*
X24520986Y-29066000D01*
X24201429Y-28852479D01*
X23918357Y-28796172D01*
X23812402Y-28637600D01*
X16092148Y-20917346D01*
X19072975Y-20917346D01*
X19079985Y-21342425D01*
X19079614Y-21767619D01*
X19087304Y-21786230D01*
X19087636Y-21806363D01*
X19399641Y-22559610D01*
X19408846Y-22564420D01*
X19419156Y-22589372D01*
X20047322Y-23218636D01*
X20075058Y-23230153D01*
X20080391Y-23240360D01*
X20475798Y-23396554D01*
X20868482Y-23559611D01*
X20888620Y-23559629D01*
X20907347Y-23567026D01*
X21332426Y-23560016D01*
X21757620Y-23560387D01*
X21776231Y-23552697D01*
X21796364Y-23552365D01*
X22549611Y-23240360D01*
X22554421Y-23231155D01*
X22579373Y-23220845D01*
X23208637Y-22592679D01*
X23220154Y-22564943D01*
X23230361Y-22559610D01*
X23386555Y-22164203D01*
X23549612Y-21771519D01*
X23549630Y-21751381D01*
X23557027Y-21732654D01*
X23550017Y-21307575D01*
X23550388Y-20882381D01*
X23542698Y-20863770D01*
X23542366Y-20843637D01*
X23230361Y-20090390D01*
X23221156Y-20085580D01*
X23210846Y-20060628D01*
X22582680Y-19431364D01*
X22554944Y-19419847D01*
X22549611Y-19409640D01*
X22154204Y-19253446D01*
X21761520Y-19090389D01*
X21741382Y-19090371D01*
X21722655Y-19082974D01*
X21297576Y-19089984D01*
X20872382Y-19089613D01*
X20853771Y-19097303D01*
X20833638Y-19097635D01*
X20080391Y-19409640D01*
X20075581Y-19418845D01*
X20050629Y-19429155D01*
X19421365Y-20057321D01*
X19409848Y-20085057D01*
X19399641Y-20090390D01*
X19243447Y-20485797D01*
X19080390Y-20878481D01*
X19080372Y-20898619D01*
X19072975Y-20917346D01*
X16092148Y-20917346D01*
X10485000Y-15310198D01*
X10485000Y-14825000D01*
X10427148Y-14534161D01*
X10262401Y-14287599D01*
X9612401Y-13637599D01*
X9365839Y-13472852D01*
X9075000Y-13415000D01*
X7015000Y-13415000D01*
X6724161Y-13472852D01*
X6477599Y-13637599D01*
X5876969Y-14238229D01*
X5559093Y-14175000D01*
X5500907Y-14175000D01*
X4932622Y-14288039D01*
X4450853Y-14609946D01*
X4128946Y-15091715D01*
X4015907Y-15660000D01*
X1127000Y-15660000D01*
X1127000Y-7275000D01*
X13285000Y-7275000D01*
X13285000Y-9320000D01*
X13342852Y-9610839D01*
X13507599Y-9857401D01*
X28425108Y-24774910D01*
X28342480Y-24898572D01*
X28267501Y-25275515D01*
X28267501Y-26374485D01*
X28342480Y-26751428D01*
X28556001Y-27070985D01*
X28875558Y-27284506D01*
X29252501Y-27359485D01*
X29629444Y-27284506D01*
X29940001Y-27076999D01*
X30250558Y-27284506D01*
X30627501Y-27359485D01*
X31004444Y-27284506D01*
X31315001Y-27076999D01*
X31625558Y-27284506D01*
X32002501Y-27359485D01*
X32379444Y-27284506D01*
X32690001Y-27076999D01*
X33000558Y-27284506D01*
X33377501Y-27359485D01*
X33754444Y-27284506D01*
X34065001Y-27076999D01*
X34375558Y-27284506D01*
X34752501Y-27359485D01*
X35129444Y-27284506D01*
X35440001Y-27076999D01*
X35750558Y-27284506D01*
X36127501Y-27359485D01*
X36504444Y-27284506D01*
X36815001Y-27076999D01*
X37125558Y-27284506D01*
X37502501Y-27359485D01*
X37879444Y-27284506D01*
X38190001Y-27076999D01*
X38500558Y-27284506D01*
X38877501Y-27359485D01*
X39254444Y-27284506D01*
X39565001Y-27076999D01*
X39875558Y-27284506D01*
X40252501Y-27359485D01*
X40629444Y-27284506D01*
X40940001Y-27076999D01*
X41250558Y-27284506D01*
X41627501Y-27359485D01*
X42004444Y-27284506D01*
X42315001Y-27076999D01*
X42625558Y-27284506D01*
X43002501Y-27359485D01*
X43379444Y-27284506D01*
X43690001Y-27076999D01*
X44000558Y-27284506D01*
X44377501Y-27359485D01*
X44754444Y-27284506D01*
X45074001Y-27070985D01*
X45287522Y-26751428D01*
X45362501Y-26374485D01*
X45362501Y-25275515D01*
X45287522Y-24898572D01*
X45192775Y-24756773D01*
X45254444Y-24744506D01*
X45574001Y-24530985D01*
X45787522Y-24211428D01*
X45823610Y-24030001D01*
X46779999Y-24030001D01*
X47070838Y-23972149D01*
X47317400Y-23807402D01*
X50207456Y-20917346D01*
X51072975Y-20917346D01*
X51079985Y-21342425D01*
X51079614Y-21767619D01*
X51087304Y-21786230D01*
X51087636Y-21806363D01*
X51399641Y-22559610D01*
X51408846Y-22564420D01*
X51419156Y-22589372D01*
X52047322Y-23218636D01*
X52075058Y-23230153D01*
X52080391Y-23240360D01*
X52475798Y-23396554D01*
X52868482Y-23559611D01*
X52888620Y-23559629D01*
X52907347Y-23567026D01*
X53332426Y-23560016D01*
X53757620Y-23560387D01*
X53776231Y-23552697D01*
X53796364Y-23552365D01*
X54549611Y-23240360D01*
X54554421Y-23231155D01*
X54579373Y-23220845D01*
X55208637Y-22592679D01*
X55220154Y-22564943D01*
X55230361Y-22559610D01*
X55386555Y-22164203D01*
X55549612Y-21771519D01*
X55549630Y-21751381D01*
X55557027Y-21732654D01*
X55550017Y-21307575D01*
X55550388Y-20882381D01*
X55542698Y-20863770D01*
X55542366Y-20843637D01*
X55230361Y-20090390D01*
X55221156Y-20085580D01*
X55210846Y-20060628D01*
X54582680Y-19431364D01*
X54554944Y-19419847D01*
X54549611Y-19409640D01*
X54154204Y-19253446D01*
X53761520Y-19090389D01*
X53741382Y-19090371D01*
X53722655Y-19082974D01*
X53297576Y-19089984D01*
X52872382Y-19089613D01*
X52853771Y-19097303D01*
X52833638Y-19097635D01*
X52080391Y-19409640D01*
X52075581Y-19418845D01*
X52050629Y-19429155D01*
X51421365Y-20057321D01*
X51409848Y-20085057D01*
X51399641Y-20090390D01*
X51243447Y-20485797D01*
X51080390Y-20878481D01*
X51080372Y-20898619D01*
X51072975Y-20917346D01*
X50207456Y-20917346D01*
X61722401Y-9402401D01*
X61887148Y-9155839D01*
X61945000Y-8865000D01*
X61945000Y-7885000D01*
X61887148Y-7594161D01*
X61722401Y-7347599D01*
X60231249Y-5856447D01*
X60246757Y-5819100D01*
X60247242Y-5263339D01*
X60035010Y-4749697D01*
X59642370Y-4356371D01*
X59129100Y-4143243D01*
X58573339Y-4142758D01*
X58059697Y-4354990D01*
X57666371Y-4747630D01*
X57622411Y-4853498D01*
X57360054Y-4460853D01*
X56878285Y-4138946D01*
X56310000Y-4025907D01*
X55741715Y-4138946D01*
X55259946Y-4460853D01*
X55040000Y-4790026D01*
X54820054Y-4460853D01*
X54338285Y-4138946D01*
X53770000Y-4025907D01*
X53201715Y-4138946D01*
X52719946Y-4460853D01*
X52500000Y-4790026D01*
X52280054Y-4460853D01*
X51798285Y-4138946D01*
X51230000Y-4025907D01*
X50661715Y-4138946D01*
X50179946Y-4460853D01*
X49960000Y-4790026D01*
X49740054Y-4460853D01*
X49258285Y-4138946D01*
X48690000Y-4025907D01*
X48121715Y-4138946D01*
X47639946Y-4460853D01*
X47420000Y-4790026D01*
X47200054Y-4460853D01*
X46718285Y-4138946D01*
X46150000Y-4025907D01*
X45581715Y-4138946D01*
X45099946Y-4460853D01*
X44880000Y-4790026D01*
X44660054Y-4460853D01*
X44178285Y-4138946D01*
X43610000Y-4025907D01*
X43041715Y-4138946D01*
X42559946Y-4460853D01*
X42340000Y-4790026D01*
X42120054Y-4460853D01*
X41638285Y-4138946D01*
X41070000Y-4025907D01*
X40501715Y-4138946D01*
X40019946Y-4460853D01*
X39800000Y-4790026D01*
X39580054Y-4460853D01*
X39098285Y-4138946D01*
X38530000Y-4025907D01*
X37961715Y-4138946D01*
X37479946Y-4460853D01*
X37260000Y-4790026D01*
X37040054Y-4460853D01*
X36558285Y-4138946D01*
X35990000Y-4025907D01*
X35421715Y-4138946D01*
X34939946Y-4460853D01*
X34720000Y-4790026D01*
X34500054Y-4460853D01*
X34018285Y-4138946D01*
X33450000Y-4025907D01*
X32881715Y-4138946D01*
X32399946Y-4460853D01*
X32180000Y-4790026D01*
X31960054Y-4460853D01*
X31478285Y-4138946D01*
X30910000Y-4025907D01*
X30341715Y-4138946D01*
X29859946Y-4460853D01*
X29640000Y-4790026D01*
X29420054Y-4460853D01*
X28938285Y-4138946D01*
X28370000Y-4025907D01*
X27801715Y-4138946D01*
X27319946Y-4460853D01*
X27100000Y-4790026D01*
X26880054Y-4460853D01*
X26398285Y-4138946D01*
X25830000Y-4025907D01*
X25261715Y-4138946D01*
X24779946Y-4460853D01*
X24560000Y-4790026D01*
X24340054Y-4460853D01*
X23858285Y-4138946D01*
X23290000Y-4025907D01*
X22721715Y-4138946D01*
X22239946Y-4460853D01*
X22020000Y-4790026D01*
X21800054Y-4460853D01*
X21318285Y-4138946D01*
X20750000Y-4025907D01*
X20181715Y-4138946D01*
X19699946Y-4460853D01*
X19480000Y-4790026D01*
X19260054Y-4460853D01*
X18778285Y-4138946D01*
X18210000Y-4025907D01*
X17641715Y-4138946D01*
X17159946Y-4460853D01*
X16940000Y-4790026D01*
X16720054Y-4460853D01*
X16238285Y-4138946D01*
X15670000Y-4025907D01*
X15101715Y-4138946D01*
X14619946Y-4460853D01*
X14298039Y-4942622D01*
X14185000Y-5510907D01*
X14185000Y-5569093D01*
X14266480Y-5978718D01*
X13507599Y-6737599D01*
X13342852Y-6984161D01*
X13285000Y-7275000D01*
X1127000Y-7275000D01*
X1127000Y-3552606D01*
X3969606Y-710000D01*
X72030394Y-710000D01*
X74873000Y-3552606D01*
G36*
X17159946Y-67699147D02*
X17445578Y-67890000D01*
X17159946Y-68080853D01*
X16897781Y-68473211D01*
X16855010Y-68369697D01*
X16462370Y-67976371D01*
X16254488Y-67890051D01*
X16460303Y-67805010D01*
X16853629Y-67412370D01*
X16897589Y-67306502D01*
X17159946Y-67699147D01*
X17159946Y-67699147D01*
G37*
X17159946Y-67699147D02*
X17445578Y-67890000D01*
X17159946Y-68080853D01*
X16897781Y-68473211D01*
X16855010Y-68369697D01*
X16462370Y-67976371D01*
X16254488Y-67890051D01*
X16460303Y-67805010D01*
X16853629Y-67412370D01*
X16897589Y-67306502D01*
X17159946Y-67699147D01*
G36*
X45099946Y-67699147D02*
X45385578Y-67890000D01*
X45099946Y-68080853D01*
X44880000Y-68410026D01*
X44660054Y-68080853D01*
X44374422Y-67890000D01*
X44660054Y-67699147D01*
X44880000Y-67369974D01*
X45099946Y-67699147D01*
X45099946Y-67699147D01*
G37*
X45099946Y-67699147D02*
X45385578Y-67890000D01*
X45099946Y-68080853D01*
X44880000Y-68410026D01*
X44660054Y-68080853D01*
X44374422Y-67890000D01*
X44660054Y-67699147D01*
X44880000Y-67369974D01*
X45099946Y-67699147D01*
G36*
X37479946Y-67699147D02*
X37765578Y-67890000D01*
X37479946Y-68080853D01*
X37260000Y-68410026D01*
X37040054Y-68080853D01*
X36754422Y-67890000D01*
X37040054Y-67699147D01*
X37260000Y-67369974D01*
X37479946Y-67699147D01*
X37479946Y-67699147D01*
G37*
X37479946Y-67699147D02*
X37765578Y-67890000D01*
X37479946Y-68080853D01*
X37260000Y-68410026D01*
X37040054Y-68080853D01*
X36754422Y-67890000D01*
X37040054Y-67699147D01*
X37260000Y-67369974D01*
X37479946Y-67699147D01*
G36*
X29859946Y-67699147D02*
X30145578Y-67890000D01*
X29859946Y-68080853D01*
X29640000Y-68410026D01*
X29420054Y-68080853D01*
X29134422Y-67890000D01*
X29420054Y-67699147D01*
X29640000Y-67369974D01*
X29859946Y-67699147D01*
X29859946Y-67699147D01*
G37*
X29859946Y-67699147D02*
X30145578Y-67890000D01*
X29859946Y-68080853D01*
X29640000Y-68410026D01*
X29420054Y-68080853D01*
X29134422Y-67890000D01*
X29420054Y-67699147D01*
X29640000Y-67369974D01*
X29859946Y-67699147D01*
G36*
X22239946Y-67699147D02*
X22525578Y-67890000D01*
X22239946Y-68080853D01*
X22020000Y-68410026D01*
X21800054Y-68080853D01*
X21514422Y-67890000D01*
X21800054Y-67699147D01*
X22020000Y-67369974D01*
X22239946Y-67699147D01*
X22239946Y-67699147D01*
G37*
X22239946Y-67699147D02*
X22525578Y-67890000D01*
X22239946Y-68080853D01*
X22020000Y-68410026D01*
X21800054Y-68080853D01*
X21514422Y-67890000D01*
X21800054Y-67699147D01*
X22020000Y-67369974D01*
X22239946Y-67699147D01*
G36*
X52719946Y-67699147D02*
X53005578Y-67890000D01*
X52719946Y-68080853D01*
X52500000Y-68410026D01*
X52280054Y-68080853D01*
X51994422Y-67890000D01*
X52280054Y-67699147D01*
X52500000Y-67369974D01*
X52719946Y-67699147D01*
X52719946Y-67699147D01*
G37*
X52719946Y-67699147D02*
X53005578Y-67890000D01*
X52719946Y-68080853D01*
X52500000Y-68410026D01*
X52280054Y-68080853D01*
X51994422Y-67890000D01*
X52280054Y-67699147D01*
X52500000Y-67369974D01*
X52719946Y-67699147D01*
G36*
X28342480Y-54831428D02*
X28522482Y-55100820D01*
X18904468Y-64718834D01*
X18739721Y-64965396D01*
X18692674Y-65201917D01*
X18210000Y-65105907D01*
X17641715Y-65218946D01*
X17159946Y-65540853D01*
X16897781Y-65933211D01*
X16855010Y-65829697D01*
X16553473Y-65527633D01*
X27441672Y-54639434D01*
X28304290Y-54639434D01*
X28342480Y-54831428D01*
X28342480Y-54831428D01*
G37*
X28342480Y-54831428D02*
X28522482Y-55100820D01*
X18904468Y-64718834D01*
X18739721Y-64965396D01*
X18692674Y-65201917D01*
X18210000Y-65105907D01*
X17641715Y-65218946D01*
X17159946Y-65540853D01*
X16897781Y-65933211D01*
X16855010Y-65829697D01*
X16553473Y-65527633D01*
X27441672Y-54639434D01*
X28304290Y-54639434D01*
X28342480Y-54831428D01*
G36*
X22511869Y-65359160D02*
X22239946Y-65540853D01*
X22020000Y-65870026D01*
X21800054Y-65540853D01*
X21491869Y-65334931D01*
X21491869Y-65120351D01*
X22511869Y-64152791D01*
X22511869Y-65359160D01*
X22511869Y-65359160D01*
G37*
X22511869Y-65359160D02*
X22239946Y-65540853D01*
X22020000Y-65870026D01*
X21800054Y-65540853D01*
X21491869Y-65334931D01*
X21491869Y-65120351D01*
X22511869Y-64152791D01*
X22511869Y-65359160D01*
G36*
X38561869Y-65069237D02*
X38561869Y-65112246D01*
X38530000Y-65105907D01*
X37961715Y-65218946D01*
X37479946Y-65540853D01*
X37260000Y-65870026D01*
X37124248Y-65666858D01*
X37359270Y-65431836D01*
X37360385Y-65430167D01*
X37362047Y-65429044D01*
X37442673Y-65307015D01*
X37524017Y-65185274D01*
X37524409Y-65183305D01*
X37525514Y-65181632D01*
X37553313Y-65037995D01*
X37581869Y-64894435D01*
X37581478Y-64892468D01*
X37581859Y-64890497D01*
X37577686Y-64085054D01*
X38561869Y-65069237D01*
X38561869Y-65069237D01*
G37*
X38561869Y-65069237D02*
X38561869Y-65112246D01*
X38530000Y-65105907D01*
X37961715Y-65218946D01*
X37479946Y-65540853D01*
X37260000Y-65870026D01*
X37124248Y-65666858D01*
X37359270Y-65431836D01*
X37360385Y-65430167D01*
X37362047Y-65429044D01*
X37442673Y-65307015D01*
X37524017Y-65185274D01*
X37524409Y-65183305D01*
X37525514Y-65181632D01*
X37553313Y-65037995D01*
X37581869Y-64894435D01*
X37581478Y-64892468D01*
X37581859Y-64890497D01*
X37577686Y-64085054D01*
X38561869Y-65069237D01*
G36*
X45245937Y-65443305D02*
X45099946Y-65540853D01*
X44880000Y-65870026D01*
X44660054Y-65540853D01*
X44332277Y-65321840D01*
X44294017Y-65129496D01*
X44129270Y-64882934D01*
X40317269Y-61070933D01*
X40317269Y-60514637D01*
X45245937Y-65443305D01*
X45245937Y-65443305D01*
G37*
X45245937Y-65443305D02*
X45099946Y-65540853D01*
X44880000Y-65870026D01*
X44660054Y-65540853D01*
X44332277Y-65321840D01*
X44294017Y-65129496D01*
X44129270Y-64882934D01*
X40317269Y-61070933D01*
X40317269Y-60514637D01*
X45245937Y-65443305D01*
G36*
X30131869Y-65359160D02*
X29859946Y-65540853D01*
X29640000Y-65870026D01*
X29420054Y-65540853D01*
X29111869Y-65334931D01*
X29111869Y-62401437D01*
X30131869Y-61381437D01*
X30131869Y-65359160D01*
X30131869Y-65359160D01*
G37*
X30131869Y-65359160D02*
X29859946Y-65540853D01*
X29640000Y-65870026D01*
X29420054Y-65540853D01*
X29111869Y-65334931D01*
X29111869Y-62401437D01*
X30131869Y-61381437D01*
X30131869Y-65359160D01*
G36*
X56679628Y-65179431D02*
X56310000Y-65105907D01*
X55741715Y-65218946D01*
X55423683Y-65431447D01*
X45101727Y-55109491D01*
X45287522Y-54831428D01*
X45325712Y-54639434D01*
X46139632Y-54639434D01*
X56679628Y-65179431D01*
X56679628Y-65179431D01*
G37*
X56679628Y-65179431D02*
X56310000Y-65105907D01*
X55741715Y-65218946D01*
X55423683Y-65431447D01*
X45101727Y-55109491D01*
X45287522Y-54831428D01*
X45325712Y-54639434D01*
X46139632Y-54639434D01*
X56679628Y-65179431D01*
G36*
X35369369Y-64362133D02*
X34314579Y-65416923D01*
X34074559Y-65256547D01*
X35369369Y-63961737D01*
X35369369Y-64362133D01*
X35369369Y-64362133D01*
G37*
X35369369Y-64362133D02*
X34314579Y-65416923D01*
X34074559Y-65256547D01*
X35369369Y-63961737D01*
X35369369Y-64362133D01*
G36*
X34682469Y-62499033D02*
X31768585Y-65412917D01*
X31651869Y-65334931D01*
X31651869Y-61034137D01*
X34682469Y-58003537D01*
X34682469Y-62499033D01*
X34682469Y-62499033D01*
G37*
X34682469Y-62499033D02*
X31768585Y-65412917D01*
X31651869Y-65334931D01*
X31651869Y-61034137D01*
X34682469Y-58003537D01*
X34682469Y-62499033D01*
G36*
X48413532Y-65160900D02*
X48132555Y-65216790D01*
X48114017Y-65123596D01*
X47949270Y-64877034D01*
X41701869Y-58629633D01*
X41701869Y-58449237D01*
X48413532Y-65160900D01*
X48413532Y-65160900D01*
G37*
X48413532Y-65160900D02*
X48132555Y-65216790D01*
X48114017Y-65123596D01*
X47949270Y-64877034D01*
X41701869Y-58629633D01*
X41701869Y-58449237D01*
X48413532Y-65160900D01*
G36*
X26261869Y-65191811D02*
X25830000Y-65105907D01*
X25311869Y-65208970D01*
X25311869Y-63978937D01*
X26261869Y-63028937D01*
X26261869Y-65191811D01*
X26261869Y-65191811D01*
G37*
X26261869Y-65191811D02*
X25830000Y-65105907D01*
X25311869Y-65208970D01*
X25311869Y-63978937D01*
X26261869Y-63028937D01*
X26261869Y-65191811D01*
G36*
X51727997Y-65204965D02*
X51350016Y-65129780D01*
X43073169Y-56852933D01*
X43073169Y-56550137D01*
X51727997Y-65204965D01*
X51727997Y-65204965D01*
G37*
X51727997Y-65204965D02*
X51350016Y-65129780D01*
X43073169Y-56852933D01*
X43073169Y-56550137D01*
X51727997Y-65204965D01*
G36*
X41405218Y-65172586D02*
X41070000Y-65105907D01*
X40591869Y-65201013D01*
X40591869Y-64359237D01*
X41405218Y-65172586D01*
X41405218Y-65172586D01*
G37*
X41405218Y-65172586D02*
X41070000Y-65105907D01*
X40591869Y-65201013D01*
X40591869Y-64359237D01*
X41405218Y-65172586D01*
G36*
X28842480Y-52291428D02*
X28937227Y-52433227D01*
X28875558Y-52445494D01*
X28556001Y-52659015D01*
X28342480Y-52978572D01*
X28314461Y-53119434D01*
X27730368Y-53119434D01*
X28750368Y-52099434D01*
X28804290Y-52099434D01*
X28842480Y-52291428D01*
X28842480Y-52291428D01*
G37*
X28842480Y-52291428D02*
X28937227Y-52433227D01*
X28875558Y-52445494D01*
X28556001Y-52659015D01*
X28342480Y-52978572D01*
X28314461Y-53119434D01*
X27730368Y-53119434D01*
X28750368Y-52099434D01*
X28804290Y-52099434D01*
X28842480Y-52291428D01*
G36*
X45969632Y-53119434D02*
X45315541Y-53119434D01*
X45287522Y-52978572D01*
X45192775Y-52836773D01*
X45254444Y-52824506D01*
X45506372Y-52656174D01*
X45969632Y-53119434D01*
X45969632Y-53119434D01*
G37*
X45969632Y-53119434D02*
X45315541Y-53119434D01*
X45287522Y-52978572D01*
X45192775Y-52836773D01*
X45254444Y-52824506D01*
X45506372Y-52656174D01*
X45969632Y-53119434D01*
G36*
X68020853Y-57480054D02*
X68350026Y-57700000D01*
X68020853Y-57919946D01*
X67830000Y-58205578D01*
X67639147Y-57919946D01*
X67309974Y-57700000D01*
X67639147Y-57480054D01*
X67830000Y-57194422D01*
X68020853Y-57480054D01*
X68020853Y-57480054D01*
G37*
X68020853Y-57480054D02*
X68350026Y-57700000D01*
X68020853Y-57919946D01*
X67830000Y-58205578D01*
X67639147Y-57919946D01*
X67309974Y-57700000D01*
X67639147Y-57480054D01*
X67830000Y-57194422D01*
X68020853Y-57480054D01*
G36*
X64774399Y-55737401D02*
X65020960Y-55902148D01*
X65145958Y-55927012D01*
X65057337Y-56372535D01*
X54917878Y-46233076D01*
X55129004Y-46092006D01*
X64774399Y-55737401D01*
X64774399Y-55737401D01*
G37*
X64774399Y-55737401D02*
X65020960Y-55902148D01*
X65145958Y-55927012D01*
X65057337Y-56372535D01*
X54917878Y-46233076D01*
X55129004Y-46092006D01*
X64774399Y-55737401D01*
G36*
X65480853Y-52400054D02*
X65810026Y-52620000D01*
X65480853Y-52839946D01*
X65273682Y-53150000D01*
X65175916Y-53150000D01*
X64208356Y-52130000D01*
X65300409Y-52130000D01*
X65480853Y-52400054D01*
X65480853Y-52400054D01*
G37*
X65480853Y-52400054D02*
X65810026Y-52620000D01*
X65480853Y-52839946D01*
X65273682Y-53150000D01*
X65175916Y-53150000D01*
X64208356Y-52130000D01*
X65300409Y-52130000D01*
X65480853Y-52400054D01*
G36*
X68020853Y-52400054D02*
X68350026Y-52620000D01*
X68020853Y-52839946D01*
X67830000Y-53125578D01*
X67639147Y-52839946D01*
X67309974Y-52620000D01*
X67639147Y-52400054D01*
X67830000Y-52114422D01*
X68020853Y-52400054D01*
X68020853Y-52400054D01*
G37*
X68020853Y-52400054D02*
X68350026Y-52620000D01*
X68020853Y-52839946D01*
X67830000Y-53125578D01*
X67639147Y-52839946D01*
X67309974Y-52620000D01*
X67639147Y-52400054D01*
X67830000Y-52114422D01*
X68020853Y-52400054D01*
G36*
X65045907Y-48810000D02*
X65149342Y-49330000D01*
X64034502Y-49330000D01*
X63084502Y-48380000D01*
X65131439Y-48380000D01*
X65045907Y-48810000D01*
X65045907Y-48810000D01*
G37*
X65045907Y-48810000D02*
X65149342Y-49330000D01*
X64034502Y-49330000D01*
X63084502Y-48380000D01*
X65131439Y-48380000D01*
X65045907Y-48810000D01*
G36*
X65480853Y-44780054D02*
X65810026Y-45000000D01*
X65480853Y-45219946D01*
X65273682Y-45530000D01*
X62457002Y-45530000D01*
X61437002Y-44510000D01*
X65300409Y-44510000D01*
X65480853Y-44780054D01*
X65480853Y-44780054D01*
G37*
X65480853Y-44780054D02*
X65810026Y-45000000D01*
X65480853Y-45219946D01*
X65273682Y-45530000D01*
X62457002Y-45530000D01*
X61437002Y-44510000D01*
X65300409Y-44510000D01*
X65480853Y-44780054D01*
G36*
X68020853Y-44780054D02*
X68350026Y-45000000D01*
X68020853Y-45219946D01*
X67830000Y-45505578D01*
X67639147Y-45219946D01*
X67309974Y-45000000D01*
X67639147Y-44780054D01*
X67830000Y-44494422D01*
X68020853Y-44780054D01*
X68020853Y-44780054D01*
G37*
X68020853Y-44780054D02*
X68350026Y-45000000D01*
X68020853Y-45219946D01*
X67830000Y-45505578D01*
X67639147Y-45219946D01*
X67309974Y-45000000D01*
X67639147Y-44780054D01*
X67830000Y-44494422D01*
X68020853Y-44780054D01*
G36*
X65398458Y-42803260D02*
X65273682Y-42990000D01*
X61089702Y-42990000D01*
X58059102Y-39959400D01*
X62554598Y-39959400D01*
X65398458Y-42803260D01*
X65398458Y-42803260D01*
G37*
X65398458Y-42803260D02*
X65273682Y-42990000D01*
X61089702Y-42990000D01*
X58059102Y-39959400D01*
X62554598Y-39959400D01*
X65398458Y-42803260D01*
G36*
X65402463Y-40257265D02*
X65242087Y-40497285D01*
X64017302Y-39272500D01*
X64417698Y-39272500D01*
X65402463Y-40257265D01*
X65402463Y-40257265D01*
G37*
X65402463Y-40257265D02*
X65242087Y-40497285D01*
X64017302Y-39272500D01*
X64417698Y-39272500D01*
X65402463Y-40257265D01*
G36*
X68020853Y-37160054D02*
X68350026Y-37380000D01*
X68020853Y-37599946D01*
X67830000Y-37885578D01*
X67639147Y-37599946D01*
X67309974Y-37380000D01*
X67639147Y-37160054D01*
X67830000Y-36874422D01*
X68020853Y-37160054D01*
X68020853Y-37160054D01*
G37*
X68020853Y-37160054D02*
X68350026Y-37380000D01*
X68020853Y-37599946D01*
X67830000Y-37885578D01*
X67639147Y-37599946D01*
X67309974Y-37380000D01*
X67639147Y-37160054D01*
X67830000Y-36874422D01*
X68020853Y-37160054D01*
G36*
X65158946Y-36678285D02*
X65480853Y-37160054D01*
X65810026Y-37380000D01*
X65675014Y-37470212D01*
X65487401Y-37282599D01*
X65485732Y-37281484D01*
X65484609Y-37279822D01*
X65362580Y-37199196D01*
X65240839Y-37117852D01*
X65238870Y-37117460D01*
X65237197Y-37116355D01*
X65093560Y-37088556D01*
X64950000Y-37060000D01*
X64948033Y-37060391D01*
X64946062Y-37060010D01*
X64140619Y-37064183D01*
X65054019Y-36150783D01*
X65158946Y-36678285D01*
X65158946Y-36678285D01*
G37*
X65158946Y-36678285D02*
X65480853Y-37160054D01*
X65810026Y-37380000D01*
X65675014Y-37470212D01*
X65487401Y-37282599D01*
X65485732Y-37281484D01*
X65484609Y-37279822D01*
X65362580Y-37199196D01*
X65240839Y-37117852D01*
X65238870Y-37117460D01*
X65237197Y-37116355D01*
X65093560Y-37088556D01*
X64950000Y-37060000D01*
X64948033Y-37060391D01*
X64946062Y-37060010D01*
X64140619Y-37064183D01*
X65054019Y-36150783D01*
X65158946Y-36678285D01*
G36*
X65480853Y-29540054D02*
X65810026Y-29760000D01*
X65480853Y-29979946D01*
X65242686Y-30336390D01*
X65185061Y-30347852D01*
X64938499Y-30512599D01*
X61126498Y-34324600D01*
X60570202Y-34324600D01*
X65430342Y-29464460D01*
X65480853Y-29540054D01*
X65480853Y-29540054D01*
G37*
X65480853Y-29540054D02*
X65810026Y-29760000D01*
X65480853Y-29979946D01*
X65242686Y-30336390D01*
X65185061Y-30347852D01*
X64938499Y-30512599D01*
X61126498Y-34324600D01*
X60570202Y-34324600D01*
X65430342Y-29464460D01*
X65480853Y-29540054D01*
G36*
X65045907Y-33570000D02*
X65141385Y-34050000D01*
X64414802Y-34050000D01*
X65083427Y-33381375D01*
X65045907Y-33570000D01*
X65045907Y-33570000D01*
G37*
X65045907Y-33570000D02*
X65141385Y-34050000D01*
X64414802Y-34050000D01*
X65083427Y-33381375D01*
X65045907Y-33570000D01*
G36*
X65158946Y-26518285D02*
X65169605Y-26534237D01*
X64932599Y-26692599D01*
X58685198Y-32940000D01*
X58504802Y-32940000D01*
X65120384Y-26324418D01*
X65158946Y-26518285D01*
X65158946Y-26518285D01*
G37*
X65158946Y-26518285D02*
X65169605Y-26534237D01*
X64932599Y-26692599D01*
X58685198Y-32940000D01*
X58504802Y-32940000D01*
X65120384Y-26324418D01*
X65158946Y-26518285D01*
G36*
X65045907Y-23410000D02*
X65049439Y-23427759D01*
X56908498Y-31568700D01*
X56605702Y-31568700D01*
X65115806Y-23058596D01*
X65045907Y-23410000D01*
X65045907Y-23410000D01*
G37*
X65045907Y-23410000D02*
X65049439Y-23427759D01*
X56908498Y-31568700D01*
X56605702Y-31568700D01*
X65115806Y-23058596D01*
X65045907Y-23410000D01*
G36*
X68020853Y-29540054D02*
X68350026Y-29760000D01*
X68020853Y-29979946D01*
X67830000Y-30265578D01*
X67639147Y-29979946D01*
X67309974Y-29760000D01*
X67639147Y-29540054D01*
X67830000Y-29254422D01*
X68020853Y-29540054D01*
X68020853Y-29540054D01*
G37*
X68020853Y-29540054D02*
X68350026Y-29760000D01*
X68020853Y-29979946D01*
X67830000Y-30265578D01*
X67639147Y-29979946D01*
X67309974Y-29760000D01*
X67639147Y-29540054D01*
X67830000Y-29254422D01*
X68020853Y-29540054D01*
G36*
X65045907Y-18330000D02*
X65158946Y-18898285D01*
X65402788Y-19263220D01*
X55138145Y-29564102D01*
X54821429Y-29352479D01*
X54694999Y-29327330D01*
X54694999Y-28129803D01*
X65004802Y-17820000D01*
X65147352Y-17820000D01*
X65045907Y-18330000D01*
X65045907Y-18330000D01*
G37*
X65045907Y-18330000D02*
X65158946Y-18898285D01*
X65402788Y-19263220D01*
X55138145Y-29564102D01*
X54821429Y-29352479D01*
X54694999Y-29327330D01*
X54694999Y-28129803D01*
X65004802Y-17820000D01*
X65147352Y-17820000D01*
X65045907Y-18330000D01*
G36*
X53174999Y-29311418D02*
X52968573Y-29352479D01*
X52826774Y-29447226D01*
X52814507Y-29385557D01*
X52664198Y-29160604D01*
X53174999Y-28649803D01*
X53174999Y-29311418D01*
X53174999Y-29311418D01*
G37*
X53174999Y-29311418D02*
X52968573Y-29352479D01*
X52826774Y-29447226D01*
X52814507Y-29385557D01*
X52664198Y-29160604D01*
X53174999Y-28649803D01*
X53174999Y-29311418D01*
G36*
X68020853Y-21920054D02*
X68350026Y-22140000D01*
X68020853Y-22359946D01*
X67830000Y-22645578D01*
X67639147Y-22359946D01*
X67309974Y-22140000D01*
X67639147Y-21920054D01*
X67830000Y-21634422D01*
X68020853Y-21920054D01*
X68020853Y-21920054D01*
G37*
X68020853Y-21920054D02*
X68350026Y-22140000D01*
X68020853Y-22359946D01*
X67830000Y-22645578D01*
X67639147Y-22359946D01*
X67309974Y-22140000D01*
X67639147Y-21920054D01*
X67830000Y-21634422D01*
X68020853Y-21920054D01*
G36*
X19808573Y-45297521D02*
X19975001Y-45330626D01*
X19975001Y-45825197D01*
X9570174Y-56230024D01*
X9471054Y-55731715D01*
X9235548Y-55379254D01*
X19514065Y-45100737D01*
X19808573Y-45297521D01*
X19808573Y-45297521D01*
G37*
X19808573Y-45297521D02*
X19975001Y-45330626D01*
X19975001Y-45825197D01*
X9570174Y-56230024D01*
X9471054Y-55731715D01*
X9235548Y-55379254D01*
X19514065Y-45100737D01*
X19808573Y-45297521D01*
G36*
X6990853Y-52270054D02*
X7320026Y-52490000D01*
X6990853Y-52709946D01*
X6800000Y-52995578D01*
X6609147Y-52709946D01*
X6279974Y-52490000D01*
X6609147Y-52270054D01*
X6800000Y-51984422D01*
X6990853Y-52270054D01*
X6990853Y-52270054D01*
G37*
X6990853Y-52270054D02*
X7320026Y-52490000D01*
X6990853Y-52709946D01*
X6800000Y-52995578D01*
X6609147Y-52709946D01*
X6279974Y-52490000D01*
X6609147Y-52270054D01*
X6800000Y-51984422D01*
X6990853Y-52270054D01*
G36*
X9499296Y-51646302D02*
X9574481Y-51268321D01*
X17761502Y-43081300D01*
X18064298Y-43081300D01*
X9499296Y-51646302D01*
X9499296Y-51646302D01*
G37*
X9499296Y-51646302D02*
X9574481Y-51268321D01*
X17761502Y-43081300D01*
X18064298Y-43081300D01*
X9499296Y-51646302D01*
G36*
X9519571Y-48355627D02*
X9473803Y-48125537D01*
X9490839Y-48122148D01*
X9737401Y-47957401D01*
X15984802Y-41710000D01*
X16165198Y-41710000D01*
X9519571Y-48355627D01*
X9519571Y-48355627D01*
G37*
X9519571Y-48355627D02*
X9473803Y-48125537D01*
X9490839Y-48122148D01*
X9737401Y-47957401D01*
X15984802Y-41710000D01*
X16165198Y-41710000D01*
X9519571Y-48355627D01*
G36*
X6990853Y-44650054D02*
X7320026Y-44870000D01*
X6990853Y-45089946D01*
X6800000Y-45375578D01*
X6609147Y-45089946D01*
X6279974Y-44870000D01*
X6609147Y-44650054D01*
X6800000Y-44364422D01*
X6990853Y-44650054D01*
X6990853Y-44650054D01*
G37*
X6990853Y-44650054D02*
X7320026Y-44870000D01*
X6990853Y-45089946D01*
X6800000Y-45375578D01*
X6609147Y-45089946D01*
X6279974Y-44870000D01*
X6609147Y-44650054D01*
X6800000Y-44364422D01*
X6990853Y-44650054D01*
G36*
X9223690Y-45201508D02*
X9149147Y-45089946D01*
X8819974Y-44870000D01*
X9149147Y-44650054D01*
X9365771Y-44325852D01*
X9484939Y-44302148D01*
X9731501Y-44137401D01*
X13543502Y-40325400D01*
X14099798Y-40325400D01*
X9223690Y-45201508D01*
X9223690Y-45201508D01*
G37*
X9223690Y-45201508D02*
X9149147Y-45089946D01*
X8819974Y-44870000D01*
X9149147Y-44650054D01*
X9365771Y-44325852D01*
X9484939Y-44302148D01*
X9731501Y-44137401D01*
X13543502Y-40325400D01*
X14099798Y-40325400D01*
X9223690Y-45201508D01*
G36*
X9531675Y-41323523D02*
X9584093Y-41060000D01*
X9492593Y-40600000D01*
X10255198Y-40600000D01*
X9531675Y-41323523D01*
X9531675Y-41323523D01*
G37*
X9531675Y-41323523D02*
X9584093Y-41060000D01*
X9492593Y-40600000D01*
X10255198Y-40600000D01*
X9531675Y-41323523D01*
G36*
X9182599Y-37367401D02*
X9184268Y-37368516D01*
X9185391Y-37370178D01*
X9307420Y-37450804D01*
X9429161Y-37532148D01*
X9431130Y-37532540D01*
X9432803Y-37533645D01*
X9576440Y-37561444D01*
X9720000Y-37590000D01*
X9721967Y-37589609D01*
X9723938Y-37589990D01*
X10529381Y-37585817D01*
X9581336Y-38533862D01*
X9584093Y-38520000D01*
X9471054Y-37951715D01*
X9149147Y-37469946D01*
X8819974Y-37250000D01*
X8966975Y-37151777D01*
X9182599Y-37367401D01*
X9182599Y-37367401D01*
G37*
X9182599Y-37367401D02*
X9184268Y-37368516D01*
X9185391Y-37370178D01*
X9307420Y-37450804D01*
X9429161Y-37532148D01*
X9431130Y-37532540D01*
X9432803Y-37533645D01*
X9576440Y-37561444D01*
X9720000Y-37590000D01*
X9721967Y-37589609D01*
X9723938Y-37589990D01*
X10529381Y-37585817D01*
X9581336Y-38533862D01*
X9584093Y-38520000D01*
X9471054Y-37951715D01*
X9149147Y-37469946D01*
X8819974Y-37250000D01*
X8966975Y-37151777D01*
X9182599Y-37367401D01*
G36*
X6990853Y-37030054D02*
X7320026Y-37250000D01*
X6990853Y-37469946D01*
X6800000Y-37755578D01*
X6609147Y-37469946D01*
X6279974Y-37250000D01*
X6609147Y-37030054D01*
X6800000Y-36744422D01*
X6990853Y-37030054D01*
X6990853Y-37030054D01*
G37*
X6990853Y-37030054D02*
X7320026Y-37250000D01*
X6990853Y-37469946D01*
X6800000Y-37755578D01*
X6609147Y-37469946D01*
X6279974Y-37250000D01*
X6609147Y-37030054D01*
X6800000Y-36744422D01*
X6990853Y-37030054D01*
G36*
X10652698Y-35377500D02*
X10252302Y-35377500D01*
X9235548Y-34360746D01*
X9395924Y-34120726D01*
X10652698Y-35377500D01*
X10652698Y-35377500D01*
G37*
X10652698Y-35377500D02*
X10252302Y-35377500D01*
X9235548Y-34360746D01*
X9395924Y-34120726D01*
X10652698Y-35377500D01*
G36*
X16610898Y-34690600D02*
X12115402Y-34690600D01*
X9239553Y-31814751D01*
X9342954Y-31660000D01*
X13580298Y-31660000D01*
X16610898Y-34690600D01*
X16610898Y-34690600D01*
G37*
X16610898Y-34690600D02*
X12115402Y-34690600D01*
X9239553Y-31814751D01*
X9342954Y-31660000D01*
X13580298Y-31660000D01*
X16610898Y-34690600D01*
G36*
X13232998Y-30140000D02*
X9342954Y-30140000D01*
X9149147Y-29849946D01*
X8819974Y-29630000D01*
X9149147Y-29410054D01*
X9342954Y-29120000D01*
X12212998Y-29120000D01*
X13232998Y-30140000D01*
X13232998Y-30140000D01*
G37*
X13232998Y-30140000D02*
X9342954Y-30140000D01*
X9149147Y-29849946D01*
X8819974Y-29630000D01*
X9149147Y-29410054D01*
X9342954Y-29120000D01*
X12212998Y-29120000D01*
X13232998Y-30140000D01*
G36*
X6990853Y-29410054D02*
X7320026Y-29630000D01*
X6990853Y-29849946D01*
X6800000Y-30135578D01*
X6609147Y-29849946D01*
X6279974Y-29630000D01*
X6609147Y-29410054D01*
X6800000Y-29124422D01*
X6990853Y-29410054D01*
X6990853Y-29410054D01*
G37*
X6990853Y-29410054D02*
X7320026Y-29630000D01*
X6990853Y-29849946D01*
X6800000Y-30135578D01*
X6609147Y-29849946D01*
X6279974Y-29630000D01*
X6609147Y-29410054D01*
X6800000Y-29124422D01*
X6990853Y-29410054D01*
G36*
X19640188Y-28464990D02*
X19524975Y-28541973D01*
X9895601Y-18912599D01*
X9649039Y-18747852D01*
X9481738Y-18714573D01*
X9549435Y-18374237D01*
X19640188Y-28464990D01*
X19640188Y-28464990D01*
G37*
X19640188Y-28464990D02*
X19524975Y-28541973D01*
X9895601Y-18912599D01*
X9649039Y-18747852D01*
X9481738Y-18714573D01*
X9549435Y-18374237D01*
X19640188Y-28464990D01*
G36*
X11585498Y-26270000D02*
X9494582Y-26270000D01*
X9584093Y-25820000D01*
X9484637Y-25320000D01*
X10635498Y-25320000D01*
X11585498Y-26270000D01*
X11585498Y-26270000D01*
G37*
X11585498Y-26270000D02*
X9494582Y-26270000D01*
X9584093Y-25820000D01*
X9484637Y-25320000D01*
X10635498Y-25320000D01*
X11585498Y-26270000D01*
G36*
X10461644Y-22520000D02*
X9342954Y-22520000D01*
X9149147Y-22229946D01*
X8819974Y-22010000D01*
X9149147Y-21790054D01*
X9342954Y-21500000D01*
X9494084Y-21500000D01*
X10461644Y-22520000D01*
X10461644Y-22520000D01*
G37*
X10461644Y-22520000D02*
X9342954Y-22520000D01*
X9149147Y-22229946D01*
X8819974Y-22010000D01*
X9149147Y-21790054D01*
X9342954Y-21500000D01*
X9494084Y-21500000D01*
X10461644Y-22520000D01*
G36*
X6990853Y-21790054D02*
X7320026Y-22010000D01*
X6990853Y-22229946D01*
X6800000Y-22515578D01*
X6609147Y-22229946D01*
X6279974Y-22010000D01*
X6609147Y-21790054D01*
X6800000Y-21504422D01*
X6990853Y-21790054D01*
X6990853Y-21790054D01*
G37*
X6990853Y-21790054D02*
X7320026Y-22010000D01*
X6990853Y-22229946D01*
X6800000Y-22515578D01*
X6609147Y-22229946D01*
X6279974Y-22010000D01*
X6609147Y-21790054D01*
X6800000Y-21504422D01*
X6990853Y-21790054D01*
G36*
X6616838Y-16745317D02*
X6755910Y-16961441D01*
X6968110Y-17106431D01*
X7035541Y-17120086D01*
X6990853Y-17149946D01*
X6800000Y-17435578D01*
X6609147Y-17149946D01*
X6279974Y-16930000D01*
X6609147Y-16710054D01*
X6609971Y-16708821D01*
X6616838Y-16745317D01*
X6616838Y-16745317D01*
G37*
X6616838Y-16745317D02*
X6755910Y-16961441D01*
X6968110Y-17106431D01*
X7035541Y-17120086D01*
X6990853Y-17149946D01*
X6800000Y-17435578D01*
X6609147Y-17149946D01*
X6279974Y-16930000D01*
X6609147Y-16710054D01*
X6609971Y-16708821D01*
X6616838Y-16745317D01*
G36*
X46465197Y-22510001D02*
X45817643Y-22510001D01*
X45787522Y-22358572D01*
X45692775Y-22216773D01*
X45754444Y-22204506D01*
X46074001Y-21990985D01*
X46287522Y-21671428D01*
X46323610Y-21490001D01*
X47485197Y-21490001D01*
X46465197Y-22510001D01*
X46465197Y-22510001D01*
G37*
X46465197Y-22510001D02*
X45817643Y-22510001D01*
X45787522Y-22358572D01*
X45692775Y-22216773D01*
X45754444Y-22204506D01*
X46074001Y-21990985D01*
X46287522Y-21671428D01*
X46323610Y-21490001D01*
X47485197Y-21490001D01*
X46465197Y-22510001D01*
G36*
X29342480Y-21671428D02*
X29437227Y-21813227D01*
X29375558Y-21825494D01*
X29056001Y-22039015D01*
X28878887Y-22304085D01*
X28064803Y-21490001D01*
X29306392Y-21490001D01*
X29342480Y-21671428D01*
X29342480Y-21671428D01*
G37*
X29342480Y-21671428D02*
X29437227Y-21813227D01*
X29375558Y-21825494D01*
X29056001Y-22039015D01*
X28878887Y-22304085D01*
X28064803Y-21490001D01*
X29306392Y-21490001D01*
X29342480Y-21671428D01*
G36*
X57664990Y-8870303D02*
X57974672Y-9180526D01*
X47185197Y-19970001D01*
X46317643Y-19970001D01*
X46287522Y-19818572D01*
X46090017Y-19522985D01*
X55597401Y-10015601D01*
X55762148Y-9769039D01*
X55816474Y-9495925D01*
X56310000Y-9594093D01*
X56878285Y-9481054D01*
X57360054Y-9159147D01*
X57622219Y-8766789D01*
X57664990Y-8870303D01*
X57664990Y-8870303D01*
G37*
X57664990Y-8870303D02*
X57974672Y-9180526D01*
X47185197Y-19970001D01*
X46317643Y-19970001D01*
X46287522Y-19818572D01*
X46090017Y-19522985D01*
X55597401Y-10015601D01*
X55762148Y-9769039D01*
X55816474Y-9495925D01*
X56310000Y-9594093D01*
X56878285Y-9481054D01*
X57360054Y-9159147D01*
X57622219Y-8766789D01*
X57664990Y-8870303D01*
G36*
X18737852Y-9570839D02*
X18902599Y-9817401D01*
X20182599Y-11097401D01*
X20429160Y-11262148D01*
X20720000Y-11320000D01*
X21340198Y-11320000D01*
X29541266Y-19521068D01*
X29342480Y-19818572D01*
X29312359Y-19970001D01*
X28019803Y-19970001D01*
X17720000Y-9670198D01*
X17720000Y-9496626D01*
X18210000Y-9594093D01*
X18722211Y-9492208D01*
X18737852Y-9570839D01*
X18737852Y-9570839D01*
G37*
X18737852Y-9570839D02*
X18902599Y-9817401D01*
X20182599Y-11097401D01*
X20429160Y-11262148D01*
X20720000Y-11320000D01*
X21340198Y-11320000D01*
X29541266Y-19521068D01*
X29342480Y-19818572D01*
X29312359Y-19970001D01*
X28019803Y-19970001D01*
X17720000Y-9670198D01*
X17720000Y-9496626D01*
X18210000Y-9594093D01*
X18722211Y-9492208D01*
X18737852Y-9570839D01*
G36*
X23290000Y-9594093D02*
X23374486Y-9577288D01*
X31553700Y-17756502D01*
X31553700Y-18059298D01*
X23038461Y-9544059D01*
X23290000Y-9594093D01*
X23290000Y-9594093D01*
G37*
X23290000Y-9594093D02*
X23374486Y-9577288D01*
X31553700Y-17756502D01*
X31553700Y-18059298D01*
X23038461Y-9544059D01*
X23290000Y-9594093D01*
G36*
X42845000Y-9349614D02*
X42845000Y-13705298D01*
X39944400Y-16605898D01*
X39944400Y-12110402D01*
X42761189Y-9293613D01*
X42845000Y-9349614D01*
X42845000Y-9349614D01*
G37*
X42845000Y-9349614D02*
X42845000Y-13705298D01*
X39944400Y-16605898D01*
X39944400Y-12110402D01*
X42761189Y-9293613D01*
X42845000Y-9349614D01*
G36*
X26582599Y-9637401D02*
X32925000Y-15979802D01*
X32925000Y-16160198D01*
X26271146Y-9506344D01*
X26398285Y-9481054D01*
X26453486Y-9444170D01*
X26582599Y-9637401D01*
X26582599Y-9637401D01*
G37*
X26582599Y-9637401D02*
X32925000Y-15979802D01*
X32925000Y-16160198D01*
X26271146Y-9506344D01*
X26398285Y-9481054D01*
X26453486Y-9444170D01*
X26582599Y-9637401D01*
G36*
X29859946Y-9159147D02*
X30234134Y-9409171D01*
X30342599Y-9571501D01*
X34309600Y-13538502D01*
X34309600Y-14094798D01*
X29392416Y-9177614D01*
X29420054Y-9159147D01*
X29640000Y-8829974D01*
X29859946Y-9159147D01*
X29859946Y-9159147D01*
G37*
X29859946Y-9159147D02*
X30234134Y-9409171D01*
X30342599Y-9571501D01*
X34309600Y-13538502D01*
X34309600Y-14094798D01*
X29392416Y-9177614D01*
X29420054Y-9159147D01*
X29640000Y-8829974D01*
X29859946Y-9159147D01*
G36*
X45099946Y-9159147D02*
X45515000Y-9436477D01*
X45515000Y-12207998D01*
X44365000Y-13357998D01*
X44365000Y-9356295D01*
X44660054Y-9159147D01*
X44880000Y-8829974D01*
X45099946Y-9159147D01*
X45099946Y-9159147D01*
G37*
X45099946Y-9159147D02*
X45515000Y-9436477D01*
X45515000Y-12207998D01*
X44365000Y-13357998D01*
X44365000Y-9356295D01*
X44660054Y-9159147D01*
X44880000Y-8829974D01*
X45099946Y-9159147D01*
G36*
X49260000Y-10685498D02*
X48200000Y-11745498D01*
X48200000Y-9496626D01*
X48690000Y-9594093D01*
X49258285Y-9481054D01*
X49260000Y-9479908D01*
X49260000Y-10685498D01*
X49260000Y-10685498D01*
G37*
X49260000Y-10685498D02*
X48200000Y-11745498D01*
X48200000Y-9496626D01*
X48690000Y-9594093D01*
X49258285Y-9481054D01*
X49260000Y-9479908D01*
X49260000Y-10685498D01*
G36*
X40455215Y-9449983D02*
X39257500Y-10647698D01*
X39257500Y-10247302D01*
X40215194Y-9289608D01*
X40455215Y-9449983D01*
X40455215Y-9449983D01*
G37*
X40455215Y-9449983D02*
X39257500Y-10647698D01*
X39257500Y-10247302D01*
X40215194Y-9289608D01*
X40455215Y-9449983D01*
G36*
X37402283Y-9042915D02*
X37267599Y-9177599D01*
X37266484Y-9179268D01*
X37264822Y-9180391D01*
X37184196Y-9302420D01*
X37102852Y-9424161D01*
X37102460Y-9426130D01*
X37101355Y-9427803D01*
X37073556Y-9571440D01*
X37045000Y-9715000D01*
X37045391Y-9716967D01*
X37045010Y-9718938D01*
X37049183Y-10524381D01*
X36750000Y-10225198D01*
X36750000Y-9352954D01*
X37040054Y-9159147D01*
X37260000Y-8829974D01*
X37402283Y-9042915D01*
X37402283Y-9042915D01*
G37*
X37402283Y-9042915D02*
X37267599Y-9177599D01*
X37266484Y-9179268D01*
X37264822Y-9180391D01*
X37184196Y-9302420D01*
X37102852Y-9424161D01*
X37102460Y-9426130D01*
X37101355Y-9427803D01*
X37073556Y-9571440D01*
X37045000Y-9715000D01*
X37045391Y-9716967D01*
X37045010Y-9718938D01*
X37049183Y-10524381D01*
X36750000Y-10225198D01*
X36750000Y-9352954D01*
X37040054Y-9159147D01*
X37260000Y-8829974D01*
X37402283Y-9042915D01*
G36*
X33910000Y-10125198D02*
X33361239Y-9576437D01*
X33450000Y-9594093D01*
X33910000Y-9502593D01*
X33910000Y-10125198D01*
X33910000Y-10125198D01*
G37*
X33910000Y-10125198D02*
X33361239Y-9576437D01*
X33450000Y-9594093D01*
X33910000Y-9502593D01*
X33910000Y-10125198D01*
G36*
X52719946Y-9159147D02*
X52849492Y-9245707D01*
X52756148Y-9339051D01*
X52745899Y-9345899D01*
X51990000Y-10101798D01*
X51990000Y-9352954D01*
X52280054Y-9159147D01*
X52500000Y-8829974D01*
X52719946Y-9159147D01*
X52719946Y-9159147D01*
G37*
X52719946Y-9159147D02*
X52849492Y-9245707D01*
X52756148Y-9339051D01*
X52745899Y-9345899D01*
X51990000Y-10101798D01*
X51990000Y-9352954D01*
X52280054Y-9159147D01*
X52500000Y-8829974D01*
X52719946Y-9159147D01*
G36*
X21144798Y-9800000D02*
X21034802Y-9800000D01*
X20815805Y-9581003D01*
X20907552Y-9562754D01*
X21144798Y-9800000D01*
X21144798Y-9800000D01*
G37*
X21144798Y-9800000D02*
X21034802Y-9800000D01*
X20815805Y-9581003D01*
X20907552Y-9562754D01*
X21144798Y-9800000D01*
G36*
X60425000Y-8199802D02*
X60425000Y-8550198D01*
X59655000Y-9320198D01*
X59655000Y-9250339D01*
X60033629Y-8872370D01*
X60246757Y-8359100D01*
X60247051Y-8021853D01*
X60425000Y-8199802D01*
X60425000Y-8199802D01*
G37*
X60425000Y-8199802D02*
X60425000Y-8550198D01*
X59655000Y-9320198D01*
X59655000Y-9250339D01*
X60033629Y-8872370D01*
X60246757Y-8359100D01*
X60247051Y-8021853D01*
X60425000Y-8199802D01*
G36*
X57664990Y-6330303D02*
X58057630Y-6723629D01*
X58265512Y-6809949D01*
X58059697Y-6894990D01*
X57666371Y-7287630D01*
X57622411Y-7393498D01*
X57360054Y-7000853D01*
X57074422Y-6810000D01*
X57360054Y-6619147D01*
X57622219Y-6226789D01*
X57664990Y-6330303D01*
X57664990Y-6330303D01*
G37*
X57664990Y-6330303D02*
X58057630Y-6723629D01*
X58265512Y-6809949D01*
X58059697Y-6894990D01*
X57666371Y-7287630D01*
X57622411Y-7393498D01*
X57360054Y-7000853D01*
X57074422Y-6810000D01*
X57360054Y-6619147D01*
X57622219Y-6226789D01*
X57664990Y-6330303D01*
G36*
X37479946Y-6619147D02*
X37765578Y-6810000D01*
X37479946Y-7000853D01*
X37260000Y-7330026D01*
X37040054Y-7000853D01*
X36754422Y-6810000D01*
X37040054Y-6619147D01*
X37260000Y-6289974D01*
X37479946Y-6619147D01*
X37479946Y-6619147D01*
G37*
X37479946Y-6619147D02*
X37765578Y-6810000D01*
X37479946Y-7000853D01*
X37260000Y-7330026D01*
X37040054Y-7000853D01*
X36754422Y-6810000D01*
X37040054Y-6619147D01*
X37260000Y-6289974D01*
X37479946Y-6619147D01*
G36*
X22239946Y-6619147D02*
X22525578Y-6810000D01*
X22239946Y-7000853D01*
X22020000Y-7330026D01*
X21800054Y-7000853D01*
X21514422Y-6810000D01*
X21800054Y-6619147D01*
X22020000Y-6289974D01*
X22239946Y-6619147D01*
X22239946Y-6619147D01*
G37*
X22239946Y-6619147D02*
X22525578Y-6810000D01*
X22239946Y-7000853D01*
X22020000Y-7330026D01*
X21800054Y-7000853D01*
X21514422Y-6810000D01*
X21800054Y-6619147D01*
X22020000Y-6289974D01*
X22239946Y-6619147D01*
G36*
X29859946Y-6619147D02*
X30145578Y-6810000D01*
X29859946Y-7000853D01*
X29640000Y-7330026D01*
X29420054Y-7000853D01*
X29134422Y-6810000D01*
X29420054Y-6619147D01*
X29640000Y-6289974D01*
X29859946Y-6619147D01*
X29859946Y-6619147D01*
G37*
X29859946Y-6619147D02*
X30145578Y-6810000D01*
X29859946Y-7000853D01*
X29640000Y-7330026D01*
X29420054Y-7000853D01*
X29134422Y-6810000D01*
X29420054Y-6619147D01*
X29640000Y-6289974D01*
X29859946Y-6619147D01*
G36*
X45099946Y-6619147D02*
X45385578Y-6810000D01*
X45099946Y-7000853D01*
X44880000Y-7330026D01*
X44660054Y-7000853D01*
X44374422Y-6810000D01*
X44660054Y-6619147D01*
X44880000Y-6289974D01*
X45099946Y-6619147D01*
X45099946Y-6619147D01*
G37*
X45099946Y-6619147D02*
X45385578Y-6810000D01*
X45099946Y-7000853D01*
X44880000Y-7330026D01*
X44660054Y-7000853D01*
X44374422Y-6810000D01*
X44660054Y-6619147D01*
X44880000Y-6289974D01*
X45099946Y-6619147D01*
G36*
X52719946Y-6619147D02*
X53005578Y-6810000D01*
X52719946Y-7000853D01*
X52500000Y-7330026D01*
X52280054Y-7000853D01*
X51994422Y-6810000D01*
X52280054Y-6619147D01*
X52500000Y-6289974D01*
X52719946Y-6619147D01*
X52719946Y-6619147D01*
G37*
X52719946Y-6619147D02*
X53005578Y-6810000D01*
X52719946Y-7000853D01*
X52500000Y-7330026D01*
X52280054Y-7000853D01*
X51994422Y-6810000D01*
X52280054Y-6619147D01*
X52500000Y-6289974D01*
X52719946Y-6619147D01*
M02*
