M48
;DRILL file {KiCad 4.0.7} date 11/27/17 18:36:09
;FORMAT={-:-/ absolute / metric / decimal}
FMAT,2
METRIC,TZ
T1C0.500
T2C0.762
T3C1.000
T4C3.200
%
G90
G05
M71
T1
X21.335Y-29.912
X21.335Y-31.287
X21.335Y-32.663
X21.335Y-34.038
X21.335Y-35.413
X21.335Y-36.788
X21.335Y-38.163
X21.335Y-39.538
X21.335Y-40.913
X21.335Y-42.288
X21.335Y-43.663
X21.335Y-45.038
X23.875Y-30.412
X23.875Y-31.787
X23.875Y-33.163
X23.875Y-34.538
X23.875Y-35.913
X23.875Y-37.288
X23.875Y-38.663
X23.875Y-40.038
X23.875Y-41.413
X23.875Y-42.788
X23.875Y-44.163
X23.875Y-45.538
X26.415Y-30.912
X26.415Y-32.288
X26.415Y-33.663
X26.415Y-35.038
X26.415Y-36.413
X26.415Y-37.788
X26.415Y-39.163
X26.415Y-40.538
X26.415Y-41.913
X26.415Y-43.288
X26.415Y-44.663
X26.415Y-46.038
X29.853Y-26.475
X29.853Y-54.555
X30.353Y-23.935
X30.353Y-52.015
X30.853Y-21.395
X30.853Y-49.475
X31.228Y-26.475
X31.228Y-54.555
X31.728Y-23.935
X31.728Y-52.015
X32.228Y-21.395
X32.228Y-49.475
X32.603Y-26.475
X32.603Y-54.555
X33.103Y-23.935
X33.103Y-52.015
X33.603Y-21.395
X33.603Y-49.475
X33.978Y-26.475
X33.978Y-54.555
X34.478Y-23.935
X34.478Y-52.015
X34.978Y-21.395
X34.978Y-49.475
X35.353Y-26.475
X35.353Y-54.555
X35.853Y-23.935
X35.853Y-52.015
X36.353Y-21.395
X36.353Y-49.475
X36.728Y-26.475
X36.728Y-54.555
X37.228Y-23.935
X37.228Y-52.015
X37.728Y-21.395
X37.728Y-49.475
X38.103Y-26.475
X38.103Y-54.555
X38.603Y-23.935
X38.603Y-52.015
X39.103Y-21.395
X39.103Y-49.475
X39.478Y-26.475
X39.478Y-54.555
X39.978Y-23.935
X39.978Y-52.015
X40.478Y-21.395
X40.478Y-49.475
X40.853Y-26.475
X40.853Y-54.555
X41.353Y-23.935
X41.353Y-52.015
X41.853Y-21.395
X41.853Y-49.475
X42.228Y-26.475
X42.228Y-54.555
X42.728Y-23.935
X42.728Y-52.015
X43.228Y-21.395
X43.228Y-49.475
X43.603Y-26.475
X43.603Y-54.555
X44.103Y-23.935
X44.103Y-52.015
X44.603Y-21.395
X44.603Y-49.475
X44.978Y-26.475
X44.978Y-54.555
X45.478Y-23.935
X45.478Y-52.015
X45.978Y-21.395
X45.978Y-49.475
X49.415Y-29.912
X49.415Y-31.287
X49.415Y-32.663
X49.415Y-34.038
X49.415Y-35.413
X49.415Y-36.788
X49.415Y-38.163
X49.415Y-39.538
X49.415Y-40.913
X49.415Y-42.288
X49.415Y-43.663
X49.415Y-45.038
X51.955Y-30.412
X51.955Y-31.787
X51.955Y-33.163
X51.955Y-34.538
X51.955Y-35.913
X51.955Y-37.288
X51.955Y-38.663
X51.955Y-40.038
X51.955Y-41.413
X51.955Y-42.788
X51.955Y-44.163
X51.955Y-45.538
X54.495Y-30.912
X54.495Y-32.288
X54.495Y-33.663
X54.495Y-35.038
X54.495Y-36.413
X54.495Y-37.788
X54.495Y-39.163
X54.495Y-40.538
X54.495Y-41.913
X54.495Y-43.288
X54.495Y-44.663
X54.495Y-46.038
T2
X16.27Y-69.81
X59.45Y-6.19
X67.16Y-16.44
T3
X6.13Y-16.31
X6.13Y-18.85
X6.13Y-21.39
X6.13Y-23.93
X6.13Y-26.47
X6.13Y-29.01
X6.13Y-31.55
X6.13Y-34.09
X6.13Y-36.63
X6.13Y-39.17
X6.13Y-41.71
X6.13Y-44.25
X6.13Y-46.79
X6.13Y-49.33
X6.13Y-51.87
X6.13Y-54.41
X6.13Y-56.95
X6.13Y-59.49
X8.67Y-16.31
X8.67Y-18.85
X8.67Y-21.39
X8.67Y-23.93
X8.67Y-26.47
X8.67Y-29.01
X8.67Y-31.55
X8.67Y-34.09
X8.67Y-36.63
X8.67Y-39.17
X8.67Y-41.71
X8.67Y-44.25
X8.67Y-46.79
X8.67Y-49.33
X8.67Y-51.87
X8.67Y-54.41
X8.67Y-56.95
X8.67Y-59.49
X16.27Y-6.19
X16.27Y-8.73
X16.27Y-67.27
X18.81Y-6.19
X18.81Y-8.73
X18.81Y-67.27
X18.81Y-69.81
X21.35Y-6.19
X21.35Y-8.73
X21.35Y-67.27
X21.35Y-69.81
X23.89Y-6.19
X23.89Y-8.73
X23.89Y-67.27
X23.89Y-69.81
X26.43Y-6.19
X26.43Y-8.73
X26.43Y-67.27
X26.43Y-69.81
X28.97Y-6.19
X28.97Y-8.73
X28.97Y-67.27
X28.97Y-69.81
X31.51Y-6.19
X31.51Y-8.73
X31.51Y-67.27
X31.51Y-69.81
X34.05Y-6.19
X34.05Y-8.73
X34.05Y-67.27
X34.05Y-69.81
X36.59Y-6.19
X36.59Y-8.73
X36.59Y-67.27
X36.59Y-69.81
X39.13Y-6.19
X39.13Y-8.73
X39.13Y-67.27
X39.13Y-69.81
X41.67Y-6.19
X41.67Y-8.73
X41.67Y-67.27
X41.67Y-69.81
X44.21Y-6.19
X44.21Y-8.73
X44.21Y-67.27
X44.21Y-69.81
X46.75Y-6.19
X46.75Y-8.73
X46.75Y-67.27
X46.75Y-69.81
X49.29Y-6.19
X49.29Y-8.73
X49.29Y-67.27
X49.29Y-69.81
X51.83Y-6.19
X51.83Y-8.73
X51.83Y-67.27
X51.83Y-69.81
X54.37Y-6.19
X54.37Y-8.73
X54.37Y-67.27
X54.37Y-69.81
X56.91Y-6.19
X56.91Y-8.73
X56.91Y-67.27
X56.91Y-69.81
X59.45Y-8.73
X59.45Y-67.27
X59.45Y-69.81
X67.16Y-18.98
X67.16Y-21.52
X67.16Y-24.06
X67.16Y-26.6
X67.16Y-29.14
X67.16Y-31.68
X67.16Y-34.22
X67.16Y-36.76
X67.16Y-39.3
X67.16Y-41.84
X67.16Y-44.38
X67.16Y-46.92
X67.16Y-49.46
X67.16Y-52.
X67.16Y-54.54
X67.16Y-57.08
X67.16Y-59.62
X69.7Y-16.44
X69.7Y-18.98
X69.7Y-21.52
X69.7Y-24.06
X69.7Y-26.6
X69.7Y-29.14
X69.7Y-31.68
X69.7Y-34.22
X69.7Y-36.76
X69.7Y-39.3
X69.7Y-41.84
X69.7Y-44.38
X69.7Y-46.92
X69.7Y-49.46
X69.7Y-52.
X69.7Y-54.54
X69.7Y-57.08
X69.7Y-59.62
T4
X21.915Y-21.975
X21.915Y-53.975
X53.915Y-21.975
X53.915Y-53.975
T0
M30
