%TF.GenerationSoftware,KiCad,Pcbnew,4.0.7*%
%TF.CreationDate,2017-11-27T18:36:11+08:00*%
%TF.ProjectId,ic51,696335312E6B696361645F7063620000,rev?*%
%TF.FileFunction,Legend,Top*%
%FSLAX46Y46*%
G04 Gerber Fmt 4.6, Leading zero omitted, Abs format (unit mm)*
G04 Created by KiCad (PCBNEW 4.0.7) date 11/27/17 18:36:11*
%MOMM*%
%LPD*%
G01*
G04 APERTURE LIST*
%ADD10C,0.100000*%
%ADD11C,0.200000*%
%ADD12C,0.150000*%
%ADD13C,0.120000*%
G04 APERTURE END LIST*
D10*
D11*
X9225000Y-12325000D02*
X8975000Y-12400000D01*
X8825000Y-12175000D02*
X9225000Y-12325000D01*
X9325000Y-12125000D02*
X8825000Y-12175000D01*
X9100000Y-12675000D02*
X9325000Y-12125000D01*
X8725000Y-12100000D02*
X9100000Y-12675000D01*
X9000000Y-12900000D02*
X8725000Y-12100000D01*
X8550000Y-12100000D02*
X9000000Y-12900000D01*
X8925000Y-13150000D02*
X8550000Y-12100000D01*
X9475000Y-12100000D02*
X8925000Y-13150000D01*
X8975000Y-13325000D02*
X9475000Y-12100000D01*
X8325000Y-12050000D02*
X8975000Y-13325000D01*
X8900000Y-13550000D02*
X8150000Y-12050000D01*
X9650000Y-12050000D02*
X8900000Y-13550000D01*
X8150000Y-12050000D02*
X9650000Y-12050000D01*
X62880476Y-59172381D02*
X63547143Y-59172381D01*
X63118571Y-60172381D01*
X63832857Y-59172381D02*
X64451905Y-59172381D01*
X64118571Y-59553333D01*
X64261429Y-59553333D01*
X64356667Y-59600952D01*
X64404286Y-59648571D01*
X64451905Y-59743810D01*
X64451905Y-59981905D01*
X64404286Y-60077143D01*
X64356667Y-60124762D01*
X64261429Y-60172381D01*
X63975714Y-60172381D01*
X63880476Y-60124762D01*
X63832857Y-60077143D01*
X62880476Y-56632381D02*
X63547143Y-56632381D01*
X63118571Y-57632381D01*
X64404286Y-56632381D02*
X63928095Y-56632381D01*
X63880476Y-57108571D01*
X63928095Y-57060952D01*
X64023333Y-57013333D01*
X64261429Y-57013333D01*
X64356667Y-57060952D01*
X64404286Y-57108571D01*
X64451905Y-57203810D01*
X64451905Y-57441905D01*
X64404286Y-57537143D01*
X64356667Y-57584762D01*
X64261429Y-57632381D01*
X64023333Y-57632381D01*
X63928095Y-57584762D01*
X63880476Y-57537143D01*
X62880476Y-54092381D02*
X63547143Y-54092381D01*
X63118571Y-55092381D01*
X63832857Y-54092381D02*
X64499524Y-54092381D01*
X64070952Y-55092381D01*
X62880476Y-51552381D02*
X63547143Y-51552381D01*
X63118571Y-52552381D01*
X63975714Y-52552381D02*
X64166190Y-52552381D01*
X64261429Y-52504762D01*
X64309048Y-52457143D01*
X64404286Y-52314286D01*
X64451905Y-52123810D01*
X64451905Y-51742857D01*
X64404286Y-51647619D01*
X64356667Y-51600000D01*
X64261429Y-51552381D01*
X64070952Y-51552381D01*
X63975714Y-51600000D01*
X63928095Y-51647619D01*
X63880476Y-51742857D01*
X63880476Y-51980952D01*
X63928095Y-52076190D01*
X63975714Y-52123810D01*
X64070952Y-52171429D01*
X64261429Y-52171429D01*
X64356667Y-52123810D01*
X64404286Y-52076190D01*
X64451905Y-51980952D01*
X63118571Y-49440952D02*
X63023333Y-49393333D01*
X62975714Y-49345714D01*
X62928095Y-49250476D01*
X62928095Y-49202857D01*
X62975714Y-49107619D01*
X63023333Y-49060000D01*
X63118571Y-49012381D01*
X63309048Y-49012381D01*
X63404286Y-49060000D01*
X63451905Y-49107619D01*
X63499524Y-49202857D01*
X63499524Y-49250476D01*
X63451905Y-49345714D01*
X63404286Y-49393333D01*
X63309048Y-49440952D01*
X63118571Y-49440952D01*
X63023333Y-49488571D01*
X62975714Y-49536190D01*
X62928095Y-49631429D01*
X62928095Y-49821905D01*
X62975714Y-49917143D01*
X63023333Y-49964762D01*
X63118571Y-50012381D01*
X63309048Y-50012381D01*
X63404286Y-49964762D01*
X63451905Y-49917143D01*
X63499524Y-49821905D01*
X63499524Y-49631429D01*
X63451905Y-49536190D01*
X63404286Y-49488571D01*
X63309048Y-49440952D01*
X64451905Y-50012381D02*
X63880476Y-50012381D01*
X64166190Y-50012381D02*
X64166190Y-49012381D01*
X64070952Y-49155238D01*
X63975714Y-49250476D01*
X63880476Y-49298095D01*
X63118571Y-46900952D02*
X63023333Y-46853333D01*
X62975714Y-46805714D01*
X62928095Y-46710476D01*
X62928095Y-46662857D01*
X62975714Y-46567619D01*
X63023333Y-46520000D01*
X63118571Y-46472381D01*
X63309048Y-46472381D01*
X63404286Y-46520000D01*
X63451905Y-46567619D01*
X63499524Y-46662857D01*
X63499524Y-46710476D01*
X63451905Y-46805714D01*
X63404286Y-46853333D01*
X63309048Y-46900952D01*
X63118571Y-46900952D01*
X63023333Y-46948571D01*
X62975714Y-46996190D01*
X62928095Y-47091429D01*
X62928095Y-47281905D01*
X62975714Y-47377143D01*
X63023333Y-47424762D01*
X63118571Y-47472381D01*
X63309048Y-47472381D01*
X63404286Y-47424762D01*
X63451905Y-47377143D01*
X63499524Y-47281905D01*
X63499524Y-47091429D01*
X63451905Y-46996190D01*
X63404286Y-46948571D01*
X63309048Y-46900952D01*
X63832857Y-46472381D02*
X64451905Y-46472381D01*
X64118571Y-46853333D01*
X64261429Y-46853333D01*
X64356667Y-46900952D01*
X64404286Y-46948571D01*
X64451905Y-47043810D01*
X64451905Y-47281905D01*
X64404286Y-47377143D01*
X64356667Y-47424762D01*
X64261429Y-47472381D01*
X63975714Y-47472381D01*
X63880476Y-47424762D01*
X63832857Y-47377143D01*
X63118571Y-44360952D02*
X63023333Y-44313333D01*
X62975714Y-44265714D01*
X62928095Y-44170476D01*
X62928095Y-44122857D01*
X62975714Y-44027619D01*
X63023333Y-43980000D01*
X63118571Y-43932381D01*
X63309048Y-43932381D01*
X63404286Y-43980000D01*
X63451905Y-44027619D01*
X63499524Y-44122857D01*
X63499524Y-44170476D01*
X63451905Y-44265714D01*
X63404286Y-44313333D01*
X63309048Y-44360952D01*
X63118571Y-44360952D01*
X63023333Y-44408571D01*
X62975714Y-44456190D01*
X62928095Y-44551429D01*
X62928095Y-44741905D01*
X62975714Y-44837143D01*
X63023333Y-44884762D01*
X63118571Y-44932381D01*
X63309048Y-44932381D01*
X63404286Y-44884762D01*
X63451905Y-44837143D01*
X63499524Y-44741905D01*
X63499524Y-44551429D01*
X63451905Y-44456190D01*
X63404286Y-44408571D01*
X63309048Y-44360952D01*
X64404286Y-43932381D02*
X63928095Y-43932381D01*
X63880476Y-44408571D01*
X63928095Y-44360952D01*
X64023333Y-44313333D01*
X64261429Y-44313333D01*
X64356667Y-44360952D01*
X64404286Y-44408571D01*
X64451905Y-44503810D01*
X64451905Y-44741905D01*
X64404286Y-44837143D01*
X64356667Y-44884762D01*
X64261429Y-44932381D01*
X64023333Y-44932381D01*
X63928095Y-44884762D01*
X63880476Y-44837143D01*
X63118571Y-41820952D02*
X63023333Y-41773333D01*
X62975714Y-41725714D01*
X62928095Y-41630476D01*
X62928095Y-41582857D01*
X62975714Y-41487619D01*
X63023333Y-41440000D01*
X63118571Y-41392381D01*
X63309048Y-41392381D01*
X63404286Y-41440000D01*
X63451905Y-41487619D01*
X63499524Y-41582857D01*
X63499524Y-41630476D01*
X63451905Y-41725714D01*
X63404286Y-41773333D01*
X63309048Y-41820952D01*
X63118571Y-41820952D01*
X63023333Y-41868571D01*
X62975714Y-41916190D01*
X62928095Y-42011429D01*
X62928095Y-42201905D01*
X62975714Y-42297143D01*
X63023333Y-42344762D01*
X63118571Y-42392381D01*
X63309048Y-42392381D01*
X63404286Y-42344762D01*
X63451905Y-42297143D01*
X63499524Y-42201905D01*
X63499524Y-42011429D01*
X63451905Y-41916190D01*
X63404286Y-41868571D01*
X63309048Y-41820952D01*
X63832857Y-41392381D02*
X64499524Y-41392381D01*
X64070952Y-42392381D01*
X63118571Y-39280952D02*
X63023333Y-39233333D01*
X62975714Y-39185714D01*
X62928095Y-39090476D01*
X62928095Y-39042857D01*
X62975714Y-38947619D01*
X63023333Y-38900000D01*
X63118571Y-38852381D01*
X63309048Y-38852381D01*
X63404286Y-38900000D01*
X63451905Y-38947619D01*
X63499524Y-39042857D01*
X63499524Y-39090476D01*
X63451905Y-39185714D01*
X63404286Y-39233333D01*
X63309048Y-39280952D01*
X63118571Y-39280952D01*
X63023333Y-39328571D01*
X62975714Y-39376190D01*
X62928095Y-39471429D01*
X62928095Y-39661905D01*
X62975714Y-39757143D01*
X63023333Y-39804762D01*
X63118571Y-39852381D01*
X63309048Y-39852381D01*
X63404286Y-39804762D01*
X63451905Y-39757143D01*
X63499524Y-39661905D01*
X63499524Y-39471429D01*
X63451905Y-39376190D01*
X63404286Y-39328571D01*
X63309048Y-39280952D01*
X63975714Y-39852381D02*
X64166190Y-39852381D01*
X64261429Y-39804762D01*
X64309048Y-39757143D01*
X64404286Y-39614286D01*
X64451905Y-39423810D01*
X64451905Y-39042857D01*
X64404286Y-38947619D01*
X64356667Y-38900000D01*
X64261429Y-38852381D01*
X64070952Y-38852381D01*
X63975714Y-38900000D01*
X63928095Y-38947619D01*
X63880476Y-39042857D01*
X63880476Y-39280952D01*
X63928095Y-39376190D01*
X63975714Y-39423810D01*
X64070952Y-39471429D01*
X64261429Y-39471429D01*
X64356667Y-39423810D01*
X64404286Y-39376190D01*
X64451905Y-39280952D01*
X63023333Y-37312381D02*
X63213809Y-37312381D01*
X63309048Y-37264762D01*
X63356667Y-37217143D01*
X63451905Y-37074286D01*
X63499524Y-36883810D01*
X63499524Y-36502857D01*
X63451905Y-36407619D01*
X63404286Y-36360000D01*
X63309048Y-36312381D01*
X63118571Y-36312381D01*
X63023333Y-36360000D01*
X62975714Y-36407619D01*
X62928095Y-36502857D01*
X62928095Y-36740952D01*
X62975714Y-36836190D01*
X63023333Y-36883810D01*
X63118571Y-36931429D01*
X63309048Y-36931429D01*
X63404286Y-36883810D01*
X63451905Y-36836190D01*
X63499524Y-36740952D01*
X64451905Y-37312381D02*
X63880476Y-37312381D01*
X64166190Y-37312381D02*
X64166190Y-36312381D01*
X64070952Y-36455238D01*
X63975714Y-36550476D01*
X63880476Y-36598095D01*
X63023333Y-34772381D02*
X63213809Y-34772381D01*
X63309048Y-34724762D01*
X63356667Y-34677143D01*
X63451905Y-34534286D01*
X63499524Y-34343810D01*
X63499524Y-33962857D01*
X63451905Y-33867619D01*
X63404286Y-33820000D01*
X63309048Y-33772381D01*
X63118571Y-33772381D01*
X63023333Y-33820000D01*
X62975714Y-33867619D01*
X62928095Y-33962857D01*
X62928095Y-34200952D01*
X62975714Y-34296190D01*
X63023333Y-34343810D01*
X63118571Y-34391429D01*
X63309048Y-34391429D01*
X63404286Y-34343810D01*
X63451905Y-34296190D01*
X63499524Y-34200952D01*
X63832857Y-33772381D02*
X64451905Y-33772381D01*
X64118571Y-34153333D01*
X64261429Y-34153333D01*
X64356667Y-34200952D01*
X64404286Y-34248571D01*
X64451905Y-34343810D01*
X64451905Y-34581905D01*
X64404286Y-34677143D01*
X64356667Y-34724762D01*
X64261429Y-34772381D01*
X63975714Y-34772381D01*
X63880476Y-34724762D01*
X63832857Y-34677143D01*
X63023333Y-32232381D02*
X63213809Y-32232381D01*
X63309048Y-32184762D01*
X63356667Y-32137143D01*
X63451905Y-31994286D01*
X63499524Y-31803810D01*
X63499524Y-31422857D01*
X63451905Y-31327619D01*
X63404286Y-31280000D01*
X63309048Y-31232381D01*
X63118571Y-31232381D01*
X63023333Y-31280000D01*
X62975714Y-31327619D01*
X62928095Y-31422857D01*
X62928095Y-31660952D01*
X62975714Y-31756190D01*
X63023333Y-31803810D01*
X63118571Y-31851429D01*
X63309048Y-31851429D01*
X63404286Y-31803810D01*
X63451905Y-31756190D01*
X63499524Y-31660952D01*
X64404286Y-31232381D02*
X63928095Y-31232381D01*
X63880476Y-31708571D01*
X63928095Y-31660952D01*
X64023333Y-31613333D01*
X64261429Y-31613333D01*
X64356667Y-31660952D01*
X64404286Y-31708571D01*
X64451905Y-31803810D01*
X64451905Y-32041905D01*
X64404286Y-32137143D01*
X64356667Y-32184762D01*
X64261429Y-32232381D01*
X64023333Y-32232381D01*
X63928095Y-32184762D01*
X63880476Y-32137143D01*
X63023333Y-29692381D02*
X63213809Y-29692381D01*
X63309048Y-29644762D01*
X63356667Y-29597143D01*
X63451905Y-29454286D01*
X63499524Y-29263810D01*
X63499524Y-28882857D01*
X63451905Y-28787619D01*
X63404286Y-28740000D01*
X63309048Y-28692381D01*
X63118571Y-28692381D01*
X63023333Y-28740000D01*
X62975714Y-28787619D01*
X62928095Y-28882857D01*
X62928095Y-29120952D01*
X62975714Y-29216190D01*
X63023333Y-29263810D01*
X63118571Y-29311429D01*
X63309048Y-29311429D01*
X63404286Y-29263810D01*
X63451905Y-29216190D01*
X63499524Y-29120952D01*
X63832857Y-28692381D02*
X64499524Y-28692381D01*
X64070952Y-29692381D01*
X63023333Y-27152381D02*
X63213809Y-27152381D01*
X63309048Y-27104762D01*
X63356667Y-27057143D01*
X63451905Y-26914286D01*
X63499524Y-26723810D01*
X63499524Y-26342857D01*
X63451905Y-26247619D01*
X63404286Y-26200000D01*
X63309048Y-26152381D01*
X63118571Y-26152381D01*
X63023333Y-26200000D01*
X62975714Y-26247619D01*
X62928095Y-26342857D01*
X62928095Y-26580952D01*
X62975714Y-26676190D01*
X63023333Y-26723810D01*
X63118571Y-26771429D01*
X63309048Y-26771429D01*
X63404286Y-26723810D01*
X63451905Y-26676190D01*
X63499524Y-26580952D01*
X63975714Y-27152381D02*
X64166190Y-27152381D01*
X64261429Y-27104762D01*
X64309048Y-27057143D01*
X64404286Y-26914286D01*
X64451905Y-26723810D01*
X64451905Y-26342857D01*
X64404286Y-26247619D01*
X64356667Y-26200000D01*
X64261429Y-26152381D01*
X64070952Y-26152381D01*
X63975714Y-26200000D01*
X63928095Y-26247619D01*
X63880476Y-26342857D01*
X63880476Y-26580952D01*
X63928095Y-26676190D01*
X63975714Y-26723810D01*
X64070952Y-26771429D01*
X64261429Y-26771429D01*
X64356667Y-26723810D01*
X64404286Y-26676190D01*
X64451905Y-26580952D01*
X63023334Y-24612381D02*
X62451905Y-24612381D01*
X62737619Y-24612381D02*
X62737619Y-23612381D01*
X62642381Y-23755238D01*
X62547143Y-23850476D01*
X62451905Y-23898095D01*
X63642381Y-23612381D02*
X63737620Y-23612381D01*
X63832858Y-23660000D01*
X63880477Y-23707619D01*
X63928096Y-23802857D01*
X63975715Y-23993333D01*
X63975715Y-24231429D01*
X63928096Y-24421905D01*
X63880477Y-24517143D01*
X63832858Y-24564762D01*
X63737620Y-24612381D01*
X63642381Y-24612381D01*
X63547143Y-24564762D01*
X63499524Y-24517143D01*
X63451905Y-24421905D01*
X63404286Y-24231429D01*
X63404286Y-23993333D01*
X63451905Y-23802857D01*
X63499524Y-23707619D01*
X63547143Y-23660000D01*
X63642381Y-23612381D01*
X64928096Y-24612381D02*
X64356667Y-24612381D01*
X64642381Y-24612381D02*
X64642381Y-23612381D01*
X64547143Y-23755238D01*
X64451905Y-23850476D01*
X64356667Y-23898095D01*
X63023334Y-22072381D02*
X62451905Y-22072381D01*
X62737619Y-22072381D02*
X62737619Y-21072381D01*
X62642381Y-21215238D01*
X62547143Y-21310476D01*
X62451905Y-21358095D01*
X63642381Y-21072381D02*
X63737620Y-21072381D01*
X63832858Y-21120000D01*
X63880477Y-21167619D01*
X63928096Y-21262857D01*
X63975715Y-21453333D01*
X63975715Y-21691429D01*
X63928096Y-21881905D01*
X63880477Y-21977143D01*
X63832858Y-22024762D01*
X63737620Y-22072381D01*
X63642381Y-22072381D01*
X63547143Y-22024762D01*
X63499524Y-21977143D01*
X63451905Y-21881905D01*
X63404286Y-21691429D01*
X63404286Y-21453333D01*
X63451905Y-21262857D01*
X63499524Y-21167619D01*
X63547143Y-21120000D01*
X63642381Y-21072381D01*
X64309048Y-21072381D02*
X64928096Y-21072381D01*
X64594762Y-21453333D01*
X64737620Y-21453333D01*
X64832858Y-21500952D01*
X64880477Y-21548571D01*
X64928096Y-21643810D01*
X64928096Y-21881905D01*
X64880477Y-21977143D01*
X64832858Y-22024762D01*
X64737620Y-22072381D01*
X64451905Y-22072381D01*
X64356667Y-22024762D01*
X64309048Y-21977143D01*
X63023334Y-19532381D02*
X62451905Y-19532381D01*
X62737619Y-19532381D02*
X62737619Y-18532381D01*
X62642381Y-18675238D01*
X62547143Y-18770476D01*
X62451905Y-18818095D01*
X63642381Y-18532381D02*
X63737620Y-18532381D01*
X63832858Y-18580000D01*
X63880477Y-18627619D01*
X63928096Y-18722857D01*
X63975715Y-18913333D01*
X63975715Y-19151429D01*
X63928096Y-19341905D01*
X63880477Y-19437143D01*
X63832858Y-19484762D01*
X63737620Y-19532381D01*
X63642381Y-19532381D01*
X63547143Y-19484762D01*
X63499524Y-19437143D01*
X63451905Y-19341905D01*
X63404286Y-19151429D01*
X63404286Y-18913333D01*
X63451905Y-18722857D01*
X63499524Y-18627619D01*
X63547143Y-18580000D01*
X63642381Y-18532381D01*
X64880477Y-18532381D02*
X64404286Y-18532381D01*
X64356667Y-19008571D01*
X64404286Y-18960952D01*
X64499524Y-18913333D01*
X64737620Y-18913333D01*
X64832858Y-18960952D01*
X64880477Y-19008571D01*
X64928096Y-19103810D01*
X64928096Y-19341905D01*
X64880477Y-19437143D01*
X64832858Y-19484762D01*
X64737620Y-19532381D01*
X64499524Y-19532381D01*
X64404286Y-19484762D01*
X64356667Y-19437143D01*
X63023334Y-16992381D02*
X62451905Y-16992381D01*
X62737619Y-16992381D02*
X62737619Y-15992381D01*
X62642381Y-16135238D01*
X62547143Y-16230476D01*
X62451905Y-16278095D01*
X63642381Y-15992381D02*
X63737620Y-15992381D01*
X63832858Y-16040000D01*
X63880477Y-16087619D01*
X63928096Y-16182857D01*
X63975715Y-16373333D01*
X63975715Y-16611429D01*
X63928096Y-16801905D01*
X63880477Y-16897143D01*
X63832858Y-16944762D01*
X63737620Y-16992381D01*
X63642381Y-16992381D01*
X63547143Y-16944762D01*
X63499524Y-16897143D01*
X63451905Y-16801905D01*
X63404286Y-16611429D01*
X63404286Y-16373333D01*
X63451905Y-16182857D01*
X63499524Y-16087619D01*
X63547143Y-16040000D01*
X63642381Y-15992381D01*
X64309048Y-15992381D02*
X64975715Y-15992381D01*
X64547143Y-16992381D01*
X72210476Y-58982381D02*
X72877143Y-58982381D01*
X72448571Y-59982381D01*
X73686667Y-59315714D02*
X73686667Y-59982381D01*
X73448571Y-58934762D02*
X73210476Y-59649048D01*
X73829524Y-59649048D01*
X72210476Y-56442381D02*
X72877143Y-56442381D01*
X72448571Y-57442381D01*
X73686667Y-56442381D02*
X73496190Y-56442381D01*
X73400952Y-56490000D01*
X73353333Y-56537619D01*
X73258095Y-56680476D01*
X73210476Y-56870952D01*
X73210476Y-57251905D01*
X73258095Y-57347143D01*
X73305714Y-57394762D01*
X73400952Y-57442381D01*
X73591429Y-57442381D01*
X73686667Y-57394762D01*
X73734286Y-57347143D01*
X73781905Y-57251905D01*
X73781905Y-57013810D01*
X73734286Y-56918571D01*
X73686667Y-56870952D01*
X73591429Y-56823333D01*
X73400952Y-56823333D01*
X73305714Y-56870952D01*
X73258095Y-56918571D01*
X73210476Y-57013810D01*
X72210476Y-53902381D02*
X72877143Y-53902381D01*
X72448571Y-54902381D01*
X73400952Y-54330952D02*
X73305714Y-54283333D01*
X73258095Y-54235714D01*
X73210476Y-54140476D01*
X73210476Y-54092857D01*
X73258095Y-53997619D01*
X73305714Y-53950000D01*
X73400952Y-53902381D01*
X73591429Y-53902381D01*
X73686667Y-53950000D01*
X73734286Y-53997619D01*
X73781905Y-54092857D01*
X73781905Y-54140476D01*
X73734286Y-54235714D01*
X73686667Y-54283333D01*
X73591429Y-54330952D01*
X73400952Y-54330952D01*
X73305714Y-54378571D01*
X73258095Y-54426190D01*
X73210476Y-54521429D01*
X73210476Y-54711905D01*
X73258095Y-54807143D01*
X73305714Y-54854762D01*
X73400952Y-54902381D01*
X73591429Y-54902381D01*
X73686667Y-54854762D01*
X73734286Y-54807143D01*
X73781905Y-54711905D01*
X73781905Y-54521429D01*
X73734286Y-54426190D01*
X73686667Y-54378571D01*
X73591429Y-54330952D01*
X72448571Y-51790952D02*
X72353333Y-51743333D01*
X72305714Y-51695714D01*
X72258095Y-51600476D01*
X72258095Y-51552857D01*
X72305714Y-51457619D01*
X72353333Y-51410000D01*
X72448571Y-51362381D01*
X72639048Y-51362381D01*
X72734286Y-51410000D01*
X72781905Y-51457619D01*
X72829524Y-51552857D01*
X72829524Y-51600476D01*
X72781905Y-51695714D01*
X72734286Y-51743333D01*
X72639048Y-51790952D01*
X72448571Y-51790952D01*
X72353333Y-51838571D01*
X72305714Y-51886190D01*
X72258095Y-51981429D01*
X72258095Y-52171905D01*
X72305714Y-52267143D01*
X72353333Y-52314762D01*
X72448571Y-52362381D01*
X72639048Y-52362381D01*
X72734286Y-52314762D01*
X72781905Y-52267143D01*
X72829524Y-52171905D01*
X72829524Y-51981429D01*
X72781905Y-51886190D01*
X72734286Y-51838571D01*
X72639048Y-51790952D01*
X73448571Y-51362381D02*
X73543810Y-51362381D01*
X73639048Y-51410000D01*
X73686667Y-51457619D01*
X73734286Y-51552857D01*
X73781905Y-51743333D01*
X73781905Y-51981429D01*
X73734286Y-52171905D01*
X73686667Y-52267143D01*
X73639048Y-52314762D01*
X73543810Y-52362381D01*
X73448571Y-52362381D01*
X73353333Y-52314762D01*
X73305714Y-52267143D01*
X73258095Y-52171905D01*
X73210476Y-51981429D01*
X73210476Y-51743333D01*
X73258095Y-51552857D01*
X73305714Y-51457619D01*
X73353333Y-51410000D01*
X73448571Y-51362381D01*
X72448571Y-49250952D02*
X72353333Y-49203333D01*
X72305714Y-49155714D01*
X72258095Y-49060476D01*
X72258095Y-49012857D01*
X72305714Y-48917619D01*
X72353333Y-48870000D01*
X72448571Y-48822381D01*
X72639048Y-48822381D01*
X72734286Y-48870000D01*
X72781905Y-48917619D01*
X72829524Y-49012857D01*
X72829524Y-49060476D01*
X72781905Y-49155714D01*
X72734286Y-49203333D01*
X72639048Y-49250952D01*
X72448571Y-49250952D01*
X72353333Y-49298571D01*
X72305714Y-49346190D01*
X72258095Y-49441429D01*
X72258095Y-49631905D01*
X72305714Y-49727143D01*
X72353333Y-49774762D01*
X72448571Y-49822381D01*
X72639048Y-49822381D01*
X72734286Y-49774762D01*
X72781905Y-49727143D01*
X72829524Y-49631905D01*
X72829524Y-49441429D01*
X72781905Y-49346190D01*
X72734286Y-49298571D01*
X72639048Y-49250952D01*
X73210476Y-48917619D02*
X73258095Y-48870000D01*
X73353333Y-48822381D01*
X73591429Y-48822381D01*
X73686667Y-48870000D01*
X73734286Y-48917619D01*
X73781905Y-49012857D01*
X73781905Y-49108095D01*
X73734286Y-49250952D01*
X73162857Y-49822381D01*
X73781905Y-49822381D01*
X72448571Y-46710952D02*
X72353333Y-46663333D01*
X72305714Y-46615714D01*
X72258095Y-46520476D01*
X72258095Y-46472857D01*
X72305714Y-46377619D01*
X72353333Y-46330000D01*
X72448571Y-46282381D01*
X72639048Y-46282381D01*
X72734286Y-46330000D01*
X72781905Y-46377619D01*
X72829524Y-46472857D01*
X72829524Y-46520476D01*
X72781905Y-46615714D01*
X72734286Y-46663333D01*
X72639048Y-46710952D01*
X72448571Y-46710952D01*
X72353333Y-46758571D01*
X72305714Y-46806190D01*
X72258095Y-46901429D01*
X72258095Y-47091905D01*
X72305714Y-47187143D01*
X72353333Y-47234762D01*
X72448571Y-47282381D01*
X72639048Y-47282381D01*
X72734286Y-47234762D01*
X72781905Y-47187143D01*
X72829524Y-47091905D01*
X72829524Y-46901429D01*
X72781905Y-46806190D01*
X72734286Y-46758571D01*
X72639048Y-46710952D01*
X73686667Y-46615714D02*
X73686667Y-47282381D01*
X73448571Y-46234762D02*
X73210476Y-46949048D01*
X73829524Y-46949048D01*
X72448571Y-44170952D02*
X72353333Y-44123333D01*
X72305714Y-44075714D01*
X72258095Y-43980476D01*
X72258095Y-43932857D01*
X72305714Y-43837619D01*
X72353333Y-43790000D01*
X72448571Y-43742381D01*
X72639048Y-43742381D01*
X72734286Y-43790000D01*
X72781905Y-43837619D01*
X72829524Y-43932857D01*
X72829524Y-43980476D01*
X72781905Y-44075714D01*
X72734286Y-44123333D01*
X72639048Y-44170952D01*
X72448571Y-44170952D01*
X72353333Y-44218571D01*
X72305714Y-44266190D01*
X72258095Y-44361429D01*
X72258095Y-44551905D01*
X72305714Y-44647143D01*
X72353333Y-44694762D01*
X72448571Y-44742381D01*
X72639048Y-44742381D01*
X72734286Y-44694762D01*
X72781905Y-44647143D01*
X72829524Y-44551905D01*
X72829524Y-44361429D01*
X72781905Y-44266190D01*
X72734286Y-44218571D01*
X72639048Y-44170952D01*
X73686667Y-43742381D02*
X73496190Y-43742381D01*
X73400952Y-43790000D01*
X73353333Y-43837619D01*
X73258095Y-43980476D01*
X73210476Y-44170952D01*
X73210476Y-44551905D01*
X73258095Y-44647143D01*
X73305714Y-44694762D01*
X73400952Y-44742381D01*
X73591429Y-44742381D01*
X73686667Y-44694762D01*
X73734286Y-44647143D01*
X73781905Y-44551905D01*
X73781905Y-44313810D01*
X73734286Y-44218571D01*
X73686667Y-44170952D01*
X73591429Y-44123333D01*
X73400952Y-44123333D01*
X73305714Y-44170952D01*
X73258095Y-44218571D01*
X73210476Y-44313810D01*
X72448571Y-41630952D02*
X72353333Y-41583333D01*
X72305714Y-41535714D01*
X72258095Y-41440476D01*
X72258095Y-41392857D01*
X72305714Y-41297619D01*
X72353333Y-41250000D01*
X72448571Y-41202381D01*
X72639048Y-41202381D01*
X72734286Y-41250000D01*
X72781905Y-41297619D01*
X72829524Y-41392857D01*
X72829524Y-41440476D01*
X72781905Y-41535714D01*
X72734286Y-41583333D01*
X72639048Y-41630952D01*
X72448571Y-41630952D01*
X72353333Y-41678571D01*
X72305714Y-41726190D01*
X72258095Y-41821429D01*
X72258095Y-42011905D01*
X72305714Y-42107143D01*
X72353333Y-42154762D01*
X72448571Y-42202381D01*
X72639048Y-42202381D01*
X72734286Y-42154762D01*
X72781905Y-42107143D01*
X72829524Y-42011905D01*
X72829524Y-41821429D01*
X72781905Y-41726190D01*
X72734286Y-41678571D01*
X72639048Y-41630952D01*
X73400952Y-41630952D02*
X73305714Y-41583333D01*
X73258095Y-41535714D01*
X73210476Y-41440476D01*
X73210476Y-41392857D01*
X73258095Y-41297619D01*
X73305714Y-41250000D01*
X73400952Y-41202381D01*
X73591429Y-41202381D01*
X73686667Y-41250000D01*
X73734286Y-41297619D01*
X73781905Y-41392857D01*
X73781905Y-41440476D01*
X73734286Y-41535714D01*
X73686667Y-41583333D01*
X73591429Y-41630952D01*
X73400952Y-41630952D01*
X73305714Y-41678571D01*
X73258095Y-41726190D01*
X73210476Y-41821429D01*
X73210476Y-42011905D01*
X73258095Y-42107143D01*
X73305714Y-42154762D01*
X73400952Y-42202381D01*
X73591429Y-42202381D01*
X73686667Y-42154762D01*
X73734286Y-42107143D01*
X73781905Y-42011905D01*
X73781905Y-41821429D01*
X73734286Y-41726190D01*
X73686667Y-41678571D01*
X73591429Y-41630952D01*
X72353333Y-39662381D02*
X72543809Y-39662381D01*
X72639048Y-39614762D01*
X72686667Y-39567143D01*
X72781905Y-39424286D01*
X72829524Y-39233810D01*
X72829524Y-38852857D01*
X72781905Y-38757619D01*
X72734286Y-38710000D01*
X72639048Y-38662381D01*
X72448571Y-38662381D01*
X72353333Y-38710000D01*
X72305714Y-38757619D01*
X72258095Y-38852857D01*
X72258095Y-39090952D01*
X72305714Y-39186190D01*
X72353333Y-39233810D01*
X72448571Y-39281429D01*
X72639048Y-39281429D01*
X72734286Y-39233810D01*
X72781905Y-39186190D01*
X72829524Y-39090952D01*
X73448571Y-38662381D02*
X73543810Y-38662381D01*
X73639048Y-38710000D01*
X73686667Y-38757619D01*
X73734286Y-38852857D01*
X73781905Y-39043333D01*
X73781905Y-39281429D01*
X73734286Y-39471905D01*
X73686667Y-39567143D01*
X73639048Y-39614762D01*
X73543810Y-39662381D01*
X73448571Y-39662381D01*
X73353333Y-39614762D01*
X73305714Y-39567143D01*
X73258095Y-39471905D01*
X73210476Y-39281429D01*
X73210476Y-39043333D01*
X73258095Y-38852857D01*
X73305714Y-38757619D01*
X73353333Y-38710000D01*
X73448571Y-38662381D01*
X72353333Y-37122381D02*
X72543809Y-37122381D01*
X72639048Y-37074762D01*
X72686667Y-37027143D01*
X72781905Y-36884286D01*
X72829524Y-36693810D01*
X72829524Y-36312857D01*
X72781905Y-36217619D01*
X72734286Y-36170000D01*
X72639048Y-36122381D01*
X72448571Y-36122381D01*
X72353333Y-36170000D01*
X72305714Y-36217619D01*
X72258095Y-36312857D01*
X72258095Y-36550952D01*
X72305714Y-36646190D01*
X72353333Y-36693810D01*
X72448571Y-36741429D01*
X72639048Y-36741429D01*
X72734286Y-36693810D01*
X72781905Y-36646190D01*
X72829524Y-36550952D01*
X73210476Y-36217619D02*
X73258095Y-36170000D01*
X73353333Y-36122381D01*
X73591429Y-36122381D01*
X73686667Y-36170000D01*
X73734286Y-36217619D01*
X73781905Y-36312857D01*
X73781905Y-36408095D01*
X73734286Y-36550952D01*
X73162857Y-37122381D01*
X73781905Y-37122381D01*
X72353333Y-34582381D02*
X72543809Y-34582381D01*
X72639048Y-34534762D01*
X72686667Y-34487143D01*
X72781905Y-34344286D01*
X72829524Y-34153810D01*
X72829524Y-33772857D01*
X72781905Y-33677619D01*
X72734286Y-33630000D01*
X72639048Y-33582381D01*
X72448571Y-33582381D01*
X72353333Y-33630000D01*
X72305714Y-33677619D01*
X72258095Y-33772857D01*
X72258095Y-34010952D01*
X72305714Y-34106190D01*
X72353333Y-34153810D01*
X72448571Y-34201429D01*
X72639048Y-34201429D01*
X72734286Y-34153810D01*
X72781905Y-34106190D01*
X72829524Y-34010952D01*
X73686667Y-33915714D02*
X73686667Y-34582381D01*
X73448571Y-33534762D02*
X73210476Y-34249048D01*
X73829524Y-34249048D01*
X72353333Y-32042381D02*
X72543809Y-32042381D01*
X72639048Y-31994762D01*
X72686667Y-31947143D01*
X72781905Y-31804286D01*
X72829524Y-31613810D01*
X72829524Y-31232857D01*
X72781905Y-31137619D01*
X72734286Y-31090000D01*
X72639048Y-31042381D01*
X72448571Y-31042381D01*
X72353333Y-31090000D01*
X72305714Y-31137619D01*
X72258095Y-31232857D01*
X72258095Y-31470952D01*
X72305714Y-31566190D01*
X72353333Y-31613810D01*
X72448571Y-31661429D01*
X72639048Y-31661429D01*
X72734286Y-31613810D01*
X72781905Y-31566190D01*
X72829524Y-31470952D01*
X73686667Y-31042381D02*
X73496190Y-31042381D01*
X73400952Y-31090000D01*
X73353333Y-31137619D01*
X73258095Y-31280476D01*
X73210476Y-31470952D01*
X73210476Y-31851905D01*
X73258095Y-31947143D01*
X73305714Y-31994762D01*
X73400952Y-32042381D01*
X73591429Y-32042381D01*
X73686667Y-31994762D01*
X73734286Y-31947143D01*
X73781905Y-31851905D01*
X73781905Y-31613810D01*
X73734286Y-31518571D01*
X73686667Y-31470952D01*
X73591429Y-31423333D01*
X73400952Y-31423333D01*
X73305714Y-31470952D01*
X73258095Y-31518571D01*
X73210476Y-31613810D01*
X72343333Y-29652381D02*
X72533809Y-29652381D01*
X72629048Y-29604762D01*
X72676667Y-29557143D01*
X72771905Y-29414286D01*
X72819524Y-29223810D01*
X72819524Y-28842857D01*
X72771905Y-28747619D01*
X72724286Y-28700000D01*
X72629048Y-28652381D01*
X72438571Y-28652381D01*
X72343333Y-28700000D01*
X72295714Y-28747619D01*
X72248095Y-28842857D01*
X72248095Y-29080952D01*
X72295714Y-29176190D01*
X72343333Y-29223810D01*
X72438571Y-29271429D01*
X72629048Y-29271429D01*
X72724286Y-29223810D01*
X72771905Y-29176190D01*
X72819524Y-29080952D01*
X73390952Y-29080952D02*
X73295714Y-29033333D01*
X73248095Y-28985714D01*
X73200476Y-28890476D01*
X73200476Y-28842857D01*
X73248095Y-28747619D01*
X73295714Y-28700000D01*
X73390952Y-28652381D01*
X73581429Y-28652381D01*
X73676667Y-28700000D01*
X73724286Y-28747619D01*
X73771905Y-28842857D01*
X73771905Y-28890476D01*
X73724286Y-28985714D01*
X73676667Y-29033333D01*
X73581429Y-29080952D01*
X73390952Y-29080952D01*
X73295714Y-29128571D01*
X73248095Y-29176190D01*
X73200476Y-29271429D01*
X73200476Y-29461905D01*
X73248095Y-29557143D01*
X73295714Y-29604762D01*
X73390952Y-29652381D01*
X73581429Y-29652381D01*
X73676667Y-29604762D01*
X73724286Y-29557143D01*
X73771905Y-29461905D01*
X73771905Y-29271429D01*
X73724286Y-29176190D01*
X73676667Y-29128571D01*
X73581429Y-29080952D01*
X72523334Y-27012381D02*
X71951905Y-27012381D01*
X72237619Y-27012381D02*
X72237619Y-26012381D01*
X72142381Y-26155238D01*
X72047143Y-26250476D01*
X71951905Y-26298095D01*
X73142381Y-26012381D02*
X73237620Y-26012381D01*
X73332858Y-26060000D01*
X73380477Y-26107619D01*
X73428096Y-26202857D01*
X73475715Y-26393333D01*
X73475715Y-26631429D01*
X73428096Y-26821905D01*
X73380477Y-26917143D01*
X73332858Y-26964762D01*
X73237620Y-27012381D01*
X73142381Y-27012381D01*
X73047143Y-26964762D01*
X72999524Y-26917143D01*
X72951905Y-26821905D01*
X72904286Y-26631429D01*
X72904286Y-26393333D01*
X72951905Y-26202857D01*
X72999524Y-26107619D01*
X73047143Y-26060000D01*
X73142381Y-26012381D01*
X74094762Y-26012381D02*
X74190001Y-26012381D01*
X74285239Y-26060000D01*
X74332858Y-26107619D01*
X74380477Y-26202857D01*
X74428096Y-26393333D01*
X74428096Y-26631429D01*
X74380477Y-26821905D01*
X74332858Y-26917143D01*
X74285239Y-26964762D01*
X74190001Y-27012381D01*
X74094762Y-27012381D01*
X73999524Y-26964762D01*
X73951905Y-26917143D01*
X73904286Y-26821905D01*
X73856667Y-26631429D01*
X73856667Y-26393333D01*
X73904286Y-26202857D01*
X73951905Y-26107619D01*
X73999524Y-26060000D01*
X74094762Y-26012381D01*
X72523334Y-24472381D02*
X71951905Y-24472381D01*
X72237619Y-24472381D02*
X72237619Y-23472381D01*
X72142381Y-23615238D01*
X72047143Y-23710476D01*
X71951905Y-23758095D01*
X73142381Y-23472381D02*
X73237620Y-23472381D01*
X73332858Y-23520000D01*
X73380477Y-23567619D01*
X73428096Y-23662857D01*
X73475715Y-23853333D01*
X73475715Y-24091429D01*
X73428096Y-24281905D01*
X73380477Y-24377143D01*
X73332858Y-24424762D01*
X73237620Y-24472381D01*
X73142381Y-24472381D01*
X73047143Y-24424762D01*
X72999524Y-24377143D01*
X72951905Y-24281905D01*
X72904286Y-24091429D01*
X72904286Y-23853333D01*
X72951905Y-23662857D01*
X72999524Y-23567619D01*
X73047143Y-23520000D01*
X73142381Y-23472381D01*
X73856667Y-23567619D02*
X73904286Y-23520000D01*
X73999524Y-23472381D01*
X74237620Y-23472381D01*
X74332858Y-23520000D01*
X74380477Y-23567619D01*
X74428096Y-23662857D01*
X74428096Y-23758095D01*
X74380477Y-23900952D01*
X73809048Y-24472381D01*
X74428096Y-24472381D01*
X72523334Y-21932381D02*
X71951905Y-21932381D01*
X72237619Y-21932381D02*
X72237619Y-20932381D01*
X72142381Y-21075238D01*
X72047143Y-21170476D01*
X71951905Y-21218095D01*
X73142381Y-20932381D02*
X73237620Y-20932381D01*
X73332858Y-20980000D01*
X73380477Y-21027619D01*
X73428096Y-21122857D01*
X73475715Y-21313333D01*
X73475715Y-21551429D01*
X73428096Y-21741905D01*
X73380477Y-21837143D01*
X73332858Y-21884762D01*
X73237620Y-21932381D01*
X73142381Y-21932381D01*
X73047143Y-21884762D01*
X72999524Y-21837143D01*
X72951905Y-21741905D01*
X72904286Y-21551429D01*
X72904286Y-21313333D01*
X72951905Y-21122857D01*
X72999524Y-21027619D01*
X73047143Y-20980000D01*
X73142381Y-20932381D01*
X74332858Y-21265714D02*
X74332858Y-21932381D01*
X74094762Y-20884762D02*
X73856667Y-21599048D01*
X74475715Y-21599048D01*
X72523334Y-19392381D02*
X71951905Y-19392381D01*
X72237619Y-19392381D02*
X72237619Y-18392381D01*
X72142381Y-18535238D01*
X72047143Y-18630476D01*
X71951905Y-18678095D01*
X73142381Y-18392381D02*
X73237620Y-18392381D01*
X73332858Y-18440000D01*
X73380477Y-18487619D01*
X73428096Y-18582857D01*
X73475715Y-18773333D01*
X73475715Y-19011429D01*
X73428096Y-19201905D01*
X73380477Y-19297143D01*
X73332858Y-19344762D01*
X73237620Y-19392381D01*
X73142381Y-19392381D01*
X73047143Y-19344762D01*
X72999524Y-19297143D01*
X72951905Y-19201905D01*
X72904286Y-19011429D01*
X72904286Y-18773333D01*
X72951905Y-18582857D01*
X72999524Y-18487619D01*
X73047143Y-18440000D01*
X73142381Y-18392381D01*
X74332858Y-18392381D02*
X74142381Y-18392381D01*
X74047143Y-18440000D01*
X73999524Y-18487619D01*
X73904286Y-18630476D01*
X73856667Y-18820952D01*
X73856667Y-19201905D01*
X73904286Y-19297143D01*
X73951905Y-19344762D01*
X74047143Y-19392381D01*
X74237620Y-19392381D01*
X74332858Y-19344762D01*
X74380477Y-19297143D01*
X74428096Y-19201905D01*
X74428096Y-18963810D01*
X74380477Y-18868571D01*
X74332858Y-18820952D01*
X74237620Y-18773333D01*
X74047143Y-18773333D01*
X73951905Y-18820952D01*
X73904286Y-18868571D01*
X73856667Y-18963810D01*
X72523334Y-16852381D02*
X71951905Y-16852381D01*
X72237619Y-16852381D02*
X72237619Y-15852381D01*
X72142381Y-15995238D01*
X72047143Y-16090476D01*
X71951905Y-16138095D01*
X73142381Y-15852381D02*
X73237620Y-15852381D01*
X73332858Y-15900000D01*
X73380477Y-15947619D01*
X73428096Y-16042857D01*
X73475715Y-16233333D01*
X73475715Y-16471429D01*
X73428096Y-16661905D01*
X73380477Y-16757143D01*
X73332858Y-16804762D01*
X73237620Y-16852381D01*
X73142381Y-16852381D01*
X73047143Y-16804762D01*
X72999524Y-16757143D01*
X72951905Y-16661905D01*
X72904286Y-16471429D01*
X72904286Y-16233333D01*
X72951905Y-16042857D01*
X72999524Y-15947619D01*
X73047143Y-15900000D01*
X73142381Y-15852381D01*
X74047143Y-16280952D02*
X73951905Y-16233333D01*
X73904286Y-16185714D01*
X73856667Y-16090476D01*
X73856667Y-16042857D01*
X73904286Y-15947619D01*
X73951905Y-15900000D01*
X74047143Y-15852381D01*
X74237620Y-15852381D01*
X74332858Y-15900000D01*
X74380477Y-15947619D01*
X74428096Y-16042857D01*
X74428096Y-16090476D01*
X74380477Y-16185714D01*
X74332858Y-16233333D01*
X74237620Y-16280952D01*
X74047143Y-16280952D01*
X73951905Y-16328571D01*
X73904286Y-16376190D01*
X73856667Y-16471429D01*
X73856667Y-16661905D01*
X73904286Y-16757143D01*
X73951905Y-16804762D01*
X74047143Y-16852381D01*
X74237620Y-16852381D01*
X74332858Y-16804762D01*
X74380477Y-16757143D01*
X74428096Y-16661905D01*
X74428096Y-16471429D01*
X74380477Y-16376190D01*
X74332858Y-16328571D01*
X74237620Y-16280952D01*
X60022381Y-12906666D02*
X60022381Y-13478095D01*
X60022381Y-13192381D02*
X59022381Y-13192381D01*
X59165238Y-13287619D01*
X59260476Y-13382857D01*
X59308095Y-13478095D01*
X59022381Y-12287619D02*
X59022381Y-12192380D01*
X59070000Y-12097142D01*
X59117619Y-12049523D01*
X59212857Y-12001904D01*
X59403333Y-11954285D01*
X59641429Y-11954285D01*
X59831905Y-12001904D01*
X59927143Y-12049523D01*
X59974762Y-12097142D01*
X60022381Y-12192380D01*
X60022381Y-12287619D01*
X59974762Y-12382857D01*
X59927143Y-12430476D01*
X59831905Y-12478095D01*
X59641429Y-12525714D01*
X59403333Y-12525714D01*
X59212857Y-12478095D01*
X59117619Y-12430476D01*
X59070000Y-12382857D01*
X59022381Y-12287619D01*
X60022381Y-11478095D02*
X60022381Y-11287619D01*
X59974762Y-11192380D01*
X59927143Y-11144761D01*
X59784286Y-11049523D01*
X59593810Y-11001904D01*
X59212857Y-11001904D01*
X59117619Y-11049523D01*
X59070000Y-11097142D01*
X59022381Y-11192380D01*
X59022381Y-11382857D01*
X59070000Y-11478095D01*
X59117619Y-11525714D01*
X59212857Y-11573333D01*
X59450952Y-11573333D01*
X59546190Y-11525714D01*
X59593810Y-11478095D01*
X59641429Y-11382857D01*
X59641429Y-11192380D01*
X59593810Y-11097142D01*
X59546190Y-11049523D01*
X59450952Y-11001904D01*
X57502381Y-12896666D02*
X57502381Y-13468095D01*
X57502381Y-13182381D02*
X56502381Y-13182381D01*
X56645238Y-13277619D01*
X56740476Y-13372857D01*
X56788095Y-13468095D01*
X57502381Y-11944285D02*
X57502381Y-12515714D01*
X57502381Y-12230000D02*
X56502381Y-12230000D01*
X56645238Y-12325238D01*
X56740476Y-12420476D01*
X56788095Y-12515714D01*
X57502381Y-10991904D02*
X57502381Y-11563333D01*
X57502381Y-11277619D02*
X56502381Y-11277619D01*
X56645238Y-11372857D01*
X56740476Y-11468095D01*
X56788095Y-11563333D01*
X54962381Y-12896666D02*
X54962381Y-13468095D01*
X54962381Y-13182381D02*
X53962381Y-13182381D01*
X54105238Y-13277619D01*
X54200476Y-13372857D01*
X54248095Y-13468095D01*
X54962381Y-11944285D02*
X54962381Y-12515714D01*
X54962381Y-12230000D02*
X53962381Y-12230000D01*
X54105238Y-12325238D01*
X54200476Y-12420476D01*
X54248095Y-12515714D01*
X53962381Y-11610952D02*
X53962381Y-10991904D01*
X54343333Y-11325238D01*
X54343333Y-11182380D01*
X54390952Y-11087142D01*
X54438571Y-11039523D01*
X54533810Y-10991904D01*
X54771905Y-10991904D01*
X54867143Y-11039523D01*
X54914762Y-11087142D01*
X54962381Y-11182380D01*
X54962381Y-11468095D01*
X54914762Y-11563333D01*
X54867143Y-11610952D01*
X52422381Y-12896666D02*
X52422381Y-13468095D01*
X52422381Y-13182381D02*
X51422381Y-13182381D01*
X51565238Y-13277619D01*
X51660476Y-13372857D01*
X51708095Y-13468095D01*
X52422381Y-11944285D02*
X52422381Y-12515714D01*
X52422381Y-12230000D02*
X51422381Y-12230000D01*
X51565238Y-12325238D01*
X51660476Y-12420476D01*
X51708095Y-12515714D01*
X51422381Y-11039523D02*
X51422381Y-11515714D01*
X51898571Y-11563333D01*
X51850952Y-11515714D01*
X51803333Y-11420476D01*
X51803333Y-11182380D01*
X51850952Y-11087142D01*
X51898571Y-11039523D01*
X51993810Y-10991904D01*
X52231905Y-10991904D01*
X52327143Y-11039523D01*
X52374762Y-11087142D01*
X52422381Y-11182380D01*
X52422381Y-11420476D01*
X52374762Y-11515714D01*
X52327143Y-11563333D01*
X49882381Y-12896666D02*
X49882381Y-13468095D01*
X49882381Y-13182381D02*
X48882381Y-13182381D01*
X49025238Y-13277619D01*
X49120476Y-13372857D01*
X49168095Y-13468095D01*
X49882381Y-11944285D02*
X49882381Y-12515714D01*
X49882381Y-12230000D02*
X48882381Y-12230000D01*
X49025238Y-12325238D01*
X49120476Y-12420476D01*
X49168095Y-12515714D01*
X48882381Y-11610952D02*
X48882381Y-10944285D01*
X49882381Y-11372857D01*
X47342381Y-12896666D02*
X47342381Y-13468095D01*
X47342381Y-13182381D02*
X46342381Y-13182381D01*
X46485238Y-13277619D01*
X46580476Y-13372857D01*
X46628095Y-13468095D01*
X47342381Y-11944285D02*
X47342381Y-12515714D01*
X47342381Y-12230000D02*
X46342381Y-12230000D01*
X46485238Y-12325238D01*
X46580476Y-12420476D01*
X46628095Y-12515714D01*
X47342381Y-11468095D02*
X47342381Y-11277619D01*
X47294762Y-11182380D01*
X47247143Y-11134761D01*
X47104286Y-11039523D01*
X46913810Y-10991904D01*
X46532857Y-10991904D01*
X46437619Y-11039523D01*
X46390000Y-11087142D01*
X46342381Y-11182380D01*
X46342381Y-11372857D01*
X46390000Y-11468095D01*
X46437619Y-11515714D01*
X46532857Y-11563333D01*
X46770952Y-11563333D01*
X46866190Y-11515714D01*
X46913810Y-11468095D01*
X46961429Y-11372857D01*
X46961429Y-11182380D01*
X46913810Y-11087142D01*
X46866190Y-11039523D01*
X46770952Y-10991904D01*
X44802381Y-12896666D02*
X44802381Y-13468095D01*
X44802381Y-13182381D02*
X43802381Y-13182381D01*
X43945238Y-13277619D01*
X44040476Y-13372857D01*
X44088095Y-13468095D01*
X43897619Y-12515714D02*
X43850000Y-12468095D01*
X43802381Y-12372857D01*
X43802381Y-12134761D01*
X43850000Y-12039523D01*
X43897619Y-11991904D01*
X43992857Y-11944285D01*
X44088095Y-11944285D01*
X44230952Y-11991904D01*
X44802381Y-12563333D01*
X44802381Y-11944285D01*
X44802381Y-10991904D02*
X44802381Y-11563333D01*
X44802381Y-11277619D02*
X43802381Y-11277619D01*
X43945238Y-11372857D01*
X44040476Y-11468095D01*
X44088095Y-11563333D01*
X42262381Y-12896666D02*
X42262381Y-13468095D01*
X42262381Y-13182381D02*
X41262381Y-13182381D01*
X41405238Y-13277619D01*
X41500476Y-13372857D01*
X41548095Y-13468095D01*
X41357619Y-12515714D02*
X41310000Y-12468095D01*
X41262381Y-12372857D01*
X41262381Y-12134761D01*
X41310000Y-12039523D01*
X41357619Y-11991904D01*
X41452857Y-11944285D01*
X41548095Y-11944285D01*
X41690952Y-11991904D01*
X42262381Y-12563333D01*
X42262381Y-11944285D01*
X41262381Y-11610952D02*
X41262381Y-10991904D01*
X41643333Y-11325238D01*
X41643333Y-11182380D01*
X41690952Y-11087142D01*
X41738571Y-11039523D01*
X41833810Y-10991904D01*
X42071905Y-10991904D01*
X42167143Y-11039523D01*
X42214762Y-11087142D01*
X42262381Y-11182380D01*
X42262381Y-11468095D01*
X42214762Y-11563333D01*
X42167143Y-11610952D01*
X39722381Y-12896666D02*
X39722381Y-13468095D01*
X39722381Y-13182381D02*
X38722381Y-13182381D01*
X38865238Y-13277619D01*
X38960476Y-13372857D01*
X39008095Y-13468095D01*
X38817619Y-12515714D02*
X38770000Y-12468095D01*
X38722381Y-12372857D01*
X38722381Y-12134761D01*
X38770000Y-12039523D01*
X38817619Y-11991904D01*
X38912857Y-11944285D01*
X39008095Y-11944285D01*
X39150952Y-11991904D01*
X39722381Y-12563333D01*
X39722381Y-11944285D01*
X38722381Y-11039523D02*
X38722381Y-11515714D01*
X39198571Y-11563333D01*
X39150952Y-11515714D01*
X39103333Y-11420476D01*
X39103333Y-11182380D01*
X39150952Y-11087142D01*
X39198571Y-11039523D01*
X39293810Y-10991904D01*
X39531905Y-10991904D01*
X39627143Y-11039523D01*
X39674762Y-11087142D01*
X39722381Y-11182380D01*
X39722381Y-11420476D01*
X39674762Y-11515714D01*
X39627143Y-11563333D01*
X37182381Y-12896666D02*
X37182381Y-13468095D01*
X37182381Y-13182381D02*
X36182381Y-13182381D01*
X36325238Y-13277619D01*
X36420476Y-13372857D01*
X36468095Y-13468095D01*
X36277619Y-12515714D02*
X36230000Y-12468095D01*
X36182381Y-12372857D01*
X36182381Y-12134761D01*
X36230000Y-12039523D01*
X36277619Y-11991904D01*
X36372857Y-11944285D01*
X36468095Y-11944285D01*
X36610952Y-11991904D01*
X37182381Y-12563333D01*
X37182381Y-11944285D01*
X36182381Y-11610952D02*
X36182381Y-10944285D01*
X37182381Y-11372857D01*
X34642381Y-12896666D02*
X34642381Y-13468095D01*
X34642381Y-13182381D02*
X33642381Y-13182381D01*
X33785238Y-13277619D01*
X33880476Y-13372857D01*
X33928095Y-13468095D01*
X33737619Y-12515714D02*
X33690000Y-12468095D01*
X33642381Y-12372857D01*
X33642381Y-12134761D01*
X33690000Y-12039523D01*
X33737619Y-11991904D01*
X33832857Y-11944285D01*
X33928095Y-11944285D01*
X34070952Y-11991904D01*
X34642381Y-12563333D01*
X34642381Y-11944285D01*
X34642381Y-11468095D02*
X34642381Y-11277619D01*
X34594762Y-11182380D01*
X34547143Y-11134761D01*
X34404286Y-11039523D01*
X34213810Y-10991904D01*
X33832857Y-10991904D01*
X33737619Y-11039523D01*
X33690000Y-11087142D01*
X33642381Y-11182380D01*
X33642381Y-11372857D01*
X33690000Y-11468095D01*
X33737619Y-11515714D01*
X33832857Y-11563333D01*
X34070952Y-11563333D01*
X34166190Y-11515714D01*
X34213810Y-11468095D01*
X34261429Y-11372857D01*
X34261429Y-11182380D01*
X34213810Y-11087142D01*
X34166190Y-11039523D01*
X34070952Y-10991904D01*
X32102381Y-12896666D02*
X32102381Y-13468095D01*
X32102381Y-13182381D02*
X31102381Y-13182381D01*
X31245238Y-13277619D01*
X31340476Y-13372857D01*
X31388095Y-13468095D01*
X31102381Y-12563333D02*
X31102381Y-11944285D01*
X31483333Y-12277619D01*
X31483333Y-12134761D01*
X31530952Y-12039523D01*
X31578571Y-11991904D01*
X31673810Y-11944285D01*
X31911905Y-11944285D01*
X32007143Y-11991904D01*
X32054762Y-12039523D01*
X32102381Y-12134761D01*
X32102381Y-12420476D01*
X32054762Y-12515714D01*
X32007143Y-12563333D01*
X32102381Y-10991904D02*
X32102381Y-11563333D01*
X32102381Y-11277619D02*
X31102381Y-11277619D01*
X31245238Y-11372857D01*
X31340476Y-11468095D01*
X31388095Y-11563333D01*
X29562381Y-12896666D02*
X29562381Y-13468095D01*
X29562381Y-13182381D02*
X28562381Y-13182381D01*
X28705238Y-13277619D01*
X28800476Y-13372857D01*
X28848095Y-13468095D01*
X28562381Y-12563333D02*
X28562381Y-11944285D01*
X28943333Y-12277619D01*
X28943333Y-12134761D01*
X28990952Y-12039523D01*
X29038571Y-11991904D01*
X29133810Y-11944285D01*
X29371905Y-11944285D01*
X29467143Y-11991904D01*
X29514762Y-12039523D01*
X29562381Y-12134761D01*
X29562381Y-12420476D01*
X29514762Y-12515714D01*
X29467143Y-12563333D01*
X28562381Y-11610952D02*
X28562381Y-10991904D01*
X28943333Y-11325238D01*
X28943333Y-11182380D01*
X28990952Y-11087142D01*
X29038571Y-11039523D01*
X29133810Y-10991904D01*
X29371905Y-10991904D01*
X29467143Y-11039523D01*
X29514762Y-11087142D01*
X29562381Y-11182380D01*
X29562381Y-11468095D01*
X29514762Y-11563333D01*
X29467143Y-11610952D01*
X27022381Y-12896666D02*
X27022381Y-13468095D01*
X27022381Y-13182381D02*
X26022381Y-13182381D01*
X26165238Y-13277619D01*
X26260476Y-13372857D01*
X26308095Y-13468095D01*
X26022381Y-12563333D02*
X26022381Y-11944285D01*
X26403333Y-12277619D01*
X26403333Y-12134761D01*
X26450952Y-12039523D01*
X26498571Y-11991904D01*
X26593810Y-11944285D01*
X26831905Y-11944285D01*
X26927143Y-11991904D01*
X26974762Y-12039523D01*
X27022381Y-12134761D01*
X27022381Y-12420476D01*
X26974762Y-12515714D01*
X26927143Y-12563333D01*
X26022381Y-11039523D02*
X26022381Y-11515714D01*
X26498571Y-11563333D01*
X26450952Y-11515714D01*
X26403333Y-11420476D01*
X26403333Y-11182380D01*
X26450952Y-11087142D01*
X26498571Y-11039523D01*
X26593810Y-10991904D01*
X26831905Y-10991904D01*
X26927143Y-11039523D01*
X26974762Y-11087142D01*
X27022381Y-11182380D01*
X27022381Y-11420476D01*
X26974762Y-11515714D01*
X26927143Y-11563333D01*
X24482381Y-12896666D02*
X24482381Y-13468095D01*
X24482381Y-13182381D02*
X23482381Y-13182381D01*
X23625238Y-13277619D01*
X23720476Y-13372857D01*
X23768095Y-13468095D01*
X23482381Y-12563333D02*
X23482381Y-11944285D01*
X23863333Y-12277619D01*
X23863333Y-12134761D01*
X23910952Y-12039523D01*
X23958571Y-11991904D01*
X24053810Y-11944285D01*
X24291905Y-11944285D01*
X24387143Y-11991904D01*
X24434762Y-12039523D01*
X24482381Y-12134761D01*
X24482381Y-12420476D01*
X24434762Y-12515714D01*
X24387143Y-12563333D01*
X23482381Y-11610952D02*
X23482381Y-10944285D01*
X24482381Y-11372857D01*
X21942381Y-12896666D02*
X21942381Y-13468095D01*
X21942381Y-13182381D02*
X20942381Y-13182381D01*
X21085238Y-13277619D01*
X21180476Y-13372857D01*
X21228095Y-13468095D01*
X20942381Y-12563333D02*
X20942381Y-11944285D01*
X21323333Y-12277619D01*
X21323333Y-12134761D01*
X21370952Y-12039523D01*
X21418571Y-11991904D01*
X21513810Y-11944285D01*
X21751905Y-11944285D01*
X21847143Y-11991904D01*
X21894762Y-12039523D01*
X21942381Y-12134761D01*
X21942381Y-12420476D01*
X21894762Y-12515714D01*
X21847143Y-12563333D01*
X21942381Y-11468095D02*
X21942381Y-11277619D01*
X21894762Y-11182380D01*
X21847143Y-11134761D01*
X21704286Y-11039523D01*
X21513810Y-10991904D01*
X21132857Y-10991904D01*
X21037619Y-11039523D01*
X20990000Y-11087142D01*
X20942381Y-11182380D01*
X20942381Y-11372857D01*
X20990000Y-11468095D01*
X21037619Y-11515714D01*
X21132857Y-11563333D01*
X21370952Y-11563333D01*
X21466190Y-11515714D01*
X21513810Y-11468095D01*
X21561429Y-11372857D01*
X21561429Y-11182380D01*
X21513810Y-11087142D01*
X21466190Y-11039523D01*
X21370952Y-10991904D01*
X19402381Y-12896666D02*
X19402381Y-13468095D01*
X19402381Y-13182381D02*
X18402381Y-13182381D01*
X18545238Y-13277619D01*
X18640476Y-13372857D01*
X18688095Y-13468095D01*
X18735714Y-12039523D02*
X19402381Y-12039523D01*
X18354762Y-12277619D02*
X19069048Y-12515714D01*
X19069048Y-11896666D01*
X19402381Y-10991904D02*
X19402381Y-11563333D01*
X19402381Y-11277619D02*
X18402381Y-11277619D01*
X18545238Y-11372857D01*
X18640476Y-11468095D01*
X18688095Y-11563333D01*
X16802381Y-13006666D02*
X16802381Y-13578095D01*
X16802381Y-13292381D02*
X15802381Y-13292381D01*
X15945238Y-13387619D01*
X16040476Y-13482857D01*
X16088095Y-13578095D01*
X16135714Y-12149523D02*
X16802381Y-12149523D01*
X15754762Y-12387619D02*
X16469048Y-12625714D01*
X16469048Y-12006666D01*
X15802381Y-11720952D02*
X15802381Y-11101904D01*
X16183333Y-11435238D01*
X16183333Y-11292380D01*
X16230952Y-11197142D01*
X16278571Y-11149523D01*
X16373810Y-11101904D01*
X16611905Y-11101904D01*
X16707143Y-11149523D01*
X16754762Y-11197142D01*
X16802381Y-11292380D01*
X16802381Y-11578095D01*
X16754762Y-11673333D01*
X16707143Y-11720952D01*
X59822381Y-3366666D02*
X59822381Y-3938095D01*
X59822381Y-3652381D02*
X58822381Y-3652381D01*
X58965238Y-3747619D01*
X59060476Y-3842857D01*
X59108095Y-3938095D01*
X59822381Y-2414285D02*
X59822381Y-2985714D01*
X59822381Y-2700000D02*
X58822381Y-2700000D01*
X58965238Y-2795238D01*
X59060476Y-2890476D01*
X59108095Y-2985714D01*
X58822381Y-1795238D02*
X58822381Y-1699999D01*
X58870000Y-1604761D01*
X58917619Y-1557142D01*
X59012857Y-1509523D01*
X59203333Y-1461904D01*
X59441429Y-1461904D01*
X59631905Y-1509523D01*
X59727143Y-1557142D01*
X59774762Y-1604761D01*
X59822381Y-1699999D01*
X59822381Y-1795238D01*
X59774762Y-1890476D01*
X59727143Y-1938095D01*
X59631905Y-1985714D01*
X59441429Y-2033333D01*
X59203333Y-2033333D01*
X59012857Y-1985714D01*
X58917619Y-1938095D01*
X58870000Y-1890476D01*
X58822381Y-1795238D01*
X57282381Y-3366666D02*
X57282381Y-3938095D01*
X57282381Y-3652381D02*
X56282381Y-3652381D01*
X56425238Y-3747619D01*
X56520476Y-3842857D01*
X56568095Y-3938095D01*
X57282381Y-2414285D02*
X57282381Y-2985714D01*
X57282381Y-2700000D02*
X56282381Y-2700000D01*
X56425238Y-2795238D01*
X56520476Y-2890476D01*
X56568095Y-2985714D01*
X56377619Y-2033333D02*
X56330000Y-1985714D01*
X56282381Y-1890476D01*
X56282381Y-1652380D01*
X56330000Y-1557142D01*
X56377619Y-1509523D01*
X56472857Y-1461904D01*
X56568095Y-1461904D01*
X56710952Y-1509523D01*
X57282381Y-2080952D01*
X57282381Y-1461904D01*
X54742381Y-3366666D02*
X54742381Y-3938095D01*
X54742381Y-3652381D02*
X53742381Y-3652381D01*
X53885238Y-3747619D01*
X53980476Y-3842857D01*
X54028095Y-3938095D01*
X54742381Y-2414285D02*
X54742381Y-2985714D01*
X54742381Y-2700000D02*
X53742381Y-2700000D01*
X53885238Y-2795238D01*
X53980476Y-2890476D01*
X54028095Y-2985714D01*
X54075714Y-1557142D02*
X54742381Y-1557142D01*
X53694762Y-1795238D02*
X54409048Y-2033333D01*
X54409048Y-1414285D01*
X52202381Y-3366666D02*
X52202381Y-3938095D01*
X52202381Y-3652381D02*
X51202381Y-3652381D01*
X51345238Y-3747619D01*
X51440476Y-3842857D01*
X51488095Y-3938095D01*
X52202381Y-2414285D02*
X52202381Y-2985714D01*
X52202381Y-2700000D02*
X51202381Y-2700000D01*
X51345238Y-2795238D01*
X51440476Y-2890476D01*
X51488095Y-2985714D01*
X51202381Y-1557142D02*
X51202381Y-1747619D01*
X51250000Y-1842857D01*
X51297619Y-1890476D01*
X51440476Y-1985714D01*
X51630952Y-2033333D01*
X52011905Y-2033333D01*
X52107143Y-1985714D01*
X52154762Y-1938095D01*
X52202381Y-1842857D01*
X52202381Y-1652380D01*
X52154762Y-1557142D01*
X52107143Y-1509523D01*
X52011905Y-1461904D01*
X51773810Y-1461904D01*
X51678571Y-1509523D01*
X51630952Y-1557142D01*
X51583333Y-1652380D01*
X51583333Y-1842857D01*
X51630952Y-1938095D01*
X51678571Y-1985714D01*
X51773810Y-2033333D01*
X49662381Y-3366666D02*
X49662381Y-3938095D01*
X49662381Y-3652381D02*
X48662381Y-3652381D01*
X48805238Y-3747619D01*
X48900476Y-3842857D01*
X48948095Y-3938095D01*
X49662381Y-2414285D02*
X49662381Y-2985714D01*
X49662381Y-2700000D02*
X48662381Y-2700000D01*
X48805238Y-2795238D01*
X48900476Y-2890476D01*
X48948095Y-2985714D01*
X49090952Y-1842857D02*
X49043333Y-1938095D01*
X48995714Y-1985714D01*
X48900476Y-2033333D01*
X48852857Y-2033333D01*
X48757619Y-1985714D01*
X48710000Y-1938095D01*
X48662381Y-1842857D01*
X48662381Y-1652380D01*
X48710000Y-1557142D01*
X48757619Y-1509523D01*
X48852857Y-1461904D01*
X48900476Y-1461904D01*
X48995714Y-1509523D01*
X49043333Y-1557142D01*
X49090952Y-1652380D01*
X49090952Y-1842857D01*
X49138571Y-1938095D01*
X49186190Y-1985714D01*
X49281429Y-2033333D01*
X49471905Y-2033333D01*
X49567143Y-1985714D01*
X49614762Y-1938095D01*
X49662381Y-1842857D01*
X49662381Y-1652380D01*
X49614762Y-1557142D01*
X49567143Y-1509523D01*
X49471905Y-1461904D01*
X49281429Y-1461904D01*
X49186190Y-1509523D01*
X49138571Y-1557142D01*
X49090952Y-1652380D01*
X47122381Y-3366666D02*
X47122381Y-3938095D01*
X47122381Y-3652381D02*
X46122381Y-3652381D01*
X46265238Y-3747619D01*
X46360476Y-3842857D01*
X46408095Y-3938095D01*
X46217619Y-2985714D02*
X46170000Y-2938095D01*
X46122381Y-2842857D01*
X46122381Y-2604761D01*
X46170000Y-2509523D01*
X46217619Y-2461904D01*
X46312857Y-2414285D01*
X46408095Y-2414285D01*
X46550952Y-2461904D01*
X47122381Y-3033333D01*
X47122381Y-2414285D01*
X46122381Y-1795238D02*
X46122381Y-1699999D01*
X46170000Y-1604761D01*
X46217619Y-1557142D01*
X46312857Y-1509523D01*
X46503333Y-1461904D01*
X46741429Y-1461904D01*
X46931905Y-1509523D01*
X47027143Y-1557142D01*
X47074762Y-1604761D01*
X47122381Y-1699999D01*
X47122381Y-1795238D01*
X47074762Y-1890476D01*
X47027143Y-1938095D01*
X46931905Y-1985714D01*
X46741429Y-2033333D01*
X46503333Y-2033333D01*
X46312857Y-1985714D01*
X46217619Y-1938095D01*
X46170000Y-1890476D01*
X46122381Y-1795238D01*
X44582381Y-3366666D02*
X44582381Y-3938095D01*
X44582381Y-3652381D02*
X43582381Y-3652381D01*
X43725238Y-3747619D01*
X43820476Y-3842857D01*
X43868095Y-3938095D01*
X43677619Y-2985714D02*
X43630000Y-2938095D01*
X43582381Y-2842857D01*
X43582381Y-2604761D01*
X43630000Y-2509523D01*
X43677619Y-2461904D01*
X43772857Y-2414285D01*
X43868095Y-2414285D01*
X44010952Y-2461904D01*
X44582381Y-3033333D01*
X44582381Y-2414285D01*
X43677619Y-2033333D02*
X43630000Y-1985714D01*
X43582381Y-1890476D01*
X43582381Y-1652380D01*
X43630000Y-1557142D01*
X43677619Y-1509523D01*
X43772857Y-1461904D01*
X43868095Y-1461904D01*
X44010952Y-1509523D01*
X44582381Y-2080952D01*
X44582381Y-1461904D01*
X42042381Y-3366666D02*
X42042381Y-3938095D01*
X42042381Y-3652381D02*
X41042381Y-3652381D01*
X41185238Y-3747619D01*
X41280476Y-3842857D01*
X41328095Y-3938095D01*
X41137619Y-2985714D02*
X41090000Y-2938095D01*
X41042381Y-2842857D01*
X41042381Y-2604761D01*
X41090000Y-2509523D01*
X41137619Y-2461904D01*
X41232857Y-2414285D01*
X41328095Y-2414285D01*
X41470952Y-2461904D01*
X42042381Y-3033333D01*
X42042381Y-2414285D01*
X41375714Y-1557142D02*
X42042381Y-1557142D01*
X40994762Y-1795238D02*
X41709048Y-2033333D01*
X41709048Y-1414285D01*
X39502381Y-3366666D02*
X39502381Y-3938095D01*
X39502381Y-3652381D02*
X38502381Y-3652381D01*
X38645238Y-3747619D01*
X38740476Y-3842857D01*
X38788095Y-3938095D01*
X38597619Y-2985714D02*
X38550000Y-2938095D01*
X38502381Y-2842857D01*
X38502381Y-2604761D01*
X38550000Y-2509523D01*
X38597619Y-2461904D01*
X38692857Y-2414285D01*
X38788095Y-2414285D01*
X38930952Y-2461904D01*
X39502381Y-3033333D01*
X39502381Y-2414285D01*
X38502381Y-1557142D02*
X38502381Y-1747619D01*
X38550000Y-1842857D01*
X38597619Y-1890476D01*
X38740476Y-1985714D01*
X38930952Y-2033333D01*
X39311905Y-2033333D01*
X39407143Y-1985714D01*
X39454762Y-1938095D01*
X39502381Y-1842857D01*
X39502381Y-1652380D01*
X39454762Y-1557142D01*
X39407143Y-1509523D01*
X39311905Y-1461904D01*
X39073810Y-1461904D01*
X38978571Y-1509523D01*
X38930952Y-1557142D01*
X38883333Y-1652380D01*
X38883333Y-1842857D01*
X38930952Y-1938095D01*
X38978571Y-1985714D01*
X39073810Y-2033333D01*
X36962381Y-3366666D02*
X36962381Y-3938095D01*
X36962381Y-3652381D02*
X35962381Y-3652381D01*
X36105238Y-3747619D01*
X36200476Y-3842857D01*
X36248095Y-3938095D01*
X36057619Y-2985714D02*
X36010000Y-2938095D01*
X35962381Y-2842857D01*
X35962381Y-2604761D01*
X36010000Y-2509523D01*
X36057619Y-2461904D01*
X36152857Y-2414285D01*
X36248095Y-2414285D01*
X36390952Y-2461904D01*
X36962381Y-3033333D01*
X36962381Y-2414285D01*
X36390952Y-1842857D02*
X36343333Y-1938095D01*
X36295714Y-1985714D01*
X36200476Y-2033333D01*
X36152857Y-2033333D01*
X36057619Y-1985714D01*
X36010000Y-1938095D01*
X35962381Y-1842857D01*
X35962381Y-1652380D01*
X36010000Y-1557142D01*
X36057619Y-1509523D01*
X36152857Y-1461904D01*
X36200476Y-1461904D01*
X36295714Y-1509523D01*
X36343333Y-1557142D01*
X36390952Y-1652380D01*
X36390952Y-1842857D01*
X36438571Y-1938095D01*
X36486190Y-1985714D01*
X36581429Y-2033333D01*
X36771905Y-2033333D01*
X36867143Y-1985714D01*
X36914762Y-1938095D01*
X36962381Y-1842857D01*
X36962381Y-1652380D01*
X36914762Y-1557142D01*
X36867143Y-1509523D01*
X36771905Y-1461904D01*
X36581429Y-1461904D01*
X36486190Y-1509523D01*
X36438571Y-1557142D01*
X36390952Y-1652380D01*
X34422381Y-3366666D02*
X34422381Y-3938095D01*
X34422381Y-3652381D02*
X33422381Y-3652381D01*
X33565238Y-3747619D01*
X33660476Y-3842857D01*
X33708095Y-3938095D01*
X33422381Y-3033333D02*
X33422381Y-2414285D01*
X33803333Y-2747619D01*
X33803333Y-2604761D01*
X33850952Y-2509523D01*
X33898571Y-2461904D01*
X33993810Y-2414285D01*
X34231905Y-2414285D01*
X34327143Y-2461904D01*
X34374762Y-2509523D01*
X34422381Y-2604761D01*
X34422381Y-2890476D01*
X34374762Y-2985714D01*
X34327143Y-3033333D01*
X33422381Y-1795238D02*
X33422381Y-1699999D01*
X33470000Y-1604761D01*
X33517619Y-1557142D01*
X33612857Y-1509523D01*
X33803333Y-1461904D01*
X34041429Y-1461904D01*
X34231905Y-1509523D01*
X34327143Y-1557142D01*
X34374762Y-1604761D01*
X34422381Y-1699999D01*
X34422381Y-1795238D01*
X34374762Y-1890476D01*
X34327143Y-1938095D01*
X34231905Y-1985714D01*
X34041429Y-2033333D01*
X33803333Y-2033333D01*
X33612857Y-1985714D01*
X33517619Y-1938095D01*
X33470000Y-1890476D01*
X33422381Y-1795238D01*
X31882381Y-3366666D02*
X31882381Y-3938095D01*
X31882381Y-3652381D02*
X30882381Y-3652381D01*
X31025238Y-3747619D01*
X31120476Y-3842857D01*
X31168095Y-3938095D01*
X30882381Y-3033333D02*
X30882381Y-2414285D01*
X31263333Y-2747619D01*
X31263333Y-2604761D01*
X31310952Y-2509523D01*
X31358571Y-2461904D01*
X31453810Y-2414285D01*
X31691905Y-2414285D01*
X31787143Y-2461904D01*
X31834762Y-2509523D01*
X31882381Y-2604761D01*
X31882381Y-2890476D01*
X31834762Y-2985714D01*
X31787143Y-3033333D01*
X30977619Y-2033333D02*
X30930000Y-1985714D01*
X30882381Y-1890476D01*
X30882381Y-1652380D01*
X30930000Y-1557142D01*
X30977619Y-1509523D01*
X31072857Y-1461904D01*
X31168095Y-1461904D01*
X31310952Y-1509523D01*
X31882381Y-2080952D01*
X31882381Y-1461904D01*
X29342381Y-3366666D02*
X29342381Y-3938095D01*
X29342381Y-3652381D02*
X28342381Y-3652381D01*
X28485238Y-3747619D01*
X28580476Y-3842857D01*
X28628095Y-3938095D01*
X28342381Y-3033333D02*
X28342381Y-2414285D01*
X28723333Y-2747619D01*
X28723333Y-2604761D01*
X28770952Y-2509523D01*
X28818571Y-2461904D01*
X28913810Y-2414285D01*
X29151905Y-2414285D01*
X29247143Y-2461904D01*
X29294762Y-2509523D01*
X29342381Y-2604761D01*
X29342381Y-2890476D01*
X29294762Y-2985714D01*
X29247143Y-3033333D01*
X28675714Y-1557142D02*
X29342381Y-1557142D01*
X28294762Y-1795238D02*
X29009048Y-2033333D01*
X29009048Y-1414285D01*
X26802381Y-3366666D02*
X26802381Y-3938095D01*
X26802381Y-3652381D02*
X25802381Y-3652381D01*
X25945238Y-3747619D01*
X26040476Y-3842857D01*
X26088095Y-3938095D01*
X25802381Y-3033333D02*
X25802381Y-2414285D01*
X26183333Y-2747619D01*
X26183333Y-2604761D01*
X26230952Y-2509523D01*
X26278571Y-2461904D01*
X26373810Y-2414285D01*
X26611905Y-2414285D01*
X26707143Y-2461904D01*
X26754762Y-2509523D01*
X26802381Y-2604761D01*
X26802381Y-2890476D01*
X26754762Y-2985714D01*
X26707143Y-3033333D01*
X25802381Y-1557142D02*
X25802381Y-1747619D01*
X25850000Y-1842857D01*
X25897619Y-1890476D01*
X26040476Y-1985714D01*
X26230952Y-2033333D01*
X26611905Y-2033333D01*
X26707143Y-1985714D01*
X26754762Y-1938095D01*
X26802381Y-1842857D01*
X26802381Y-1652380D01*
X26754762Y-1557142D01*
X26707143Y-1509523D01*
X26611905Y-1461904D01*
X26373810Y-1461904D01*
X26278571Y-1509523D01*
X26230952Y-1557142D01*
X26183333Y-1652380D01*
X26183333Y-1842857D01*
X26230952Y-1938095D01*
X26278571Y-1985714D01*
X26373810Y-2033333D01*
X24262381Y-3366666D02*
X24262381Y-3938095D01*
X24262381Y-3652381D02*
X23262381Y-3652381D01*
X23405238Y-3747619D01*
X23500476Y-3842857D01*
X23548095Y-3938095D01*
X23262381Y-3033333D02*
X23262381Y-2414285D01*
X23643333Y-2747619D01*
X23643333Y-2604761D01*
X23690952Y-2509523D01*
X23738571Y-2461904D01*
X23833810Y-2414285D01*
X24071905Y-2414285D01*
X24167143Y-2461904D01*
X24214762Y-2509523D01*
X24262381Y-2604761D01*
X24262381Y-2890476D01*
X24214762Y-2985714D01*
X24167143Y-3033333D01*
X23690952Y-1842857D02*
X23643333Y-1938095D01*
X23595714Y-1985714D01*
X23500476Y-2033333D01*
X23452857Y-2033333D01*
X23357619Y-1985714D01*
X23310000Y-1938095D01*
X23262381Y-1842857D01*
X23262381Y-1652380D01*
X23310000Y-1557142D01*
X23357619Y-1509523D01*
X23452857Y-1461904D01*
X23500476Y-1461904D01*
X23595714Y-1509523D01*
X23643333Y-1557142D01*
X23690952Y-1652380D01*
X23690952Y-1842857D01*
X23738571Y-1938095D01*
X23786190Y-1985714D01*
X23881429Y-2033333D01*
X24071905Y-2033333D01*
X24167143Y-1985714D01*
X24214762Y-1938095D01*
X24262381Y-1842857D01*
X24262381Y-1652380D01*
X24214762Y-1557142D01*
X24167143Y-1509523D01*
X24071905Y-1461904D01*
X23881429Y-1461904D01*
X23786190Y-1509523D01*
X23738571Y-1557142D01*
X23690952Y-1652380D01*
X21722381Y-3366666D02*
X21722381Y-3938095D01*
X21722381Y-3652381D02*
X20722381Y-3652381D01*
X20865238Y-3747619D01*
X20960476Y-3842857D01*
X21008095Y-3938095D01*
X21055714Y-2509523D02*
X21722381Y-2509523D01*
X20674762Y-2747619D02*
X21389048Y-2985714D01*
X21389048Y-2366666D01*
X20722381Y-1795238D02*
X20722381Y-1699999D01*
X20770000Y-1604761D01*
X20817619Y-1557142D01*
X20912857Y-1509523D01*
X21103333Y-1461904D01*
X21341429Y-1461904D01*
X21531905Y-1509523D01*
X21627143Y-1557142D01*
X21674762Y-1604761D01*
X21722381Y-1699999D01*
X21722381Y-1795238D01*
X21674762Y-1890476D01*
X21627143Y-1938095D01*
X21531905Y-1985714D01*
X21341429Y-2033333D01*
X21103333Y-2033333D01*
X20912857Y-1985714D01*
X20817619Y-1938095D01*
X20770000Y-1890476D01*
X20722381Y-1795238D01*
X19182381Y-3366666D02*
X19182381Y-3938095D01*
X19182381Y-3652381D02*
X18182381Y-3652381D01*
X18325238Y-3747619D01*
X18420476Y-3842857D01*
X18468095Y-3938095D01*
X18515714Y-2509523D02*
X19182381Y-2509523D01*
X18134762Y-2747619D02*
X18849048Y-2985714D01*
X18849048Y-2366666D01*
X18277619Y-2033333D02*
X18230000Y-1985714D01*
X18182381Y-1890476D01*
X18182381Y-1652380D01*
X18230000Y-1557142D01*
X18277619Y-1509523D01*
X18372857Y-1461904D01*
X18468095Y-1461904D01*
X18610952Y-1509523D01*
X19182381Y-2080952D01*
X19182381Y-1461904D01*
X16642381Y-3366666D02*
X16642381Y-3938095D01*
X16642381Y-3652381D02*
X15642381Y-3652381D01*
X15785238Y-3747619D01*
X15880476Y-3842857D01*
X15928095Y-3938095D01*
X15975714Y-2509523D02*
X16642381Y-2509523D01*
X15594762Y-2747619D02*
X16309048Y-2985714D01*
X16309048Y-2366666D01*
X15975714Y-1557142D02*
X16642381Y-1557142D01*
X15594762Y-1795238D02*
X16309048Y-2033333D01*
X16309048Y-1414285D01*
X58932381Y-64889524D02*
X58932381Y-64222857D01*
X59932381Y-64651429D01*
X59932381Y-63318095D02*
X59932381Y-63889524D01*
X59932381Y-63603810D02*
X58932381Y-63603810D01*
X59075238Y-63699048D01*
X59170476Y-63794286D01*
X59218095Y-63889524D01*
X56402381Y-64425714D02*
X56402381Y-64616191D01*
X56450000Y-64711429D01*
X56497619Y-64759048D01*
X56640476Y-64854286D01*
X56830952Y-64901905D01*
X57211905Y-64901905D01*
X57307143Y-64854286D01*
X57354762Y-64806667D01*
X57402381Y-64711429D01*
X57402381Y-64520952D01*
X57354762Y-64425714D01*
X57307143Y-64378095D01*
X57211905Y-64330476D01*
X56973810Y-64330476D01*
X56878571Y-64378095D01*
X56830952Y-64425714D01*
X56783333Y-64520952D01*
X56783333Y-64711429D01*
X56830952Y-64806667D01*
X56878571Y-64854286D01*
X56973810Y-64901905D01*
X57402381Y-63854286D02*
X57402381Y-63663810D01*
X57354762Y-63568571D01*
X57307143Y-63520952D01*
X57164286Y-63425714D01*
X56973810Y-63378095D01*
X56592857Y-63378095D01*
X56497619Y-63425714D01*
X56450000Y-63473333D01*
X56402381Y-63568571D01*
X56402381Y-63759048D01*
X56450000Y-63854286D01*
X56497619Y-63901905D01*
X56592857Y-63949524D01*
X56830952Y-63949524D01*
X56926190Y-63901905D01*
X56973810Y-63854286D01*
X57021429Y-63759048D01*
X57021429Y-63568571D01*
X56973810Y-63473333D01*
X56926190Y-63425714D01*
X56830952Y-63378095D01*
X53862381Y-64425714D02*
X53862381Y-64616191D01*
X53910000Y-64711429D01*
X53957619Y-64759048D01*
X54100476Y-64854286D01*
X54290952Y-64901905D01*
X54671905Y-64901905D01*
X54767143Y-64854286D01*
X54814762Y-64806667D01*
X54862381Y-64711429D01*
X54862381Y-64520952D01*
X54814762Y-64425714D01*
X54767143Y-64378095D01*
X54671905Y-64330476D01*
X54433810Y-64330476D01*
X54338571Y-64378095D01*
X54290952Y-64425714D01*
X54243333Y-64520952D01*
X54243333Y-64711429D01*
X54290952Y-64806667D01*
X54338571Y-64854286D01*
X54433810Y-64901905D01*
X53862381Y-63997143D02*
X53862381Y-63330476D01*
X54862381Y-63759048D01*
X51322381Y-64425714D02*
X51322381Y-64616191D01*
X51370000Y-64711429D01*
X51417619Y-64759048D01*
X51560476Y-64854286D01*
X51750952Y-64901905D01*
X52131905Y-64901905D01*
X52227143Y-64854286D01*
X52274762Y-64806667D01*
X52322381Y-64711429D01*
X52322381Y-64520952D01*
X52274762Y-64425714D01*
X52227143Y-64378095D01*
X52131905Y-64330476D01*
X51893810Y-64330476D01*
X51798571Y-64378095D01*
X51750952Y-64425714D01*
X51703333Y-64520952D01*
X51703333Y-64711429D01*
X51750952Y-64806667D01*
X51798571Y-64854286D01*
X51893810Y-64901905D01*
X51322381Y-63425714D02*
X51322381Y-63901905D01*
X51798571Y-63949524D01*
X51750952Y-63901905D01*
X51703333Y-63806667D01*
X51703333Y-63568571D01*
X51750952Y-63473333D01*
X51798571Y-63425714D01*
X51893810Y-63378095D01*
X52131905Y-63378095D01*
X52227143Y-63425714D01*
X52274762Y-63473333D01*
X52322381Y-63568571D01*
X52322381Y-63806667D01*
X52274762Y-63901905D01*
X52227143Y-63949524D01*
X48782381Y-64425714D02*
X48782381Y-64616191D01*
X48830000Y-64711429D01*
X48877619Y-64759048D01*
X49020476Y-64854286D01*
X49210952Y-64901905D01*
X49591905Y-64901905D01*
X49687143Y-64854286D01*
X49734762Y-64806667D01*
X49782381Y-64711429D01*
X49782381Y-64520952D01*
X49734762Y-64425714D01*
X49687143Y-64378095D01*
X49591905Y-64330476D01*
X49353810Y-64330476D01*
X49258571Y-64378095D01*
X49210952Y-64425714D01*
X49163333Y-64520952D01*
X49163333Y-64711429D01*
X49210952Y-64806667D01*
X49258571Y-64854286D01*
X49353810Y-64901905D01*
X48782381Y-63997143D02*
X48782381Y-63378095D01*
X49163333Y-63711429D01*
X49163333Y-63568571D01*
X49210952Y-63473333D01*
X49258571Y-63425714D01*
X49353810Y-63378095D01*
X49591905Y-63378095D01*
X49687143Y-63425714D01*
X49734762Y-63473333D01*
X49782381Y-63568571D01*
X49782381Y-63854286D01*
X49734762Y-63949524D01*
X49687143Y-63997143D01*
X46242381Y-64425714D02*
X46242381Y-64616191D01*
X46290000Y-64711429D01*
X46337619Y-64759048D01*
X46480476Y-64854286D01*
X46670952Y-64901905D01*
X47051905Y-64901905D01*
X47147143Y-64854286D01*
X47194762Y-64806667D01*
X47242381Y-64711429D01*
X47242381Y-64520952D01*
X47194762Y-64425714D01*
X47147143Y-64378095D01*
X47051905Y-64330476D01*
X46813810Y-64330476D01*
X46718571Y-64378095D01*
X46670952Y-64425714D01*
X46623333Y-64520952D01*
X46623333Y-64711429D01*
X46670952Y-64806667D01*
X46718571Y-64854286D01*
X46813810Y-64901905D01*
X47242381Y-63378095D02*
X47242381Y-63949524D01*
X47242381Y-63663810D02*
X46242381Y-63663810D01*
X46385238Y-63759048D01*
X46480476Y-63854286D01*
X46528095Y-63949524D01*
X43702381Y-64378095D02*
X43702381Y-64854286D01*
X44178571Y-64901905D01*
X44130952Y-64854286D01*
X44083333Y-64759048D01*
X44083333Y-64520952D01*
X44130952Y-64425714D01*
X44178571Y-64378095D01*
X44273810Y-64330476D01*
X44511905Y-64330476D01*
X44607143Y-64378095D01*
X44654762Y-64425714D01*
X44702381Y-64520952D01*
X44702381Y-64759048D01*
X44654762Y-64854286D01*
X44607143Y-64901905D01*
X44702381Y-63854286D02*
X44702381Y-63663810D01*
X44654762Y-63568571D01*
X44607143Y-63520952D01*
X44464286Y-63425714D01*
X44273810Y-63378095D01*
X43892857Y-63378095D01*
X43797619Y-63425714D01*
X43750000Y-63473333D01*
X43702381Y-63568571D01*
X43702381Y-63759048D01*
X43750000Y-63854286D01*
X43797619Y-63901905D01*
X43892857Y-63949524D01*
X44130952Y-63949524D01*
X44226190Y-63901905D01*
X44273810Y-63854286D01*
X44321429Y-63759048D01*
X44321429Y-63568571D01*
X44273810Y-63473333D01*
X44226190Y-63425714D01*
X44130952Y-63378095D01*
X41162381Y-64378095D02*
X41162381Y-64854286D01*
X41638571Y-64901905D01*
X41590952Y-64854286D01*
X41543333Y-64759048D01*
X41543333Y-64520952D01*
X41590952Y-64425714D01*
X41638571Y-64378095D01*
X41733810Y-64330476D01*
X41971905Y-64330476D01*
X42067143Y-64378095D01*
X42114762Y-64425714D01*
X42162381Y-64520952D01*
X42162381Y-64759048D01*
X42114762Y-64854286D01*
X42067143Y-64901905D01*
X41162381Y-63997143D02*
X41162381Y-63330476D01*
X42162381Y-63759048D01*
X38622381Y-64378095D02*
X38622381Y-64854286D01*
X39098571Y-64901905D01*
X39050952Y-64854286D01*
X39003333Y-64759048D01*
X39003333Y-64520952D01*
X39050952Y-64425714D01*
X39098571Y-64378095D01*
X39193810Y-64330476D01*
X39431905Y-64330476D01*
X39527143Y-64378095D01*
X39574762Y-64425714D01*
X39622381Y-64520952D01*
X39622381Y-64759048D01*
X39574762Y-64854286D01*
X39527143Y-64901905D01*
X38622381Y-63425714D02*
X38622381Y-63901905D01*
X39098571Y-63949524D01*
X39050952Y-63901905D01*
X39003333Y-63806667D01*
X39003333Y-63568571D01*
X39050952Y-63473333D01*
X39098571Y-63425714D01*
X39193810Y-63378095D01*
X39431905Y-63378095D01*
X39527143Y-63425714D01*
X39574762Y-63473333D01*
X39622381Y-63568571D01*
X39622381Y-63806667D01*
X39574762Y-63901905D01*
X39527143Y-63949524D01*
X36082381Y-64378095D02*
X36082381Y-64854286D01*
X36558571Y-64901905D01*
X36510952Y-64854286D01*
X36463333Y-64759048D01*
X36463333Y-64520952D01*
X36510952Y-64425714D01*
X36558571Y-64378095D01*
X36653810Y-64330476D01*
X36891905Y-64330476D01*
X36987143Y-64378095D01*
X37034762Y-64425714D01*
X37082381Y-64520952D01*
X37082381Y-64759048D01*
X37034762Y-64854286D01*
X36987143Y-64901905D01*
X36082381Y-63997143D02*
X36082381Y-63378095D01*
X36463333Y-63711429D01*
X36463333Y-63568571D01*
X36510952Y-63473333D01*
X36558571Y-63425714D01*
X36653810Y-63378095D01*
X36891905Y-63378095D01*
X36987143Y-63425714D01*
X37034762Y-63473333D01*
X37082381Y-63568571D01*
X37082381Y-63854286D01*
X37034762Y-63949524D01*
X36987143Y-63997143D01*
X33542381Y-64378095D02*
X33542381Y-64854286D01*
X34018571Y-64901905D01*
X33970952Y-64854286D01*
X33923333Y-64759048D01*
X33923333Y-64520952D01*
X33970952Y-64425714D01*
X34018571Y-64378095D01*
X34113810Y-64330476D01*
X34351905Y-64330476D01*
X34447143Y-64378095D01*
X34494762Y-64425714D01*
X34542381Y-64520952D01*
X34542381Y-64759048D01*
X34494762Y-64854286D01*
X34447143Y-64901905D01*
X34542381Y-63378095D02*
X34542381Y-63949524D01*
X34542381Y-63663810D02*
X33542381Y-63663810D01*
X33685238Y-63759048D01*
X33780476Y-63854286D01*
X33828095Y-63949524D01*
X31335714Y-64425714D02*
X32002381Y-64425714D01*
X30954762Y-64663810D02*
X31669048Y-64901905D01*
X31669048Y-64282857D01*
X32002381Y-63854286D02*
X32002381Y-63663810D01*
X31954762Y-63568571D01*
X31907143Y-63520952D01*
X31764286Y-63425714D01*
X31573810Y-63378095D01*
X31192857Y-63378095D01*
X31097619Y-63425714D01*
X31050000Y-63473333D01*
X31002381Y-63568571D01*
X31002381Y-63759048D01*
X31050000Y-63854286D01*
X31097619Y-63901905D01*
X31192857Y-63949524D01*
X31430952Y-63949524D01*
X31526190Y-63901905D01*
X31573810Y-63854286D01*
X31621429Y-63759048D01*
X31621429Y-63568571D01*
X31573810Y-63473333D01*
X31526190Y-63425714D01*
X31430952Y-63378095D01*
X28795714Y-64425714D02*
X29462381Y-64425714D01*
X28414762Y-64663810D02*
X29129048Y-64901905D01*
X29129048Y-64282857D01*
X28462381Y-63997143D02*
X28462381Y-63330476D01*
X29462381Y-63759048D01*
X26255714Y-64425714D02*
X26922381Y-64425714D01*
X25874762Y-64663810D02*
X26589048Y-64901905D01*
X26589048Y-64282857D01*
X25922381Y-63425714D02*
X25922381Y-63901905D01*
X26398571Y-63949524D01*
X26350952Y-63901905D01*
X26303333Y-63806667D01*
X26303333Y-63568571D01*
X26350952Y-63473333D01*
X26398571Y-63425714D01*
X26493810Y-63378095D01*
X26731905Y-63378095D01*
X26827143Y-63425714D01*
X26874762Y-63473333D01*
X26922381Y-63568571D01*
X26922381Y-63806667D01*
X26874762Y-63901905D01*
X26827143Y-63949524D01*
X23715714Y-64425714D02*
X24382381Y-64425714D01*
X23334762Y-64663810D02*
X24049048Y-64901905D01*
X24049048Y-64282857D01*
X23382381Y-63997143D02*
X23382381Y-63378095D01*
X23763333Y-63711429D01*
X23763333Y-63568571D01*
X23810952Y-63473333D01*
X23858571Y-63425714D01*
X23953810Y-63378095D01*
X24191905Y-63378095D01*
X24287143Y-63425714D01*
X24334762Y-63473333D01*
X24382381Y-63568571D01*
X24382381Y-63854286D01*
X24334762Y-63949524D01*
X24287143Y-63997143D01*
X21175714Y-64425714D02*
X21842381Y-64425714D01*
X20794762Y-64663810D02*
X21509048Y-64901905D01*
X21509048Y-64282857D01*
X21842381Y-63378095D02*
X21842381Y-63949524D01*
X21842381Y-63663810D02*
X20842381Y-63663810D01*
X20985238Y-63759048D01*
X21080476Y-63854286D01*
X21128095Y-63949524D01*
X18302381Y-64949524D02*
X18302381Y-64330476D01*
X18683333Y-64663810D01*
X18683333Y-64520952D01*
X18730952Y-64425714D01*
X18778571Y-64378095D01*
X18873810Y-64330476D01*
X19111905Y-64330476D01*
X19207143Y-64378095D01*
X19254762Y-64425714D01*
X19302381Y-64520952D01*
X19302381Y-64806667D01*
X19254762Y-64901905D01*
X19207143Y-64949524D01*
X19302381Y-63854286D02*
X19302381Y-63663810D01*
X19254762Y-63568571D01*
X19207143Y-63520952D01*
X19064286Y-63425714D01*
X18873810Y-63378095D01*
X18492857Y-63378095D01*
X18397619Y-63425714D01*
X18350000Y-63473333D01*
X18302381Y-63568571D01*
X18302381Y-63759048D01*
X18350000Y-63854286D01*
X18397619Y-63901905D01*
X18492857Y-63949524D01*
X18730952Y-63949524D01*
X18826190Y-63901905D01*
X18873810Y-63854286D01*
X18921429Y-63759048D01*
X18921429Y-63568571D01*
X18873810Y-63473333D01*
X18826190Y-63425714D01*
X18730952Y-63378095D01*
X15762381Y-64949524D02*
X15762381Y-64330476D01*
X16143333Y-64663810D01*
X16143333Y-64520952D01*
X16190952Y-64425714D01*
X16238571Y-64378095D01*
X16333810Y-64330476D01*
X16571905Y-64330476D01*
X16667143Y-64378095D01*
X16714762Y-64425714D01*
X16762381Y-64520952D01*
X16762381Y-64806667D01*
X16714762Y-64901905D01*
X16667143Y-64949524D01*
X15762381Y-63997143D02*
X15762381Y-63330476D01*
X16762381Y-63759048D01*
X58822381Y-73944524D02*
X58822381Y-73277857D01*
X59822381Y-73706429D01*
X58917619Y-72944524D02*
X58870000Y-72896905D01*
X58822381Y-72801667D01*
X58822381Y-72563571D01*
X58870000Y-72468333D01*
X58917619Y-72420714D01*
X59012857Y-72373095D01*
X59108095Y-72373095D01*
X59250952Y-72420714D01*
X59822381Y-72992143D01*
X59822381Y-72373095D01*
X56282381Y-73944524D02*
X56282381Y-73277857D01*
X57282381Y-73706429D01*
X56282381Y-72706429D02*
X56282381Y-72611190D01*
X56330000Y-72515952D01*
X56377619Y-72468333D01*
X56472857Y-72420714D01*
X56663333Y-72373095D01*
X56901429Y-72373095D01*
X57091905Y-72420714D01*
X57187143Y-72468333D01*
X57234762Y-72515952D01*
X57282381Y-72611190D01*
X57282381Y-72706429D01*
X57234762Y-72801667D01*
X57187143Y-72849286D01*
X57091905Y-72896905D01*
X56901429Y-72944524D01*
X56663333Y-72944524D01*
X56472857Y-72896905D01*
X56377619Y-72849286D01*
X56330000Y-72801667D01*
X56282381Y-72706429D01*
X53742381Y-73420714D02*
X53742381Y-73611191D01*
X53790000Y-73706429D01*
X53837619Y-73754048D01*
X53980476Y-73849286D01*
X54170952Y-73896905D01*
X54551905Y-73896905D01*
X54647143Y-73849286D01*
X54694762Y-73801667D01*
X54742381Y-73706429D01*
X54742381Y-73515952D01*
X54694762Y-73420714D01*
X54647143Y-73373095D01*
X54551905Y-73325476D01*
X54313810Y-73325476D01*
X54218571Y-73373095D01*
X54170952Y-73420714D01*
X54123333Y-73515952D01*
X54123333Y-73706429D01*
X54170952Y-73801667D01*
X54218571Y-73849286D01*
X54313810Y-73896905D01*
X54170952Y-72754048D02*
X54123333Y-72849286D01*
X54075714Y-72896905D01*
X53980476Y-72944524D01*
X53932857Y-72944524D01*
X53837619Y-72896905D01*
X53790000Y-72849286D01*
X53742381Y-72754048D01*
X53742381Y-72563571D01*
X53790000Y-72468333D01*
X53837619Y-72420714D01*
X53932857Y-72373095D01*
X53980476Y-72373095D01*
X54075714Y-72420714D01*
X54123333Y-72468333D01*
X54170952Y-72563571D01*
X54170952Y-72754048D01*
X54218571Y-72849286D01*
X54266190Y-72896905D01*
X54361429Y-72944524D01*
X54551905Y-72944524D01*
X54647143Y-72896905D01*
X54694762Y-72849286D01*
X54742381Y-72754048D01*
X54742381Y-72563571D01*
X54694762Y-72468333D01*
X54647143Y-72420714D01*
X54551905Y-72373095D01*
X54361429Y-72373095D01*
X54266190Y-72420714D01*
X54218571Y-72468333D01*
X54170952Y-72563571D01*
X51202381Y-73420714D02*
X51202381Y-73611191D01*
X51250000Y-73706429D01*
X51297619Y-73754048D01*
X51440476Y-73849286D01*
X51630952Y-73896905D01*
X52011905Y-73896905D01*
X52107143Y-73849286D01*
X52154762Y-73801667D01*
X52202381Y-73706429D01*
X52202381Y-73515952D01*
X52154762Y-73420714D01*
X52107143Y-73373095D01*
X52011905Y-73325476D01*
X51773810Y-73325476D01*
X51678571Y-73373095D01*
X51630952Y-73420714D01*
X51583333Y-73515952D01*
X51583333Y-73706429D01*
X51630952Y-73801667D01*
X51678571Y-73849286D01*
X51773810Y-73896905D01*
X51202381Y-72468333D02*
X51202381Y-72658810D01*
X51250000Y-72754048D01*
X51297619Y-72801667D01*
X51440476Y-72896905D01*
X51630952Y-72944524D01*
X52011905Y-72944524D01*
X52107143Y-72896905D01*
X52154762Y-72849286D01*
X52202381Y-72754048D01*
X52202381Y-72563571D01*
X52154762Y-72468333D01*
X52107143Y-72420714D01*
X52011905Y-72373095D01*
X51773810Y-72373095D01*
X51678571Y-72420714D01*
X51630952Y-72468333D01*
X51583333Y-72563571D01*
X51583333Y-72754048D01*
X51630952Y-72849286D01*
X51678571Y-72896905D01*
X51773810Y-72944524D01*
X48662381Y-73420714D02*
X48662381Y-73611191D01*
X48710000Y-73706429D01*
X48757619Y-73754048D01*
X48900476Y-73849286D01*
X49090952Y-73896905D01*
X49471905Y-73896905D01*
X49567143Y-73849286D01*
X49614762Y-73801667D01*
X49662381Y-73706429D01*
X49662381Y-73515952D01*
X49614762Y-73420714D01*
X49567143Y-73373095D01*
X49471905Y-73325476D01*
X49233810Y-73325476D01*
X49138571Y-73373095D01*
X49090952Y-73420714D01*
X49043333Y-73515952D01*
X49043333Y-73706429D01*
X49090952Y-73801667D01*
X49138571Y-73849286D01*
X49233810Y-73896905D01*
X48995714Y-72468333D02*
X49662381Y-72468333D01*
X48614762Y-72706429D02*
X49329048Y-72944524D01*
X49329048Y-72325476D01*
X46122381Y-73420714D02*
X46122381Y-73611191D01*
X46170000Y-73706429D01*
X46217619Y-73754048D01*
X46360476Y-73849286D01*
X46550952Y-73896905D01*
X46931905Y-73896905D01*
X47027143Y-73849286D01*
X47074762Y-73801667D01*
X47122381Y-73706429D01*
X47122381Y-73515952D01*
X47074762Y-73420714D01*
X47027143Y-73373095D01*
X46931905Y-73325476D01*
X46693810Y-73325476D01*
X46598571Y-73373095D01*
X46550952Y-73420714D01*
X46503333Y-73515952D01*
X46503333Y-73706429D01*
X46550952Y-73801667D01*
X46598571Y-73849286D01*
X46693810Y-73896905D01*
X46217619Y-72944524D02*
X46170000Y-72896905D01*
X46122381Y-72801667D01*
X46122381Y-72563571D01*
X46170000Y-72468333D01*
X46217619Y-72420714D01*
X46312857Y-72373095D01*
X46408095Y-72373095D01*
X46550952Y-72420714D01*
X47122381Y-72992143D01*
X47122381Y-72373095D01*
X43582381Y-73420714D02*
X43582381Y-73611191D01*
X43630000Y-73706429D01*
X43677619Y-73754048D01*
X43820476Y-73849286D01*
X44010952Y-73896905D01*
X44391905Y-73896905D01*
X44487143Y-73849286D01*
X44534762Y-73801667D01*
X44582381Y-73706429D01*
X44582381Y-73515952D01*
X44534762Y-73420714D01*
X44487143Y-73373095D01*
X44391905Y-73325476D01*
X44153810Y-73325476D01*
X44058571Y-73373095D01*
X44010952Y-73420714D01*
X43963333Y-73515952D01*
X43963333Y-73706429D01*
X44010952Y-73801667D01*
X44058571Y-73849286D01*
X44153810Y-73896905D01*
X43582381Y-72706429D02*
X43582381Y-72611190D01*
X43630000Y-72515952D01*
X43677619Y-72468333D01*
X43772857Y-72420714D01*
X43963333Y-72373095D01*
X44201429Y-72373095D01*
X44391905Y-72420714D01*
X44487143Y-72468333D01*
X44534762Y-72515952D01*
X44582381Y-72611190D01*
X44582381Y-72706429D01*
X44534762Y-72801667D01*
X44487143Y-72849286D01*
X44391905Y-72896905D01*
X44201429Y-72944524D01*
X43963333Y-72944524D01*
X43772857Y-72896905D01*
X43677619Y-72849286D01*
X43630000Y-72801667D01*
X43582381Y-72706429D01*
X41042381Y-73373095D02*
X41042381Y-73849286D01*
X41518571Y-73896905D01*
X41470952Y-73849286D01*
X41423333Y-73754048D01*
X41423333Y-73515952D01*
X41470952Y-73420714D01*
X41518571Y-73373095D01*
X41613810Y-73325476D01*
X41851905Y-73325476D01*
X41947143Y-73373095D01*
X41994762Y-73420714D01*
X42042381Y-73515952D01*
X42042381Y-73754048D01*
X41994762Y-73849286D01*
X41947143Y-73896905D01*
X41470952Y-72754048D02*
X41423333Y-72849286D01*
X41375714Y-72896905D01*
X41280476Y-72944524D01*
X41232857Y-72944524D01*
X41137619Y-72896905D01*
X41090000Y-72849286D01*
X41042381Y-72754048D01*
X41042381Y-72563571D01*
X41090000Y-72468333D01*
X41137619Y-72420714D01*
X41232857Y-72373095D01*
X41280476Y-72373095D01*
X41375714Y-72420714D01*
X41423333Y-72468333D01*
X41470952Y-72563571D01*
X41470952Y-72754048D01*
X41518571Y-72849286D01*
X41566190Y-72896905D01*
X41661429Y-72944524D01*
X41851905Y-72944524D01*
X41947143Y-72896905D01*
X41994762Y-72849286D01*
X42042381Y-72754048D01*
X42042381Y-72563571D01*
X41994762Y-72468333D01*
X41947143Y-72420714D01*
X41851905Y-72373095D01*
X41661429Y-72373095D01*
X41566190Y-72420714D01*
X41518571Y-72468333D01*
X41470952Y-72563571D01*
X38502381Y-73373095D02*
X38502381Y-73849286D01*
X38978571Y-73896905D01*
X38930952Y-73849286D01*
X38883333Y-73754048D01*
X38883333Y-73515952D01*
X38930952Y-73420714D01*
X38978571Y-73373095D01*
X39073810Y-73325476D01*
X39311905Y-73325476D01*
X39407143Y-73373095D01*
X39454762Y-73420714D01*
X39502381Y-73515952D01*
X39502381Y-73754048D01*
X39454762Y-73849286D01*
X39407143Y-73896905D01*
X38502381Y-72468333D02*
X38502381Y-72658810D01*
X38550000Y-72754048D01*
X38597619Y-72801667D01*
X38740476Y-72896905D01*
X38930952Y-72944524D01*
X39311905Y-72944524D01*
X39407143Y-72896905D01*
X39454762Y-72849286D01*
X39502381Y-72754048D01*
X39502381Y-72563571D01*
X39454762Y-72468333D01*
X39407143Y-72420714D01*
X39311905Y-72373095D01*
X39073810Y-72373095D01*
X38978571Y-72420714D01*
X38930952Y-72468333D01*
X38883333Y-72563571D01*
X38883333Y-72754048D01*
X38930952Y-72849286D01*
X38978571Y-72896905D01*
X39073810Y-72944524D01*
X35962381Y-73373095D02*
X35962381Y-73849286D01*
X36438571Y-73896905D01*
X36390952Y-73849286D01*
X36343333Y-73754048D01*
X36343333Y-73515952D01*
X36390952Y-73420714D01*
X36438571Y-73373095D01*
X36533810Y-73325476D01*
X36771905Y-73325476D01*
X36867143Y-73373095D01*
X36914762Y-73420714D01*
X36962381Y-73515952D01*
X36962381Y-73754048D01*
X36914762Y-73849286D01*
X36867143Y-73896905D01*
X36295714Y-72468333D02*
X36962381Y-72468333D01*
X35914762Y-72706429D02*
X36629048Y-72944524D01*
X36629048Y-72325476D01*
X33422381Y-73373095D02*
X33422381Y-73849286D01*
X33898571Y-73896905D01*
X33850952Y-73849286D01*
X33803333Y-73754048D01*
X33803333Y-73515952D01*
X33850952Y-73420714D01*
X33898571Y-73373095D01*
X33993810Y-73325476D01*
X34231905Y-73325476D01*
X34327143Y-73373095D01*
X34374762Y-73420714D01*
X34422381Y-73515952D01*
X34422381Y-73754048D01*
X34374762Y-73849286D01*
X34327143Y-73896905D01*
X33517619Y-72944524D02*
X33470000Y-72896905D01*
X33422381Y-72801667D01*
X33422381Y-72563571D01*
X33470000Y-72468333D01*
X33517619Y-72420714D01*
X33612857Y-72373095D01*
X33708095Y-72373095D01*
X33850952Y-72420714D01*
X34422381Y-72992143D01*
X34422381Y-72373095D01*
X30882381Y-73373095D02*
X30882381Y-73849286D01*
X31358571Y-73896905D01*
X31310952Y-73849286D01*
X31263333Y-73754048D01*
X31263333Y-73515952D01*
X31310952Y-73420714D01*
X31358571Y-73373095D01*
X31453810Y-73325476D01*
X31691905Y-73325476D01*
X31787143Y-73373095D01*
X31834762Y-73420714D01*
X31882381Y-73515952D01*
X31882381Y-73754048D01*
X31834762Y-73849286D01*
X31787143Y-73896905D01*
X30882381Y-72706429D02*
X30882381Y-72611190D01*
X30930000Y-72515952D01*
X30977619Y-72468333D01*
X31072857Y-72420714D01*
X31263333Y-72373095D01*
X31501429Y-72373095D01*
X31691905Y-72420714D01*
X31787143Y-72468333D01*
X31834762Y-72515952D01*
X31882381Y-72611190D01*
X31882381Y-72706429D01*
X31834762Y-72801667D01*
X31787143Y-72849286D01*
X31691905Y-72896905D01*
X31501429Y-72944524D01*
X31263333Y-72944524D01*
X31072857Y-72896905D01*
X30977619Y-72849286D01*
X30930000Y-72801667D01*
X30882381Y-72706429D01*
X28675714Y-73420714D02*
X29342381Y-73420714D01*
X28294762Y-73658810D02*
X29009048Y-73896905D01*
X29009048Y-73277857D01*
X28770952Y-72754048D02*
X28723333Y-72849286D01*
X28675714Y-72896905D01*
X28580476Y-72944524D01*
X28532857Y-72944524D01*
X28437619Y-72896905D01*
X28390000Y-72849286D01*
X28342381Y-72754048D01*
X28342381Y-72563571D01*
X28390000Y-72468333D01*
X28437619Y-72420714D01*
X28532857Y-72373095D01*
X28580476Y-72373095D01*
X28675714Y-72420714D01*
X28723333Y-72468333D01*
X28770952Y-72563571D01*
X28770952Y-72754048D01*
X28818571Y-72849286D01*
X28866190Y-72896905D01*
X28961429Y-72944524D01*
X29151905Y-72944524D01*
X29247143Y-72896905D01*
X29294762Y-72849286D01*
X29342381Y-72754048D01*
X29342381Y-72563571D01*
X29294762Y-72468333D01*
X29247143Y-72420714D01*
X29151905Y-72373095D01*
X28961429Y-72373095D01*
X28866190Y-72420714D01*
X28818571Y-72468333D01*
X28770952Y-72563571D01*
X26135714Y-73420714D02*
X26802381Y-73420714D01*
X25754762Y-73658810D02*
X26469048Y-73896905D01*
X26469048Y-73277857D01*
X25802381Y-72468333D02*
X25802381Y-72658810D01*
X25850000Y-72754048D01*
X25897619Y-72801667D01*
X26040476Y-72896905D01*
X26230952Y-72944524D01*
X26611905Y-72944524D01*
X26707143Y-72896905D01*
X26754762Y-72849286D01*
X26802381Y-72754048D01*
X26802381Y-72563571D01*
X26754762Y-72468333D01*
X26707143Y-72420714D01*
X26611905Y-72373095D01*
X26373810Y-72373095D01*
X26278571Y-72420714D01*
X26230952Y-72468333D01*
X26183333Y-72563571D01*
X26183333Y-72754048D01*
X26230952Y-72849286D01*
X26278571Y-72896905D01*
X26373810Y-72944524D01*
X23595714Y-73420714D02*
X24262381Y-73420714D01*
X23214762Y-73658810D02*
X23929048Y-73896905D01*
X23929048Y-73277857D01*
X23595714Y-72468333D02*
X24262381Y-72468333D01*
X23214762Y-72706429D02*
X23929048Y-72944524D01*
X23929048Y-72325476D01*
X21055714Y-73420714D02*
X21722381Y-73420714D01*
X20674762Y-73658810D02*
X21389048Y-73896905D01*
X21389048Y-73277857D01*
X20817619Y-72944524D02*
X20770000Y-72896905D01*
X20722381Y-72801667D01*
X20722381Y-72563571D01*
X20770000Y-72468333D01*
X20817619Y-72420714D01*
X20912857Y-72373095D01*
X21008095Y-72373095D01*
X21150952Y-72420714D01*
X21722381Y-72992143D01*
X21722381Y-72373095D01*
X18515714Y-73420714D02*
X19182381Y-73420714D01*
X18134762Y-73658810D02*
X18849048Y-73896905D01*
X18849048Y-73277857D01*
X18182381Y-72706429D02*
X18182381Y-72611190D01*
X18230000Y-72515952D01*
X18277619Y-72468333D01*
X18372857Y-72420714D01*
X18563333Y-72373095D01*
X18801429Y-72373095D01*
X18991905Y-72420714D01*
X19087143Y-72468333D01*
X19134762Y-72515952D01*
X19182381Y-72611190D01*
X19182381Y-72706429D01*
X19134762Y-72801667D01*
X19087143Y-72849286D01*
X18991905Y-72896905D01*
X18801429Y-72944524D01*
X18563333Y-72944524D01*
X18372857Y-72896905D01*
X18277619Y-72849286D01*
X18230000Y-72801667D01*
X18182381Y-72706429D01*
X15642381Y-73944524D02*
X15642381Y-73325476D01*
X16023333Y-73658810D01*
X16023333Y-73515952D01*
X16070952Y-73420714D01*
X16118571Y-73373095D01*
X16213810Y-73325476D01*
X16451905Y-73325476D01*
X16547143Y-73373095D01*
X16594762Y-73420714D01*
X16642381Y-73515952D01*
X16642381Y-73801667D01*
X16594762Y-73896905D01*
X16547143Y-73944524D01*
X16070952Y-72754048D02*
X16023333Y-72849286D01*
X15975714Y-72896905D01*
X15880476Y-72944524D01*
X15832857Y-72944524D01*
X15737619Y-72896905D01*
X15690000Y-72849286D01*
X15642381Y-72754048D01*
X15642381Y-72563571D01*
X15690000Y-72468333D01*
X15737619Y-72420714D01*
X15832857Y-72373095D01*
X15880476Y-72373095D01*
X15975714Y-72420714D01*
X16023333Y-72468333D01*
X16070952Y-72563571D01*
X16070952Y-72754048D01*
X16118571Y-72849286D01*
X16166190Y-72896905D01*
X16261429Y-72944524D01*
X16451905Y-72944524D01*
X16547143Y-72896905D01*
X16594762Y-72849286D01*
X16642381Y-72754048D01*
X16642381Y-72563571D01*
X16594762Y-72468333D01*
X16547143Y-72420714D01*
X16451905Y-72373095D01*
X16261429Y-72373095D01*
X16166190Y-72420714D01*
X16118571Y-72468333D01*
X16070952Y-72563571D01*
X11440476Y-58922381D02*
X12059524Y-58922381D01*
X11726190Y-59303333D01*
X11869048Y-59303333D01*
X11964286Y-59350952D01*
X12011905Y-59398571D01*
X12059524Y-59493810D01*
X12059524Y-59731905D01*
X12011905Y-59827143D01*
X11964286Y-59874762D01*
X11869048Y-59922381D01*
X11583333Y-59922381D01*
X11488095Y-59874762D01*
X11440476Y-59827143D01*
X12964286Y-58922381D02*
X12488095Y-58922381D01*
X12440476Y-59398571D01*
X12488095Y-59350952D01*
X12583333Y-59303333D01*
X12821429Y-59303333D01*
X12916667Y-59350952D01*
X12964286Y-59398571D01*
X13011905Y-59493810D01*
X13011905Y-59731905D01*
X12964286Y-59827143D01*
X12916667Y-59874762D01*
X12821429Y-59922381D01*
X12583333Y-59922381D01*
X12488095Y-59874762D01*
X12440476Y-59827143D01*
X11440476Y-56382381D02*
X12059524Y-56382381D01*
X11726190Y-56763333D01*
X11869048Y-56763333D01*
X11964286Y-56810952D01*
X12011905Y-56858571D01*
X12059524Y-56953810D01*
X12059524Y-57191905D01*
X12011905Y-57287143D01*
X11964286Y-57334762D01*
X11869048Y-57382381D01*
X11583333Y-57382381D01*
X11488095Y-57334762D01*
X11440476Y-57287143D01*
X12392857Y-56382381D02*
X13011905Y-56382381D01*
X12678571Y-56763333D01*
X12821429Y-56763333D01*
X12916667Y-56810952D01*
X12964286Y-56858571D01*
X13011905Y-56953810D01*
X13011905Y-57191905D01*
X12964286Y-57287143D01*
X12916667Y-57334762D01*
X12821429Y-57382381D01*
X12535714Y-57382381D01*
X12440476Y-57334762D01*
X12392857Y-57287143D01*
X11440476Y-53842381D02*
X12059524Y-53842381D01*
X11726190Y-54223333D01*
X11869048Y-54223333D01*
X11964286Y-54270952D01*
X12011905Y-54318571D01*
X12059524Y-54413810D01*
X12059524Y-54651905D01*
X12011905Y-54747143D01*
X11964286Y-54794762D01*
X11869048Y-54842381D01*
X11583333Y-54842381D01*
X11488095Y-54794762D01*
X11440476Y-54747143D01*
X13011905Y-54842381D02*
X12440476Y-54842381D01*
X12726190Y-54842381D02*
X12726190Y-53842381D01*
X12630952Y-53985238D01*
X12535714Y-54080476D01*
X12440476Y-54128095D01*
X11488095Y-51397619D02*
X11535714Y-51350000D01*
X11630952Y-51302381D01*
X11869048Y-51302381D01*
X11964286Y-51350000D01*
X12011905Y-51397619D01*
X12059524Y-51492857D01*
X12059524Y-51588095D01*
X12011905Y-51730952D01*
X11440476Y-52302381D01*
X12059524Y-52302381D01*
X12535714Y-52302381D02*
X12726190Y-52302381D01*
X12821429Y-52254762D01*
X12869048Y-52207143D01*
X12964286Y-52064286D01*
X13011905Y-51873810D01*
X13011905Y-51492857D01*
X12964286Y-51397619D01*
X12916667Y-51350000D01*
X12821429Y-51302381D01*
X12630952Y-51302381D01*
X12535714Y-51350000D01*
X12488095Y-51397619D01*
X12440476Y-51492857D01*
X12440476Y-51730952D01*
X12488095Y-51826190D01*
X12535714Y-51873810D01*
X12630952Y-51921429D01*
X12821429Y-51921429D01*
X12916667Y-51873810D01*
X12964286Y-51826190D01*
X13011905Y-51730952D01*
X11488095Y-48857619D02*
X11535714Y-48810000D01*
X11630952Y-48762381D01*
X11869048Y-48762381D01*
X11964286Y-48810000D01*
X12011905Y-48857619D01*
X12059524Y-48952857D01*
X12059524Y-49048095D01*
X12011905Y-49190952D01*
X11440476Y-49762381D01*
X12059524Y-49762381D01*
X12392857Y-48762381D02*
X13059524Y-48762381D01*
X12630952Y-49762381D01*
X11488095Y-46317619D02*
X11535714Y-46270000D01*
X11630952Y-46222381D01*
X11869048Y-46222381D01*
X11964286Y-46270000D01*
X12011905Y-46317619D01*
X12059524Y-46412857D01*
X12059524Y-46508095D01*
X12011905Y-46650952D01*
X11440476Y-47222381D01*
X12059524Y-47222381D01*
X12964286Y-46222381D02*
X12488095Y-46222381D01*
X12440476Y-46698571D01*
X12488095Y-46650952D01*
X12583333Y-46603333D01*
X12821429Y-46603333D01*
X12916667Y-46650952D01*
X12964286Y-46698571D01*
X13011905Y-46793810D01*
X13011905Y-47031905D01*
X12964286Y-47127143D01*
X12916667Y-47174762D01*
X12821429Y-47222381D01*
X12583333Y-47222381D01*
X12488095Y-47174762D01*
X12440476Y-47127143D01*
X11488095Y-43777619D02*
X11535714Y-43730000D01*
X11630952Y-43682381D01*
X11869048Y-43682381D01*
X11964286Y-43730000D01*
X12011905Y-43777619D01*
X12059524Y-43872857D01*
X12059524Y-43968095D01*
X12011905Y-44110952D01*
X11440476Y-44682381D01*
X12059524Y-44682381D01*
X12392857Y-43682381D02*
X13011905Y-43682381D01*
X12678571Y-44063333D01*
X12821429Y-44063333D01*
X12916667Y-44110952D01*
X12964286Y-44158571D01*
X13011905Y-44253810D01*
X13011905Y-44491905D01*
X12964286Y-44587143D01*
X12916667Y-44634762D01*
X12821429Y-44682381D01*
X12535714Y-44682381D01*
X12440476Y-44634762D01*
X12392857Y-44587143D01*
X11488095Y-41237619D02*
X11535714Y-41190000D01*
X11630952Y-41142381D01*
X11869048Y-41142381D01*
X11964286Y-41190000D01*
X12011905Y-41237619D01*
X12059524Y-41332857D01*
X12059524Y-41428095D01*
X12011905Y-41570952D01*
X11440476Y-42142381D01*
X12059524Y-42142381D01*
X13011905Y-42142381D02*
X12440476Y-42142381D01*
X12726190Y-42142381D02*
X12726190Y-41142381D01*
X12630952Y-41285238D01*
X12535714Y-41380476D01*
X12440476Y-41428095D01*
X12059524Y-39602381D02*
X11488095Y-39602381D01*
X11773809Y-39602381D02*
X11773809Y-38602381D01*
X11678571Y-38745238D01*
X11583333Y-38840476D01*
X11488095Y-38888095D01*
X12535714Y-39602381D02*
X12726190Y-39602381D01*
X12821429Y-39554762D01*
X12869048Y-39507143D01*
X12964286Y-39364286D01*
X13011905Y-39173810D01*
X13011905Y-38792857D01*
X12964286Y-38697619D01*
X12916667Y-38650000D01*
X12821429Y-38602381D01*
X12630952Y-38602381D01*
X12535714Y-38650000D01*
X12488095Y-38697619D01*
X12440476Y-38792857D01*
X12440476Y-39030952D01*
X12488095Y-39126190D01*
X12535714Y-39173810D01*
X12630952Y-39221429D01*
X12821429Y-39221429D01*
X12916667Y-39173810D01*
X12964286Y-39126190D01*
X13011905Y-39030952D01*
X12059524Y-37062381D02*
X11488095Y-37062381D01*
X11773809Y-37062381D02*
X11773809Y-36062381D01*
X11678571Y-36205238D01*
X11583333Y-36300476D01*
X11488095Y-36348095D01*
X12392857Y-36062381D02*
X13059524Y-36062381D01*
X12630952Y-37062381D01*
X12059524Y-34522381D02*
X11488095Y-34522381D01*
X11773809Y-34522381D02*
X11773809Y-33522381D01*
X11678571Y-33665238D01*
X11583333Y-33760476D01*
X11488095Y-33808095D01*
X12964286Y-33522381D02*
X12488095Y-33522381D01*
X12440476Y-33998571D01*
X12488095Y-33950952D01*
X12583333Y-33903333D01*
X12821429Y-33903333D01*
X12916667Y-33950952D01*
X12964286Y-33998571D01*
X13011905Y-34093810D01*
X13011905Y-34331905D01*
X12964286Y-34427143D01*
X12916667Y-34474762D01*
X12821429Y-34522381D01*
X12583333Y-34522381D01*
X12488095Y-34474762D01*
X12440476Y-34427143D01*
X12059524Y-31982381D02*
X11488095Y-31982381D01*
X11773809Y-31982381D02*
X11773809Y-30982381D01*
X11678571Y-31125238D01*
X11583333Y-31220476D01*
X11488095Y-31268095D01*
X12392857Y-30982381D02*
X13011905Y-30982381D01*
X12678571Y-31363333D01*
X12821429Y-31363333D01*
X12916667Y-31410952D01*
X12964286Y-31458571D01*
X13011905Y-31553810D01*
X13011905Y-31791905D01*
X12964286Y-31887143D01*
X12916667Y-31934762D01*
X12821429Y-31982381D01*
X12535714Y-31982381D01*
X12440476Y-31934762D01*
X12392857Y-31887143D01*
X12059524Y-29442381D02*
X11488095Y-29442381D01*
X11773809Y-29442381D02*
X11773809Y-28442381D01*
X11678571Y-28585238D01*
X11583333Y-28680476D01*
X11488095Y-28728095D01*
X13011905Y-29442381D02*
X12440476Y-29442381D01*
X12726190Y-29442381D02*
X12726190Y-28442381D01*
X12630952Y-28585238D01*
X12535714Y-28680476D01*
X12440476Y-28728095D01*
X12059524Y-26902381D02*
X12250000Y-26902381D01*
X12345239Y-26854762D01*
X12392858Y-26807143D01*
X12488096Y-26664286D01*
X12535715Y-26473810D01*
X12535715Y-26092857D01*
X12488096Y-25997619D01*
X12440477Y-25950000D01*
X12345239Y-25902381D01*
X12154762Y-25902381D01*
X12059524Y-25950000D01*
X12011905Y-25997619D01*
X11964286Y-26092857D01*
X11964286Y-26330952D01*
X12011905Y-26426190D01*
X12059524Y-26473810D01*
X12154762Y-26521429D01*
X12345239Y-26521429D01*
X12440477Y-26473810D01*
X12488096Y-26426190D01*
X12535715Y-26330952D01*
X11916667Y-23362381D02*
X12583334Y-23362381D01*
X12154762Y-24362381D01*
X12488096Y-20822381D02*
X12011905Y-20822381D01*
X11964286Y-21298571D01*
X12011905Y-21250952D01*
X12107143Y-21203333D01*
X12345239Y-21203333D01*
X12440477Y-21250952D01*
X12488096Y-21298571D01*
X12535715Y-21393810D01*
X12535715Y-21631905D01*
X12488096Y-21727143D01*
X12440477Y-21774762D01*
X12345239Y-21822381D01*
X12107143Y-21822381D01*
X12011905Y-21774762D01*
X11964286Y-21727143D01*
X11916667Y-18282381D02*
X12535715Y-18282381D01*
X12202381Y-18663333D01*
X12345239Y-18663333D01*
X12440477Y-18710952D01*
X12488096Y-18758571D01*
X12535715Y-18853810D01*
X12535715Y-19091905D01*
X12488096Y-19187143D01*
X12440477Y-19234762D01*
X12345239Y-19282381D01*
X12059524Y-19282381D01*
X11964286Y-19234762D01*
X11916667Y-19187143D01*
X12535715Y-16742381D02*
X11964286Y-16742381D01*
X12250000Y-16742381D02*
X12250000Y-15742381D01*
X12154762Y-15885238D01*
X12059524Y-15980476D01*
X11964286Y-16028095D01*
X2100476Y-58972381D02*
X2719524Y-58972381D01*
X2386190Y-59353333D01*
X2529048Y-59353333D01*
X2624286Y-59400952D01*
X2671905Y-59448571D01*
X2719524Y-59543810D01*
X2719524Y-59781905D01*
X2671905Y-59877143D01*
X2624286Y-59924762D01*
X2529048Y-59972381D01*
X2243333Y-59972381D01*
X2148095Y-59924762D01*
X2100476Y-59877143D01*
X3576667Y-58972381D02*
X3386190Y-58972381D01*
X3290952Y-59020000D01*
X3243333Y-59067619D01*
X3148095Y-59210476D01*
X3100476Y-59400952D01*
X3100476Y-59781905D01*
X3148095Y-59877143D01*
X3195714Y-59924762D01*
X3290952Y-59972381D01*
X3481429Y-59972381D01*
X3576667Y-59924762D01*
X3624286Y-59877143D01*
X3671905Y-59781905D01*
X3671905Y-59543810D01*
X3624286Y-59448571D01*
X3576667Y-59400952D01*
X3481429Y-59353333D01*
X3290952Y-59353333D01*
X3195714Y-59400952D01*
X3148095Y-59448571D01*
X3100476Y-59543810D01*
X2100476Y-56632381D02*
X2719524Y-56632381D01*
X2386190Y-57013333D01*
X2529048Y-57013333D01*
X2624286Y-57060952D01*
X2671905Y-57108571D01*
X2719524Y-57203810D01*
X2719524Y-57441905D01*
X2671905Y-57537143D01*
X2624286Y-57584762D01*
X2529048Y-57632381D01*
X2243333Y-57632381D01*
X2148095Y-57584762D01*
X2100476Y-57537143D01*
X3576667Y-56965714D02*
X3576667Y-57632381D01*
X3338571Y-56584762D02*
X3100476Y-57299048D01*
X3719524Y-57299048D01*
X2100476Y-54092381D02*
X2719524Y-54092381D01*
X2386190Y-54473333D01*
X2529048Y-54473333D01*
X2624286Y-54520952D01*
X2671905Y-54568571D01*
X2719524Y-54663810D01*
X2719524Y-54901905D01*
X2671905Y-54997143D01*
X2624286Y-55044762D01*
X2529048Y-55092381D01*
X2243333Y-55092381D01*
X2148095Y-55044762D01*
X2100476Y-54997143D01*
X3100476Y-54187619D02*
X3148095Y-54140000D01*
X3243333Y-54092381D01*
X3481429Y-54092381D01*
X3576667Y-54140000D01*
X3624286Y-54187619D01*
X3671905Y-54282857D01*
X3671905Y-54378095D01*
X3624286Y-54520952D01*
X3052857Y-55092381D01*
X3671905Y-55092381D01*
X2100476Y-51552381D02*
X2719524Y-51552381D01*
X2386190Y-51933333D01*
X2529048Y-51933333D01*
X2624286Y-51980952D01*
X2671905Y-52028571D01*
X2719524Y-52123810D01*
X2719524Y-52361905D01*
X2671905Y-52457143D01*
X2624286Y-52504762D01*
X2529048Y-52552381D01*
X2243333Y-52552381D01*
X2148095Y-52504762D01*
X2100476Y-52457143D01*
X3338571Y-51552381D02*
X3433810Y-51552381D01*
X3529048Y-51600000D01*
X3576667Y-51647619D01*
X3624286Y-51742857D01*
X3671905Y-51933333D01*
X3671905Y-52171429D01*
X3624286Y-52361905D01*
X3576667Y-52457143D01*
X3529048Y-52504762D01*
X3433810Y-52552381D01*
X3338571Y-52552381D01*
X3243333Y-52504762D01*
X3195714Y-52457143D01*
X3148095Y-52361905D01*
X3100476Y-52171429D01*
X3100476Y-51933333D01*
X3148095Y-51742857D01*
X3195714Y-51647619D01*
X3243333Y-51600000D01*
X3338571Y-51552381D01*
X2148095Y-49107619D02*
X2195714Y-49060000D01*
X2290952Y-49012381D01*
X2529048Y-49012381D01*
X2624286Y-49060000D01*
X2671905Y-49107619D01*
X2719524Y-49202857D01*
X2719524Y-49298095D01*
X2671905Y-49440952D01*
X2100476Y-50012381D01*
X2719524Y-50012381D01*
X3290952Y-49440952D02*
X3195714Y-49393333D01*
X3148095Y-49345714D01*
X3100476Y-49250476D01*
X3100476Y-49202857D01*
X3148095Y-49107619D01*
X3195714Y-49060000D01*
X3290952Y-49012381D01*
X3481429Y-49012381D01*
X3576667Y-49060000D01*
X3624286Y-49107619D01*
X3671905Y-49202857D01*
X3671905Y-49250476D01*
X3624286Y-49345714D01*
X3576667Y-49393333D01*
X3481429Y-49440952D01*
X3290952Y-49440952D01*
X3195714Y-49488571D01*
X3148095Y-49536190D01*
X3100476Y-49631429D01*
X3100476Y-49821905D01*
X3148095Y-49917143D01*
X3195714Y-49964762D01*
X3290952Y-50012381D01*
X3481429Y-50012381D01*
X3576667Y-49964762D01*
X3624286Y-49917143D01*
X3671905Y-49821905D01*
X3671905Y-49631429D01*
X3624286Y-49536190D01*
X3576667Y-49488571D01*
X3481429Y-49440952D01*
X2148095Y-46567619D02*
X2195714Y-46520000D01*
X2290952Y-46472381D01*
X2529048Y-46472381D01*
X2624286Y-46520000D01*
X2671905Y-46567619D01*
X2719524Y-46662857D01*
X2719524Y-46758095D01*
X2671905Y-46900952D01*
X2100476Y-47472381D01*
X2719524Y-47472381D01*
X3576667Y-46472381D02*
X3386190Y-46472381D01*
X3290952Y-46520000D01*
X3243333Y-46567619D01*
X3148095Y-46710476D01*
X3100476Y-46900952D01*
X3100476Y-47281905D01*
X3148095Y-47377143D01*
X3195714Y-47424762D01*
X3290952Y-47472381D01*
X3481429Y-47472381D01*
X3576667Y-47424762D01*
X3624286Y-47377143D01*
X3671905Y-47281905D01*
X3671905Y-47043810D01*
X3624286Y-46948571D01*
X3576667Y-46900952D01*
X3481429Y-46853333D01*
X3290952Y-46853333D01*
X3195714Y-46900952D01*
X3148095Y-46948571D01*
X3100476Y-47043810D01*
X2148095Y-44027619D02*
X2195714Y-43980000D01*
X2290952Y-43932381D01*
X2529048Y-43932381D01*
X2624286Y-43980000D01*
X2671905Y-44027619D01*
X2719524Y-44122857D01*
X2719524Y-44218095D01*
X2671905Y-44360952D01*
X2100476Y-44932381D01*
X2719524Y-44932381D01*
X3576667Y-44265714D02*
X3576667Y-44932381D01*
X3338571Y-43884762D02*
X3100476Y-44599048D01*
X3719524Y-44599048D01*
X2148095Y-41487619D02*
X2195714Y-41440000D01*
X2290952Y-41392381D01*
X2529048Y-41392381D01*
X2624286Y-41440000D01*
X2671905Y-41487619D01*
X2719524Y-41582857D01*
X2719524Y-41678095D01*
X2671905Y-41820952D01*
X2100476Y-42392381D01*
X2719524Y-42392381D01*
X3100476Y-41487619D02*
X3148095Y-41440000D01*
X3243333Y-41392381D01*
X3481429Y-41392381D01*
X3576667Y-41440000D01*
X3624286Y-41487619D01*
X3671905Y-41582857D01*
X3671905Y-41678095D01*
X3624286Y-41820952D01*
X3052857Y-42392381D01*
X3671905Y-42392381D01*
X2148095Y-38947619D02*
X2195714Y-38900000D01*
X2290952Y-38852381D01*
X2529048Y-38852381D01*
X2624286Y-38900000D01*
X2671905Y-38947619D01*
X2719524Y-39042857D01*
X2719524Y-39138095D01*
X2671905Y-39280952D01*
X2100476Y-39852381D01*
X2719524Y-39852381D01*
X3338571Y-38852381D02*
X3433810Y-38852381D01*
X3529048Y-38900000D01*
X3576667Y-38947619D01*
X3624286Y-39042857D01*
X3671905Y-39233333D01*
X3671905Y-39471429D01*
X3624286Y-39661905D01*
X3576667Y-39757143D01*
X3529048Y-39804762D01*
X3433810Y-39852381D01*
X3338571Y-39852381D01*
X3243333Y-39804762D01*
X3195714Y-39757143D01*
X3148095Y-39661905D01*
X3100476Y-39471429D01*
X3100476Y-39233333D01*
X3148095Y-39042857D01*
X3195714Y-38947619D01*
X3243333Y-38900000D01*
X3338571Y-38852381D01*
X2719524Y-37312381D02*
X2148095Y-37312381D01*
X2433809Y-37312381D02*
X2433809Y-36312381D01*
X2338571Y-36455238D01*
X2243333Y-36550476D01*
X2148095Y-36598095D01*
X3290952Y-36740952D02*
X3195714Y-36693333D01*
X3148095Y-36645714D01*
X3100476Y-36550476D01*
X3100476Y-36502857D01*
X3148095Y-36407619D01*
X3195714Y-36360000D01*
X3290952Y-36312381D01*
X3481429Y-36312381D01*
X3576667Y-36360000D01*
X3624286Y-36407619D01*
X3671905Y-36502857D01*
X3671905Y-36550476D01*
X3624286Y-36645714D01*
X3576667Y-36693333D01*
X3481429Y-36740952D01*
X3290952Y-36740952D01*
X3195714Y-36788571D01*
X3148095Y-36836190D01*
X3100476Y-36931429D01*
X3100476Y-37121905D01*
X3148095Y-37217143D01*
X3195714Y-37264762D01*
X3290952Y-37312381D01*
X3481429Y-37312381D01*
X3576667Y-37264762D01*
X3624286Y-37217143D01*
X3671905Y-37121905D01*
X3671905Y-36931429D01*
X3624286Y-36836190D01*
X3576667Y-36788571D01*
X3481429Y-36740952D01*
X2719524Y-34772381D02*
X2148095Y-34772381D01*
X2433809Y-34772381D02*
X2433809Y-33772381D01*
X2338571Y-33915238D01*
X2243333Y-34010476D01*
X2148095Y-34058095D01*
X3576667Y-33772381D02*
X3386190Y-33772381D01*
X3290952Y-33820000D01*
X3243333Y-33867619D01*
X3148095Y-34010476D01*
X3100476Y-34200952D01*
X3100476Y-34581905D01*
X3148095Y-34677143D01*
X3195714Y-34724762D01*
X3290952Y-34772381D01*
X3481429Y-34772381D01*
X3576667Y-34724762D01*
X3624286Y-34677143D01*
X3671905Y-34581905D01*
X3671905Y-34343810D01*
X3624286Y-34248571D01*
X3576667Y-34200952D01*
X3481429Y-34153333D01*
X3290952Y-34153333D01*
X3195714Y-34200952D01*
X3148095Y-34248571D01*
X3100476Y-34343810D01*
X2719524Y-32232381D02*
X2148095Y-32232381D01*
X2433809Y-32232381D02*
X2433809Y-31232381D01*
X2338571Y-31375238D01*
X2243333Y-31470476D01*
X2148095Y-31518095D01*
X3576667Y-31565714D02*
X3576667Y-32232381D01*
X3338571Y-31184762D02*
X3100476Y-31899048D01*
X3719524Y-31899048D01*
X2719524Y-29692381D02*
X2148095Y-29692381D01*
X2433809Y-29692381D02*
X2433809Y-28692381D01*
X2338571Y-28835238D01*
X2243333Y-28930476D01*
X2148095Y-28978095D01*
X3100476Y-28787619D02*
X3148095Y-28740000D01*
X3243333Y-28692381D01*
X3481429Y-28692381D01*
X3576667Y-28740000D01*
X3624286Y-28787619D01*
X3671905Y-28882857D01*
X3671905Y-28978095D01*
X3624286Y-29120952D01*
X3052857Y-29692381D01*
X3671905Y-29692381D01*
X2719524Y-27152381D02*
X2148095Y-27152381D01*
X2433809Y-27152381D02*
X2433809Y-26152381D01*
X2338571Y-26295238D01*
X2243333Y-26390476D01*
X2148095Y-26438095D01*
X3338571Y-26152381D02*
X3433810Y-26152381D01*
X3529048Y-26200000D01*
X3576667Y-26247619D01*
X3624286Y-26342857D01*
X3671905Y-26533333D01*
X3671905Y-26771429D01*
X3624286Y-26961905D01*
X3576667Y-27057143D01*
X3529048Y-27104762D01*
X3433810Y-27152381D01*
X3338571Y-27152381D01*
X3243333Y-27104762D01*
X3195714Y-27057143D01*
X3148095Y-26961905D01*
X3100476Y-26771429D01*
X3100476Y-26533333D01*
X3148095Y-26342857D01*
X3195714Y-26247619D01*
X3243333Y-26200000D01*
X3338571Y-26152381D01*
X2814762Y-24040952D02*
X2719524Y-23993333D01*
X2671905Y-23945714D01*
X2624286Y-23850476D01*
X2624286Y-23802857D01*
X2671905Y-23707619D01*
X2719524Y-23660000D01*
X2814762Y-23612381D01*
X3005239Y-23612381D01*
X3100477Y-23660000D01*
X3148096Y-23707619D01*
X3195715Y-23802857D01*
X3195715Y-23850476D01*
X3148096Y-23945714D01*
X3100477Y-23993333D01*
X3005239Y-24040952D01*
X2814762Y-24040952D01*
X2719524Y-24088571D01*
X2671905Y-24136190D01*
X2624286Y-24231429D01*
X2624286Y-24421905D01*
X2671905Y-24517143D01*
X2719524Y-24564762D01*
X2814762Y-24612381D01*
X3005239Y-24612381D01*
X3100477Y-24564762D01*
X3148096Y-24517143D01*
X3195715Y-24421905D01*
X3195715Y-24231429D01*
X3148096Y-24136190D01*
X3100477Y-24088571D01*
X3005239Y-24040952D01*
X3100477Y-21072381D02*
X2910000Y-21072381D01*
X2814762Y-21120000D01*
X2767143Y-21167619D01*
X2671905Y-21310476D01*
X2624286Y-21500952D01*
X2624286Y-21881905D01*
X2671905Y-21977143D01*
X2719524Y-22024762D01*
X2814762Y-22072381D01*
X3005239Y-22072381D01*
X3100477Y-22024762D01*
X3148096Y-21977143D01*
X3195715Y-21881905D01*
X3195715Y-21643810D01*
X3148096Y-21548571D01*
X3100477Y-21500952D01*
X3005239Y-21453333D01*
X2814762Y-21453333D01*
X2719524Y-21500952D01*
X2671905Y-21548571D01*
X2624286Y-21643810D01*
X3100477Y-18865714D02*
X3100477Y-19532381D01*
X2862381Y-18484762D02*
X2624286Y-19199048D01*
X3243334Y-19199048D01*
X2624286Y-16087619D02*
X2671905Y-16040000D01*
X2767143Y-15992381D01*
X3005239Y-15992381D01*
X3100477Y-16040000D01*
X3148096Y-16087619D01*
X3195715Y-16182857D01*
X3195715Y-16278095D01*
X3148096Y-16420952D01*
X2576667Y-16992381D01*
X3195715Y-16992381D01*
D12*
X14415001Y-16475000D02*
X14415001Y-59475000D01*
X14415001Y-59475000D02*
X61415001Y-59475000D01*
X61415001Y-59475000D02*
X61415001Y-16475000D01*
X61415001Y-16475000D02*
X14415001Y-16475000D01*
D13*
X10000000Y-17580000D02*
X10000000Y-60820000D01*
X10000000Y-60820000D02*
X4800000Y-60820000D01*
X4800000Y-60820000D02*
X4800000Y-14980000D01*
X4800000Y-14980000D02*
X7400000Y-14980000D01*
X7400000Y-14980000D02*
X7400000Y-17580000D01*
X7400000Y-17580000D02*
X10000000Y-17580000D01*
X10000000Y-16310000D02*
X10000000Y-14980000D01*
X10000000Y-14980000D02*
X8730000Y-14980000D01*
X16280000Y-65940000D02*
X17600000Y-65940000D01*
X14940000Y-68530000D02*
X14940000Y-67210000D01*
X14940000Y-67210000D02*
X14940000Y-67190000D01*
X17540000Y-65940000D02*
X60780000Y-65940000D01*
X60780000Y-65940000D02*
X60780000Y-71140000D01*
X60780000Y-71140000D02*
X14940000Y-71140000D01*
X14940000Y-71140000D02*
X14940000Y-68540000D01*
X16270000Y-65940000D02*
X14940000Y-65940000D01*
X14940000Y-65940000D02*
X14940000Y-67210000D01*
X71030000Y-16450000D02*
X71030000Y-17770000D01*
X68440000Y-15110000D02*
X69760000Y-15110000D01*
X69760000Y-15110000D02*
X69780000Y-15110000D01*
X71030000Y-17710000D02*
X71030000Y-60950000D01*
X71030000Y-60950000D02*
X65830000Y-60950000D01*
X65830000Y-60950000D02*
X65830000Y-15110000D01*
X65830000Y-15110000D02*
X68430000Y-15110000D01*
X71030000Y-16440000D02*
X71030000Y-15110000D01*
X71030000Y-15110000D02*
X69760000Y-15110000D01*
X59440000Y-10060000D02*
X58120000Y-10060000D01*
X60780000Y-7470000D02*
X60780000Y-8790000D01*
X60780000Y-8790000D02*
X60780000Y-8810000D01*
X58180000Y-10060000D02*
X14940000Y-10060000D01*
X14940000Y-10060000D02*
X14940000Y-4860000D01*
X14940000Y-4860000D02*
X60780000Y-4860000D01*
X60780000Y-4860000D02*
X60780000Y-7460000D01*
X59450000Y-10060000D02*
X60780000Y-10060000D01*
X60780000Y-10060000D02*
X60780000Y-8790000D01*
D11*
X59153096Y-60427381D02*
X59153096Y-61236905D01*
X59200715Y-61332143D01*
X59248334Y-61379762D01*
X59343572Y-61427381D01*
X59534049Y-61427381D01*
X59629287Y-61379762D01*
X59676906Y-61332143D01*
X59724525Y-61236905D01*
X59724525Y-60427381D01*
X60724525Y-61427381D02*
X60153096Y-61427381D01*
X60438810Y-61427381D02*
X60438810Y-60427381D01*
X60343572Y-60570238D01*
X60248334Y-60665476D01*
X60153096Y-60713095D01*
X7066667Y-13432381D02*
X7066667Y-14146667D01*
X7019047Y-14289524D01*
X6923809Y-14384762D01*
X6780952Y-14432381D01*
X6685714Y-14432381D01*
X8066667Y-14432381D02*
X7495238Y-14432381D01*
X7780952Y-14432381D02*
X7780952Y-13432381D01*
X7685714Y-13575238D01*
X7590476Y-13670476D01*
X7495238Y-13718095D01*
X13392381Y-68873333D02*
X14106667Y-68873333D01*
X14249524Y-68920953D01*
X14344762Y-69016191D01*
X14392381Y-69159048D01*
X14392381Y-69254286D01*
X13487619Y-68444762D02*
X13440000Y-68397143D01*
X13392381Y-68301905D01*
X13392381Y-68063809D01*
X13440000Y-67968571D01*
X13487619Y-67920952D01*
X13582857Y-67873333D01*
X13678095Y-67873333D01*
X13820952Y-67920952D01*
X14392381Y-68492381D01*
X14392381Y-67873333D01*
X68096667Y-13562381D02*
X68096667Y-14276667D01*
X68049047Y-14419524D01*
X67953809Y-14514762D01*
X67810952Y-14562381D01*
X67715714Y-14562381D01*
X68477619Y-13562381D02*
X69096667Y-13562381D01*
X68763333Y-13943333D01*
X68906191Y-13943333D01*
X69001429Y-13990952D01*
X69049048Y-14038571D01*
X69096667Y-14133810D01*
X69096667Y-14371905D01*
X69049048Y-14467143D01*
X69001429Y-14514762D01*
X68906191Y-14562381D01*
X68620476Y-14562381D01*
X68525238Y-14514762D01*
X68477619Y-14467143D01*
X61232381Y-7793333D02*
X61946667Y-7793333D01*
X62089524Y-7840953D01*
X62184762Y-7936191D01*
X62232381Y-8079048D01*
X62232381Y-8174286D01*
X61565714Y-6888571D02*
X62232381Y-6888571D01*
X61184762Y-7126667D02*
X61899048Y-7364762D01*
X61899048Y-6745714D01*
M02*
