%TF.GenerationSoftware,KiCad,Pcbnew,4.0.7*%
%TF.CreationDate,2017-11-27T18:36:11+08:00*%
%TF.ProjectId,ic51,696335312E6B696361645F7063620000,rev?*%
%TF.FileFunction,Soldermask,Bot*%
%FSLAX46Y46*%
G04 Gerber Fmt 4.6, Leading zero omitted, Abs format (unit mm)*
G04 Created by KiCad (PCBNEW 4.0.7) date 11/27/17 18:36:11*
%MOMM*%
%LPD*%
G01*
G04 APERTURE LIST*
%ADD10C,0.100000*%
%ADD11O,1.100000X2.140000*%
%ADD12O,2.140000X1.100000*%
%ADD13C,3.600000*%
%ADD14R,2.100000X2.100000*%
%ADD15O,2.100000X2.100000*%
%ADD16C,1.924000*%
G04 APERTURE END LIST*
D10*
D11*
X37727501Y-49475000D03*
X36352501Y-49475000D03*
D12*
X21335001Y-29912500D03*
X21335001Y-31287500D03*
X21335001Y-32662500D03*
X21335001Y-34037500D03*
X21335001Y-35412500D03*
X21335001Y-36787500D03*
X21335001Y-38162500D03*
X21335001Y-39537500D03*
X21335001Y-40912500D03*
X21335001Y-42287500D03*
X21335001Y-43662500D03*
X21335001Y-45037500D03*
X54495001Y-30912500D03*
X54495001Y-32287500D03*
X54495001Y-33662500D03*
X54495001Y-35037500D03*
X54495001Y-36412500D03*
X54495001Y-37787500D03*
X54495001Y-39162500D03*
X54495001Y-40537500D03*
X54495001Y-41912500D03*
X54495001Y-43287500D03*
X54495001Y-44662500D03*
X54495001Y-46037500D03*
X51955001Y-30412500D03*
X51955001Y-31787500D03*
X51955001Y-33162500D03*
X51955001Y-34537500D03*
X51955001Y-35912500D03*
X51955001Y-37287500D03*
X51955001Y-38662500D03*
X51955001Y-40037500D03*
X51955001Y-41412500D03*
X51955001Y-42787500D03*
X51955001Y-44162500D03*
X51955001Y-45537500D03*
X23875001Y-30412500D03*
X23875001Y-31787500D03*
X23875001Y-33162500D03*
X23875001Y-34537500D03*
X23875001Y-35912500D03*
X23875001Y-37287500D03*
X23875001Y-38662500D03*
X23875001Y-40037500D03*
X23875001Y-41412500D03*
X23875001Y-42787500D03*
X23875001Y-44162500D03*
X23875001Y-45537500D03*
X49415001Y-29912500D03*
X49415001Y-31287500D03*
X49415001Y-32662500D03*
X49415001Y-34037500D03*
X49415001Y-35412500D03*
X49415001Y-36787500D03*
X49415001Y-38162500D03*
X49415001Y-39537500D03*
X49415001Y-40912500D03*
X49415001Y-42287500D03*
X49415001Y-43662500D03*
X26415001Y-30912500D03*
X26415001Y-32287500D03*
X26415001Y-33662500D03*
X26415001Y-35037500D03*
X26415001Y-36412500D03*
X26415001Y-37787500D03*
X26415001Y-39162500D03*
X26415001Y-40537500D03*
X26415001Y-41912500D03*
X26415001Y-43287500D03*
X26415001Y-44662500D03*
X49415001Y-45037500D03*
X26415001Y-46037500D03*
D11*
X30852501Y-21395000D03*
X30852501Y-49475000D03*
X32227501Y-21395000D03*
X33602501Y-21395000D03*
X34977501Y-21395000D03*
X36352501Y-21395000D03*
X37727501Y-21395000D03*
X39102501Y-21395000D03*
X40477501Y-21395000D03*
X41852501Y-21395000D03*
X43227501Y-21395000D03*
X44602501Y-21395000D03*
X45977501Y-21395000D03*
X32227501Y-49475000D03*
X33602501Y-49475000D03*
X34977501Y-49475000D03*
X39102501Y-49475000D03*
X40477501Y-49475000D03*
X41852501Y-49475000D03*
X43227501Y-49475000D03*
X44602501Y-49475000D03*
X45977501Y-49475000D03*
X30352501Y-23935000D03*
X31727501Y-23935000D03*
X33102501Y-23935000D03*
X34477501Y-23935000D03*
X35852501Y-23935000D03*
X37227501Y-23935000D03*
X38602501Y-23935000D03*
X39977501Y-23935000D03*
X41352501Y-23935000D03*
X42727501Y-23935000D03*
X44102501Y-23935000D03*
X45477501Y-23935000D03*
X30352501Y-52015000D03*
X31727501Y-52015000D03*
X33102501Y-52015000D03*
X34477501Y-52015000D03*
X35852501Y-52015000D03*
X37227501Y-52015000D03*
X38602501Y-52015000D03*
X39977501Y-52015000D03*
X41352501Y-52015000D03*
X42727501Y-52015000D03*
X44102501Y-52015000D03*
X45477501Y-52015000D03*
X29852501Y-54555000D03*
X31227501Y-54555000D03*
X32602501Y-54555000D03*
X33977501Y-54555000D03*
X35352501Y-54555000D03*
X36727501Y-54555000D03*
X38102501Y-54555000D03*
X39477501Y-54555000D03*
X40852501Y-54555000D03*
X42227501Y-54555000D03*
X43602501Y-54555000D03*
X44977501Y-54555000D03*
X29852501Y-26475000D03*
X31227501Y-26475000D03*
X32602501Y-26475000D03*
X33977501Y-26475000D03*
X35352501Y-26475000D03*
X36727501Y-26475000D03*
X38102501Y-26475000D03*
X39477501Y-26475000D03*
X40852501Y-26475000D03*
X42227501Y-26475000D03*
X43602501Y-26475000D03*
X44977501Y-26475000D03*
D13*
X53915001Y-21975000D03*
X53915001Y-53975000D03*
X21915001Y-53975000D03*
X21915001Y-21975000D03*
D14*
X8670000Y-16310000D03*
D15*
X6130000Y-16310000D03*
X8670000Y-18850000D03*
X6130000Y-18850000D03*
X8670000Y-21390000D03*
X6130000Y-21390000D03*
X8670000Y-23930000D03*
X6130000Y-23930000D03*
X8670000Y-26470000D03*
X6130000Y-26470000D03*
X8670000Y-29010000D03*
X6130000Y-29010000D03*
X8670000Y-31550000D03*
X6130000Y-31550000D03*
X8670000Y-34090000D03*
X6130000Y-34090000D03*
X8670000Y-36630000D03*
X6130000Y-36630000D03*
X8670000Y-39170000D03*
X6130000Y-39170000D03*
X8670000Y-41710000D03*
X6130000Y-41710000D03*
X8670000Y-44250000D03*
X6130000Y-44250000D03*
X8670000Y-46790000D03*
X6130000Y-46790000D03*
X8670000Y-49330000D03*
X6130000Y-49330000D03*
X8670000Y-51870000D03*
X6130000Y-51870000D03*
X8670000Y-54410000D03*
X6130000Y-54410000D03*
X8670000Y-56950000D03*
X6130000Y-56950000D03*
X8670000Y-59490000D03*
X6130000Y-59490000D03*
D16*
X16270000Y-67270000D03*
X16270000Y-69810000D03*
D15*
X18810000Y-67270000D03*
X18810000Y-69810000D03*
X21350000Y-67270000D03*
X21350000Y-69810000D03*
X23890000Y-67270000D03*
X23890000Y-69810000D03*
X26430000Y-67270000D03*
X26430000Y-69810000D03*
X28970000Y-67270000D03*
X28970000Y-69810000D03*
X31510000Y-67270000D03*
X31510000Y-69810000D03*
X34050000Y-67270000D03*
X34050000Y-69810000D03*
X36590000Y-67270000D03*
X36590000Y-69810000D03*
X39130000Y-67270000D03*
X39130000Y-69810000D03*
X41670000Y-67270000D03*
X41670000Y-69810000D03*
X44210000Y-67270000D03*
X44210000Y-69810000D03*
X46750000Y-67270000D03*
X46750000Y-69810000D03*
X49290000Y-67270000D03*
X49290000Y-69810000D03*
X51830000Y-67270000D03*
X51830000Y-69810000D03*
X54370000Y-67270000D03*
X54370000Y-69810000D03*
X56910000Y-67270000D03*
X56910000Y-69810000D03*
X59450000Y-67270000D03*
X59450000Y-69810000D03*
D16*
X69700000Y-16440000D03*
X67160000Y-16440000D03*
D15*
X69700000Y-18980000D03*
X67160000Y-18980000D03*
X69700000Y-21520000D03*
X67160000Y-21520000D03*
X69700000Y-24060000D03*
X67160000Y-24060000D03*
X69700000Y-26600000D03*
X67160000Y-26600000D03*
X69700000Y-29140000D03*
X67160000Y-29140000D03*
X69700000Y-31680000D03*
X67160000Y-31680000D03*
X69700000Y-34220000D03*
X67160000Y-34220000D03*
X69700000Y-36760000D03*
X67160000Y-36760000D03*
X69700000Y-39300000D03*
X67160000Y-39300000D03*
X69700000Y-41840000D03*
X67160000Y-41840000D03*
X69700000Y-44380000D03*
X67160000Y-44380000D03*
X69700000Y-46920000D03*
X67160000Y-46920000D03*
X69700000Y-49460000D03*
X67160000Y-49460000D03*
X69700000Y-52000000D03*
X67160000Y-52000000D03*
X69700000Y-54540000D03*
X67160000Y-54540000D03*
X69700000Y-57080000D03*
X67160000Y-57080000D03*
X69700000Y-59620000D03*
X67160000Y-59620000D03*
D16*
X59450000Y-8730000D03*
X59450000Y-6190000D03*
D15*
X56910000Y-8730000D03*
X56910000Y-6190000D03*
X54370000Y-8730000D03*
X54370000Y-6190000D03*
X51830000Y-8730000D03*
X51830000Y-6190000D03*
X49290000Y-8730000D03*
X49290000Y-6190000D03*
X46750000Y-8730000D03*
X46750000Y-6190000D03*
X44210000Y-8730000D03*
X44210000Y-6190000D03*
X41670000Y-8730000D03*
X41670000Y-6190000D03*
X39130000Y-8730000D03*
X39130000Y-6190000D03*
X36590000Y-8730000D03*
X36590000Y-6190000D03*
X34050000Y-8730000D03*
X34050000Y-6190000D03*
X31510000Y-8730000D03*
X31510000Y-6190000D03*
X28970000Y-8730000D03*
X28970000Y-6190000D03*
X26430000Y-8730000D03*
X26430000Y-6190000D03*
X23890000Y-8730000D03*
X23890000Y-6190000D03*
X21350000Y-8730000D03*
X21350000Y-6190000D03*
X18810000Y-8730000D03*
X18810000Y-6190000D03*
X16270000Y-8730000D03*
X16270000Y-6190000D03*
M02*
