M48
;DRILL file {KiCad 4.0.7} date 11/17/17 13:18:26
;FORMAT={-:-/ absolute / metric / decimal}
FMAT,2
METRIC,TZ
T1C0.500
T2C0.762
T3C1.000
T4C3.200
%
G90
G05
M71
T1
X20.735Y-29.262
X20.735Y-30.637
X20.735Y-32.012
X20.735Y-33.387
X20.735Y-34.762
X20.735Y-36.137
X20.735Y-37.512
X20.735Y-38.887
X20.735Y-40.262
X20.735Y-41.637
X20.735Y-43.012
X20.735Y-44.387
X23.275Y-29.762
X23.275Y-31.137
X23.275Y-32.512
X23.275Y-33.887
X23.275Y-35.262
X23.275Y-36.637
X23.275Y-38.012
X23.275Y-39.387
X23.275Y-40.762
X23.275Y-42.137
X23.275Y-43.512
X23.275Y-44.887
X25.815Y-30.262
X25.815Y-31.637
X25.815Y-33.012
X25.815Y-34.387
X25.815Y-35.762
X25.815Y-37.137
X25.815Y-38.512
X25.815Y-39.887
X25.815Y-41.262
X25.815Y-42.637
X25.815Y-44.012
X25.815Y-45.387
X29.253Y-25.825
X29.253Y-53.905
X29.753Y-23.285
X29.753Y-51.365
X30.253Y-20.745
X30.253Y-48.825
X30.628Y-25.825
X30.628Y-53.905
X31.128Y-23.285
X31.128Y-51.365
X31.628Y-20.745
X31.628Y-48.825
X32.003Y-25.825
X32.003Y-53.905
X32.503Y-23.285
X32.503Y-51.365
X33.003Y-20.745
X33.003Y-48.825
X33.378Y-25.825
X33.378Y-53.905
X33.878Y-23.285
X33.878Y-51.365
X34.378Y-20.745
X34.378Y-48.825
X34.753Y-25.825
X34.753Y-53.905
X35.253Y-23.285
X35.253Y-51.365
X35.753Y-20.745
X35.753Y-48.825
X36.128Y-25.825
X36.128Y-53.905
X36.628Y-23.285
X36.628Y-51.365
X37.128Y-20.745
X37.128Y-48.825
X37.503Y-25.825
X37.503Y-53.905
X38.003Y-23.285
X38.003Y-51.365
X38.503Y-20.745
X38.503Y-48.825
X38.878Y-25.825
X38.878Y-53.905
X39.378Y-23.285
X39.378Y-51.365
X39.878Y-20.745
X39.878Y-48.825
X40.253Y-25.825
X40.253Y-53.905
X40.753Y-23.285
X40.753Y-51.365
X41.253Y-20.745
X41.253Y-48.825
X41.628Y-25.825
X41.628Y-53.905
X42.128Y-23.285
X42.128Y-51.365
X42.628Y-20.745
X42.628Y-48.825
X43.003Y-25.825
X43.003Y-53.905
X43.503Y-23.285
X43.503Y-51.365
X44.003Y-20.745
X44.003Y-48.825
X44.378Y-25.825
X44.378Y-53.905
X44.878Y-23.285
X44.878Y-51.365
X45.378Y-20.745
X45.378Y-48.825
X48.815Y-29.262
X48.815Y-30.637
X48.815Y-32.012
X48.815Y-33.387
X48.815Y-34.762
X48.815Y-36.137
X48.815Y-37.512
X48.815Y-38.887
X48.815Y-40.262
X48.815Y-41.637
X48.815Y-43.012
X48.815Y-44.387
X51.355Y-29.762
X51.355Y-31.137
X51.355Y-32.512
X51.355Y-33.887
X51.355Y-35.262
X51.355Y-36.637
X51.355Y-38.012
X51.355Y-39.387
X51.355Y-40.762
X51.355Y-42.137
X51.355Y-43.512
X51.355Y-44.887
X53.895Y-30.262
X53.895Y-31.637
X53.895Y-33.012
X53.895Y-34.387
X53.895Y-35.762
X53.895Y-37.137
X53.895Y-38.512
X53.895Y-39.887
X53.895Y-41.262
X53.895Y-42.637
X53.895Y-44.012
X53.895Y-45.387
T2
X15.67Y-69.16
X58.85Y-5.54
X66.56Y-15.79
T3
X5.53Y-15.66
X5.53Y-18.2
X5.53Y-20.74
X5.53Y-23.28
X5.53Y-25.82
X5.53Y-28.36
X5.53Y-30.9
X5.53Y-33.44
X5.53Y-35.98
X5.53Y-38.52
X5.53Y-41.06
X5.53Y-43.6
X5.53Y-46.14
X5.53Y-48.68
X5.53Y-51.22
X5.53Y-53.76
X5.53Y-56.3
X5.53Y-58.84
X8.07Y-15.66
X8.07Y-18.2
X8.07Y-20.74
X8.07Y-23.28
X8.07Y-25.82
X8.07Y-28.36
X8.07Y-30.9
X8.07Y-33.44
X8.07Y-35.98
X8.07Y-38.52
X8.07Y-41.06
X8.07Y-43.6
X8.07Y-46.14
X8.07Y-48.68
X8.07Y-51.22
X8.07Y-53.76
X8.07Y-56.3
X8.07Y-58.84
X15.67Y-5.54
X15.67Y-8.08
X15.67Y-66.62
X18.21Y-5.54
X18.21Y-8.08
X18.21Y-66.62
X18.21Y-69.16
X20.75Y-5.54
X20.75Y-8.08
X20.75Y-66.62
X20.75Y-69.16
X23.29Y-5.54
X23.29Y-8.08
X23.29Y-66.62
X23.29Y-69.16
X25.83Y-5.54
X25.83Y-8.08
X25.83Y-66.62
X25.83Y-69.16
X28.37Y-5.54
X28.37Y-8.08
X28.37Y-66.62
X28.37Y-69.16
X30.91Y-5.54
X30.91Y-8.08
X30.91Y-66.62
X30.91Y-69.16
X33.45Y-5.54
X33.45Y-8.08
X33.45Y-66.62
X33.45Y-69.16
X35.99Y-5.54
X35.99Y-8.08
X35.99Y-66.62
X35.99Y-69.16
X38.53Y-5.54
X38.53Y-8.08
X38.53Y-66.62
X38.53Y-69.16
X41.07Y-5.54
X41.07Y-8.08
X41.07Y-66.62
X41.07Y-69.16
X43.61Y-5.54
X43.61Y-8.08
X43.61Y-66.62
X43.61Y-69.16
X46.15Y-5.54
X46.15Y-8.08
X46.15Y-66.62
X46.15Y-69.16
X48.69Y-5.54
X48.69Y-8.08
X48.69Y-66.62
X48.69Y-69.16
X51.23Y-5.54
X51.23Y-8.08
X51.23Y-66.62
X51.23Y-69.16
X53.77Y-5.54
X53.77Y-8.08
X53.77Y-66.62
X53.77Y-69.16
X56.31Y-5.54
X56.31Y-8.08
X56.31Y-66.62
X56.31Y-69.16
X58.85Y-8.08
X58.85Y-66.62
X58.85Y-69.16
X66.56Y-18.33
X66.56Y-20.87
X66.56Y-23.41
X66.56Y-25.95
X66.56Y-28.49
X66.56Y-31.03
X66.56Y-33.57
X66.56Y-36.11
X66.56Y-38.65
X66.56Y-41.19
X66.56Y-43.73
X66.56Y-46.27
X66.56Y-48.81
X66.56Y-51.35
X66.56Y-53.89
X66.56Y-56.43
X66.56Y-58.97
X69.1Y-15.79
X69.1Y-18.33
X69.1Y-20.87
X69.1Y-23.41
X69.1Y-25.95
X69.1Y-28.49
X69.1Y-31.03
X69.1Y-33.57
X69.1Y-36.11
X69.1Y-38.65
X69.1Y-41.19
X69.1Y-43.73
X69.1Y-46.27
X69.1Y-48.81
X69.1Y-51.35
X69.1Y-53.89
X69.1Y-56.43
X69.1Y-58.97
T4
X21.315Y-21.325
X21.315Y-53.325
X53.315Y-21.325
X53.315Y-53.325
T0
M30
